<?xml version="1.0" standalone="no"?>
<!DOCTYPE svg PUBLIC "-//W3C//DTD SVG 1.1//EN" "http://www.w3.org/Graphics/SVG/1.1/DTD/svg11.dtd" >
<svg xmlns="http://www.w3.org/2000/svg" xmlns:xlink="http://www.w3.org/1999/xlink" version="1.1">
<metadata></metadata>
<defs>
<font id="core_rhino_65_boldregular" horiz-adv-x="404" >
<font-face units-per-em="1000" ascent="800" descent="-200" />
<missing-glyph horiz-adv-x="300" />
<glyph unicode="ff" horiz-adv-x="798" d="M259 559v-25h216v28q0 89 46 134.5t128 45.5q53 0 98 -22t45 -43q0 -33 -19 -55q-36 13 -85 13q-79 0 -79 -76v-25h140q27 0 27 -35v-72h-167v-427h-100q-34 0 -34 27v400h-216v-427h-100q-34 0 -34 27v400h-67q-30 0 -30 35q0 39 9 72h88v28q0 90 45.5 135t129.5 45 q58 0 100 -22.5t42 -42.5q0 -33 -19 -55q-36 13 -87 13q-77 0 -77 -76z" />
<glyph unicode="fi" horiz-adv-x="696" d="M465 427h-206v-427h-100q-34 0 -34 27v400h-67q-30 0 -30 35q0 39 9 72h88v30q0 85 42 130.5t116 45.5q49 0 87 -19t38 -40q0 -32 -18 -55q-26 9 -64 9q-67 0 -67 -72v-29h313q27 0 27 -35v-353q0 -48 33 -48h25q8 -24 8 -46t-25 -40.5t-63 -18.5q-54 0 -83 37.5 t-29 128.5v268zM532 599q-31 0 -53.5 20.5t-22.5 53.5t20.5 51.5t52.5 18.5t54.5 -20t22.5 -53t-20.5 -52t-53.5 -19z" />
<glyph unicode="fl" horiz-adv-x="751" d="M477 702v23q50 12 95 12q39 0 39 -31v-537q0 -70 56 -70q33 0 58 11q16 -23 16 -55q0 -21 -32.5 -41.5t-83.5 -20.5q-80 0 -114 52.5t-34 156.5v415q-52 18 -115 18q-59 0 -81 -19.5t-22 -66.5v-15h131q27 0 27 -35v-72h-158v-427h-100q-34 0 -34 27v400h-67 q-30 0 -30 35q0 39 9 72h88v18q0 189 187 189q94 0 165 -39z" />
<glyph unicode="ffi" horiz-adv-x="1046" d="M815 427h-206v-427h-100q-34 0 -34 27v400h-216v-427h-100q-34 0 -34 27v400h-67q-30 0 -30 35q0 39 9 72h88v28q0 89 45.5 134.5t126.5 45.5q54 0 96 -21t42 -42q0 -34 -19 -56q-30 12 -80 12q-77 0 -77 -76v-25h216v30q0 85 42 130.5t116 45.5q49 0 87 -19t38 -40 q0 -32 -18 -55q-25 9 -64 9q-67 0 -67 -72v-29h313q27 0 27 -35v-353q0 -48 33 -48h25q8 -24 8 -46t-25 -40.5t-63 -18.5q-54 0 -83 37.5t-29 128.5v268zM882 599q-31 0 -53.5 20.5t-22.5 53.5t20.5 51.5t52.5 18.5t54.5 -20t22.5 -53t-20.5 -52t-53.5 -19z" />
<glyph unicode="ffl" horiz-adv-x="1101" d="M827 702v23q50 12 95 12q39 0 39 -31v-537q0 -70 56 -70q33 0 58 11q16 -23 16 -55q0 -21 -32.5 -41.5t-83.5 -20.5q-81 0 -114.5 53t-33.5 159v412q-52 18 -115 18q-58 0 -80.5 -20t-22.5 -66v-15h131q27 0 27 -35v-72h-158v-427h-100q-34 0 -34 27v400h-216v-427h-100 q-34 0 -34 27v400h-67q-30 0 -30 35q0 39 9 72h88v28q0 90 45.5 135t129.5 45q58 0 100 -22.5t42 -42.5q0 -33 -19 -55q-36 13 -87 13q-77 0 -77 -76v-25h216v18q0 188 187 188q94 0 165 -38z" />
<glyph unicode="&#xd;" horiz-adv-x="237" />
<glyph unicode=" "  horiz-adv-x="300" />
<glyph unicode="&#x09;" horiz-adv-x="300" />
<glyph unicode="&#xa0;" horiz-adv-x="300" />
<glyph unicode="!" horiz-adv-x="316" d="M160 -12q-33 0 -57 21.5t-24 56.5q0 34 21.5 54t55.5 20q33 0 57 -21.5t24 -57.5q0 -34 -21.5 -53.5t-55.5 -19.5zM102 216q-18 138 -18 358v122q51 12 106 12q42 0 42 -32v-102q0 -177 -20 -385h-76q-31 0 -34 27z" />
<glyph unicode="&#x22;" horiz-adv-x="539" d="M223 410h-83q-32 0 -34 27l-13 257q47 13 105 13q22 0 32.5 -8t9.5 -24zM428 410h-82q-32 0 -34 27l-13 257q47 13 105 13q22 0 32 -8t9 -24z" />
<glyph unicode="#" horiz-adv-x="711" d="M87 531h114l28 165q42 11 88 11q18 0 27.5 -6.5t6.5 -22.5l-26 -147h121l29 165q41 11 87 11q19 0 28 -6.5t6 -22.5l-26 -147h71q27 0 27 -34v-75h-116l-25 -145h77q27 0 27 -34v-75h-123l-28 -168h-87q-36 0 -33 23l24 145h-121l-28 -168h-87q-36 0 -33 23l24 145h-69 q-28 0 -28 36t8 73h108l25 145h-76q-28 0 -28 35q0 32 8 74zM307 422l-25 -145h121l25 145h-121z" />
<glyph unicode="$" horiz-adv-x="602" d="M366 -112h-81q-34 0 -34 27v76q-72 7 -120.5 34.5t-48.5 54.5q0 34 20 63q79 -38 178 -38q64 0 96 20t32 56q0 35 -26 57.5t-90 39.5q-117 32 -176.5 89t-59.5 144q0 74 48.5 127t131.5 69v95q38 10 76 10t38 -29v-75q61 -10 108 -40t70 -68q13 -20 13 -39q0 -22 -24 -35 q-36 -18 -96 -24q-31 93 -123 93q-44 0 -72 -23t-28 -60t33 -63.5t116 -50.5q104 -31 153.5 -82.5t49.5 -128.5q0 -75 -48.5 -126.5t-135.5 -66.5v-106z" />
<glyph unicode="%" horiz-adv-x="899" d="M352 0h-62q-38 0 -26 30l281 670h62q38 0 26 -30zM397 528q0 -81 -50.5 -130.5t-124.5 -49.5t-124.5 49.5t-50.5 130.5t50.5 130.5t124.5 49.5t124.5 -49.5t50.5 -130.5zM286 526q0 42 -18.5 66t-49.5 24q-27 0 -44 -22.5t-17 -61.5q0 -43 19 -67t50 -24q27 0 43.5 22.5 t16.5 62.5zM852 172q0 -81 -50 -130.5t-124 -49.5t-124.5 49.5t-50.5 130.5t50.5 130.5t124.5 49.5t124 -49.5t50 -130.5zM742 170q0 42 -18.5 66t-49.5 24q-27 0 -44 -22.5t-17 -61.5q0 -43 19 -67t50 -24q27 0 43.5 22.5t16.5 62.5z" />
<glyph unicode="&#x26;" horiz-adv-x="748" d="M613 418q34 -2 55 -18q17 -13 17 -44q0 -39 -25 -98t-69 -114l27 -18q40 -27 82 -27h20q9 -22 9 -52q0 -22 -25 -40.5t-63 -18.5q-58 0 -146 66q-98 -66 -211 -66q-101 0 -169.5 51.5t-68.5 134.5q0 120 133 187q-66 89 -66 171q0 77 57.5 128.5t144.5 51.5q85 0 138 -47 t53 -119q0 -60 -44 -110.5t-114 -80.5q72 -73 156 -144q67 82 109 207zM237 289q-57 -51 -57 -101q0 -38 28 -62t75 -24q68 0 118 28q-88 73 -164 159zM246 536q0 -54 44 -114q38 22 60.5 54.5t22.5 64.5q0 31 -17 49.5t-44 18.5q-28 0 -47 -20.5t-19 -52.5z" />
<glyph unicode="'" horiz-adv-x="315" d="M214 410h-83q-33 0 -34 27l-13 257q47 13 105 13q22 0 32 -8t9 -24z" />
<glyph unicode="(" horiz-adv-x="388" d="M93 310q0 114 34 221t95 181q35 42 62 42q33 0 57 -51q-116 -176 -116 -393t116 -393q-24 -51 -57 -51q-27 0 -62 42q-61 74 -95 181t-34 221z" />
<glyph unicode=")" horiz-adv-x="388" d="M295 310q0 -114 -34 -221t-95 -181q-35 -42 -62 -42q-33 0 -57 51q116 176 116 393t-116 393q24 51 57 51q27 0 62 -42q61 -74 95 -181t34 -221z" />
<glyph unicode="*" horiz-adv-x="593" d="M72 427q13 40 38 28l140 -68l-22 167q42 14 93 14q22 0 31.5 -7t7.5 -21l-21 -153l151 72q28 -39 42 -84q13 -40 -14 -45l-152 -28l115 -121q-25 -36 -67 -66q-33 -24 -47 0l-73 135l-81 -147q-47 16 -83 43q-35 26 -15 46l106 111l-165 31q0 45 16 93z" />
<glyph unicode="+" horiz-adv-x="634" d="M381 87h-94q-34 0 -34 27v166h-149q-29 0 -29 34q0 38 9 70h169v180q36 13 89 13q39 0 39 -30v-163h149q29 0 29 -31v-73h-178v-193z" />
<glyph unicode="," horiz-adv-x="333" d="M164 146q33 0 56.5 -23t23.5 -62q0 -84 -56 -151q-22 -27 -46.5 -41t-33.5 -10q-17 8 -24 32q51 48 60 101q-24 8 -39.5 28.5t-15.5 50.5q0 35 21 55t54 20z" />
<glyph unicode="-" horiz-adv-x="451" d="M89 387h253q29 0 29 -32v-79h-263q-29 0 -29 35q0 42 10 76z" />
<glyph unicode="." horiz-adv-x="333" d="M164 146q32 0 56 -22.5t24 -59.5q0 -35 -21 -55.5t-54 -20.5q-32 0 -56 23t-24 60q0 35 21 55t54 20z" />
<glyph unicode="/" horiz-adv-x="533" d="M534 719l-412 -829h-97q-18 0 -25.5 9.5t-0.5 24.5l412 829h99q18 0 25 -8.5t-1 -25.5z" />
<glyph unicode="0" horiz-adv-x="667" d="M333 712q130 0 204 -95t74 -267q0 -171 -73.5 -266.5t-203.5 -95.5q-131 0 -205 95.5t-74 266.5t74 266.5t204 95.5zM339 104q131 0 131 238q0 254 -142 254q-63 0 -97.5 -59t-34.5 -179t35.5 -187t107.5 -67z" />
<glyph unicode="1" horiz-adv-x="667" d="M340 700h87q32 0 32 -30v-670h-107q-34 0 -34 26v517l-135 -84q-43 27 -61 54q-10 17 -10 26q0 18 27 35z" />
<glyph unicode="2" horiz-adv-x="667" d="M92 89q68 38 125 79t108.5 90.5t80.5 105.5t29 112q0 55 -30.5 85.5t-81.5 30.5q-45 0 -77.5 -30.5t-47.5 -85.5q-57 4 -95 25q-24 14 -24 35q0 18 8 34q29 63 90.5 102.5t147.5 39.5q114 0 183 -65t69 -174q0 -195 -237 -357h214q27 0 27 -34v-82h-421q-31 0 -46 23 q-16 29 -22 66z" />
<glyph unicode="3" horiz-adv-x="667" d="M286 314q-34 3 -46 24q-17 29 -22 71l160 175h-258q-29 0 -29 35q0 39 10 81h385q32 0 47 -23q15 -26 22 -66l-190 -202q97 -19 154.5 -71.5t57.5 -135.5q0 -94 -73.5 -154t-198.5 -60q-93 0 -160 30t-67 66q0 34 20 63q86 -42 187 -42q73 0 112 26t39 74q0 98 -150 109z " />
<glyph unicode="4" horiz-adv-x="667" d="M398 249v302q-62 -51 -118.5 -137t-79.5 -165h198zM51 222q37 131 122 255.5t191 207.5q53 22 129 22q26 0 35.5 -8t9.5 -27v-423h62q27 0 27 -34v-82h-89v-133h-106q-34 0 -34 27v106h-278q-31 0 -47 24q-16 27 -22 65z" />
<glyph unicode="5" horiz-adv-x="667" d="M289 105q68 0 109.5 29t41.5 88t-41.5 88t-109.5 29q-57 0 -112 -11q-16 -2 -21 -2q-16 0 -27 10l-19 17l46 347h373q27 0 27 -34v-82h-283l-19 -140q30 10 78 10q109 0 179 -62t70 -168q0 -104 -71.5 -170t-197.5 -66q-96 0 -165 32t-69 64q0 34 20 63q86 -42 191 -42z " />
<glyph unicode="6" horiz-adv-x="667" d="M473 500q-9 46 -37 70.5t-70 24.5q-64 0 -108.5 -49.5t-51.5 -152.5q63 52 160 52q105 0 176 -63.5t71 -163.5q0 -101 -69 -165.5t-184 -64.5q-134 0 -215 91t-81 248v16q0 171 82 270t218 99q74 0 130 -29t86 -82q11 -18 11 -37q0 -22 -24 -36q-36 -23 -94 -28zM338 332 q-79 0 -133 -42q6 -87 49 -136t109 -49q47 0 78 29t31 79q0 55 -37.5 87t-96.5 32z" />
<glyph unicode="7" horiz-adv-x="667" d="M587 613q-182 -315 -251 -613h-104q-19 0 -29.5 10.5t-4.5 28.5q98 325 229 545h-325q-29 0 -29 35q0 38 10 81h436q32 0 47 -25t21 -62z" />
<glyph unicode="8" horiz-adv-x="667" d="M85 519q0 82 65.5 137.5t178.5 55.5q112 0 178.5 -55t66.5 -134q0 -94 -94 -152q128 -61 128 -175q0 -92 -73.5 -150t-200.5 -58q-125 0 -200.5 56.5t-75.5 147.5q0 56 35 99.5t99 65.5q-107 57 -107 162zM200 193q0 -40 38.5 -65.5t96.5 -25.5q57 0 94 25t37 64 q0 40 -35.5 66t-128.5 52q-102 -39 -102 -116zM432 520q0 35 -29.5 56.5t-74.5 21.5q-43 0 -72 -21t-29 -55q0 -35 31 -59t111 -49q63 44 63 106z" />
<glyph unicode="9" horiz-adv-x="667" d="M303 255q-105 0 -176 63.5t-71 163.5q0 101 69 165.5t184 64.5q134 0 215 -91t81 -248v-20q0 -177 -84.5 -271t-222.5 -94q-74 0 -137 31.5t-63 62.5q0 33 20 63q66 -40 152 -40q80 0 133 48.5t60 153.5q-63 -52 -160 -52zM306 595q-47 0 -78 -29t-31 -79q0 -55 37.5 -87 t96.5 -32q79 0 132 41q-6 88 -48.5 137t-108.5 49z" />
<glyph unicode=":" horiz-adv-x="333" d="M164 146q32 0 56 -22.5t24 -59.5q0 -35 -21 -55.5t-54 -20.5q-32 0 -56 23t-24 60q0 35 21 55t54 20zM164 546q32 0 56 -23t24 -60q0 -35 -21 -55.5t-54 -20.5q-32 0 -56 23t-24 60q0 35 21 55.5t54 20.5z" />
<glyph unicode=";" horiz-adv-x="333" d="M164 546q32 0 56 -23t24 -60q0 -35 -21 -55.5t-54 -20.5q-32 0 -56 23t-24 60q0 35 21 55.5t54 20.5zM164 146q33 0 56.5 -23t23.5 -62q0 -84 -56 -151q-22 -27 -46.5 -41t-33.5 -10q-17 8 -24 32q51 48 60 101q-24 8 -39.5 28.5t-15.5 50.5q0 35 21 55t54 20z" />
<glyph unicode="&#x3c;" horiz-adv-x="634" d="M559 64l-459 198q-26 11 -26 40v83l439 190q21 10 33.5 -0.5t12.5 -36.5q0 -30 -7 -74l-322 -135l303 -128q26 -12 26 -40v-97z" />
<glyph unicode="=" horiz-adv-x="634" d="M559 394h-455q-29 0 -29 35q0 37 9 70h446q29 0 29 -32v-73zM559 165h-455q-29 0 -29 34q0 38 9 71h446q29 0 29 -32v-73z" />
<glyph unicode="&#x3e;" horiz-adv-x="634" d="M533 262l-459 -198v97q0 28 26 40l303 128l-321 135q-8 40 -8 74q0 23 13 34.5t33 2.5l439 -190v-83q0 -29 -26 -40z" />
<glyph unicode="?" horiz-adv-x="565" d="M166 478q-46 3 -83 19t-37 41q0 16 8 34q26 64 85 102t140 38q103 0 166 -56.5t63 -147.5q0 -102 -107 -192q-38 -32 -52 -52t-14 -50v-26h-106q-34 0 -34 27v15q0 49 22.5 86.5t74.5 75.5q42 30 58 57t16 61q0 37 -23.5 59.5t-63.5 22.5q-41 0 -72.5 -29.5t-40.5 -84.5z M266 -12q-33 0 -56.5 21t-23.5 57q0 34 21.5 53.5t55.5 19.5q33 0 56.5 -21.5t23.5 -56.5q0 -34 -21 -53.5t-56 -19.5z" />
<glyph unicode="@" horiz-adv-x="1020" d="M474 149q64 0 105 53l34 173q-23 26 -77 26q-56 0 -97.5 -45.5t-41.5 -115.5q0 -42 21 -66.5t56 -24.5zM950 299q0 -111 -52.5 -181.5t-148.5 -70.5q-51 0 -92.5 23t-63.5 65q-51 -83 -155 -83q-71 0 -119 53.5t-48 132.5q0 122 79 191.5t188 69.5q66 0 118 -29t83 -76 l-36 -190q-13 -69 62 -69q44 0 72 43.5t28 120.5q0 146 -98 241.5t-258 95.5q-148 0 -250.5 -102.5t-102.5 -257.5q0 -157 103.5 -259.5t264.5 -102.5q136 0 228 68q19 -14 23 -35q1 -8 -8.5 -21t-31 -28t-51 -28.5t-73.5 -22.5t-93 -9q-194 0 -321 125t-127 312t127 312 t312 125q193 0 317 -116t124 -297z" />
<glyph unicode="A" horiz-adv-x="689" d="M163 0h-108q-19 0 -27 9.5t-3 25.5l236 649q51 23 110 23q26 0 40 -9t23 -33l242 -665h-114q-36 0 -44 24l-43 128h-262zM439 265l-95 285l-94 -285h189z" />
<glyph unicode="B" horiz-adv-x="664" d="M470 208q0 92 -123 92h-124v-87q0 -57 15 -79t54 -22h65q113 0 113 96zM447 499q0 42 -28 65.5t-83 23.5h-114v-178h114q55 0 83 23.5t28 65.5zM82 700h262q117 0 181 -52t64 -136q0 -52 -25.5 -91.5t-69.5 -58.5q54 -18 86 -60.5t32 -103.5q0 -91 -65.5 -144.5 t-188.5 -53.5h-90q-95 0 -140.5 49t-45.5 158v493z" />
<glyph unicode="C" horiz-adv-x="695" d="M537 475q-44 120 -164 120q-76 0 -128 -59t-52 -163q0 -124 72 -196t189 -72q92 0 160 36q20 -32 20 -63q0 -30 -63.5 -60t-144.5 -30q-163 0 -269 105t-106 277q0 156 93.5 249t234.5 93q94 0 165 -39t105 -105q8 -15 8 -32q0 -20 -24 -34q-39 -24 -96 -27z" />
<glyph unicode="D" horiz-adv-x="726" d="M339 0h-71q-95 0 -140.5 49t-45.5 158v493h261q145 0 238.5 -95t93.5 -255t-94 -255t-242 -95zM532 350q0 113 -56.5 173.5t-146.5 60.5h-107v-367q0 -57 15.5 -79t54.5 -22h37q90 0 146.5 60.5t56.5 173.5z" />
<glyph unicode="E" horiz-adv-x="582" d="M530 0h-263q-104 0 -144.5 53.5t-40.5 161.5v485h411q29 0 29 -36q0 -38 -10 -80h-290v-178h219q27 0 27 -34v-81h-246v-81q0 -55 15 -75t52 -20h214q27 0 27 -34v-81z" />
<glyph unicode="F" horiz-adv-x="557" d="M224 0h-106q-34 0 -34 26v674h410q29 0 29 -36q0 -42 -9 -80h-290v-192h218q27 0 27 -34v-82h-245v-276z" />
<glyph unicode="G" horiz-adv-x="754" d="M554 483q-22 52 -64.5 81.5t-101.5 29.5q-85 0 -140 -59t-55 -163q0 -121 68.5 -194t167.5 -73q60 0 87 18t27 57v80h-113q-30 0 -30 36q0 33 9 73h236q39 0 39 -42v-139q0 -99 -75.5 -149.5t-185.5 -50.5q-160 0 -266 105.5t-106 275.5q0 156 95.5 249.5t242.5 93.5 q92 0 164 -37.5t110 -99.5q10 -16 10 -31q0 -23 -37.5 -41t-81.5 -20z" />
<glyph unicode="H" horiz-adv-x="724" d="M224 0h-106q-34 0 -34 26v669q42 12 100 12q40 0 40 -30v-269h275v292h107q34 0 34 -27v-673h-107q-34 0 -34 26v267h-275v-293z" />
<glyph unicode="I" horiz-adv-x="318" d="M229 0h-107q-34 0 -34 26v669q43 12 101 12q40 0 40 -30v-677z" />
<glyph unicode="J" horiz-adv-x="452" d="M174 -12q-63 0 -111.5 22.5t-48.5 48.5q0 33 18 64q49 -18 96 -18q103 0 103 107v483q42 12 101 12q39 0 39 -30v-452q0 -117 -45 -177t-152 -60z" />
<glyph unicode="K" horiz-adv-x="675" d="M607 597q-70 -112 -198 -221q80 -156 162 -241q30 -32 64 -32h18q9 -22 9 -55q0 -22 -26 -41t-65 -19q-65 0 -128 75q-71 87 -140 231q-39 -27 -79 -51v-243h-106q-34 0 -34 27v668q47 13 101 13q39 0 39 -30v-283q171 123 292 314q57 -18 79 -35.5t22 -41.5 q0 -18 -10 -35z" />
<glyph unicode="L" horiz-adv-x="555" d="M531 0h-259q-103 0 -146.5 51.5t-43.5 164.5v480q42 12 100 12q40 0 40 -30v-462q0 -57 14 -79t53 -22h215q27 0 27 -34v-81z" />
<glyph unicode="M" horiz-adv-x="901" d="M692 28l-44 461l-135 -253q-12 -22 -46 -22h-70l-147 275l-47 -489h-108q-37 0 -34 30l71 644q56 33 101 33q27 0 40 -24l176 -334l186 351h98q31 0 34 -26l73 -674h-110q-35 0 -38 28z" />
<glyph unicode="N" horiz-adv-x="720" d="M500 13l-276 447v-460h-106q-34 0 -34 27v640q22 17 51 29t47 12q24 0 38 -21l276 -447v460h106q34 0 34 -27v-640q-22 -17 -51 -29t-47 -12q-26 0 -38 21z" />
<glyph unicode="O" horiz-adv-x="781" d="M729 350q0 -170 -96.5 -266t-242.5 -96t-242.5 96t-96.5 266t96.5 266t242.5 96t242.5 -96t96.5 -266zM396 105q81 0 136 60t55 176q0 115 -58 184.5t-144 69.5q-81 0 -136.5 -60t-55.5 -176q0 -115 58.5 -184.5t144.5 -69.5z" />
<glyph unicode="P" horiz-adv-x="647" d="M224 0h-106q-34 0 -34 27v673h240q131 0 206 -69t75 -191q0 -115 -75 -182.5t-193 -67.5q-65 0 -113 15v-205zM224 584v-269q42 -8 89 -8q69 0 109.5 35t40.5 103t-39 103.5t-108 35.5h-92z" />
<glyph unicode="Q" horiz-adv-x="781" d="M729 350q0 -109 -41.5 -189.5t-113.5 -123.5q47 -76 115 -76h25q8 -22 8 -50q0 -24 -23.5 -38.5t-61.5 -14.5q-52 0 -95 38t-65 102q-39 -10 -87 -10q-146 0 -242.5 96t-96.5 266t96.5 266t242.5 96t242.5 -96t96.5 -266zM396 105q81 0 136 60t55 176q0 115 -58 184.5 t-144 69.5q-81 0 -136.5 -60t-55.5 -176q0 -115 58.5 -184.5t144.5 -69.5z" />
<glyph unicode="R" horiz-adv-x="657" d="M526 -12q-37 0 -67 16t-63 56q-49 61 -89 149q-51 2 -83 13v-222h-106q-34 0 -34 26v674h220q131 0 206 -65.5t75 -180.5q0 -80 -38.5 -136.5t-105.5 -83.5q37 -60 72 -97q38 -38 75 -38h20q8 -24 8 -51q0 -24 -23.5 -42t-66.5 -18zM224 584v-251q29 -7 70 -7 q68 0 107.5 32.5t39.5 95.5t-38.5 96.5t-108.5 33.5h-70z" />
<glyph unicode="S" horiz-adv-x="601" d="M280 105q64 0 96 20t32 56q0 35 -28 57.5t-101 43.5q-223 63 -223 227q0 90 66.5 146.5t173.5 56.5q81 0 142 -32.5t90 -79.5q13 -20 13 -39q0 -22 -24 -35q-36 -18 -96 -24q-31 93 -123 93q-44 0 -72 -23t-28 -60t33 -63.5t116 -50.5q104 -31 153.5 -82.5t49.5 -128.5 q0 -89 -67.5 -144t-184.5 -55q-90 0 -153 30t-63 62q0 34 20 63q79 -38 178 -38z" />
<glyph unicode="T" horiz-adv-x="623" d="M381 0h-106q-34 0 -34 26v558h-175q-29 0 -29 35q0 34 9 81h512q27 0 27 -34v-82h-204v-584z" />
<glyph unicode="U" horiz-adv-x="721" d="M79 294v401q47 13 101 13q40 0 40 -30v-395q0 -83 37.5 -130.5t103.5 -47.5t103.5 47.5t37.5 130.5v417h106q34 0 34 -27v-379q0 -142 -74.5 -224t-206.5 -82t-207 82t-75 224z" />
<glyph unicode="V" horiz-adv-x="726" d="M683 669q-33 -158 -95 -328t-138 -311q-10 -17 -21.5 -23.5t-35.5 -6.5h-115l-241 668q62 40 108 40q29 0 38 -27l179 -520q54 105 102.5 249.5t75.5 289.5h109q20 0 28.5 -8t5.5 -23z" />
<glyph unicode="W" horiz-adv-x="1122" d="M871 30q-12 -30 -58 -30h-106l-142 525q-53 -254 -158 -495q-13 -30 -58 -30h-101l-206 668q62 40 107 40q31 0 39 -27l144 -520q92 215 148 539h109q49 0 58 -33l138 -506q94 224 149 539h95q27 0 38 -10.5t7 -30.5q-56 -286 -203 -629z" />
<glyph unicode="X" horiz-adv-x="699" d="M439 359l223 -296q-57 -72 -99 -72q-19 0 -33 18l-189 249q-101 -118 -151 -258h-110q-21 0 -29 12t-1 33q28 79 85.5 163t129.5 151l-208 275q56 73 101 73q19 0 34 -21l169 -225q93 111 138 239h109q21 0 30 -12.5t1 -33.5q-68 -169 -200 -295z" />
<glyph unicode="Y" horiz-adv-x="671" d="M262 26v212l-231 408q54 61 104 61q20 0 31 -20l170 -322q116 170 166 335h101q20 0 29.5 -11t4.5 -29q-56 -191 -235 -418v-242h-106q-34 0 -34 26z" />
<glyph unicode="Z" horiz-adv-x="622" d="M79 700h420q31 0 46 -23q16 -29 22 -66l-331 -496h311q27 0 27 -34v-81h-455q-31 0 -46 23q-16 29 -22 66l331 495h-283q-29 0 -29 35q0 34 9 81z" />
<glyph unicode="[" horiz-adv-x="430" d="M241 643v-569q0 -56 13.5 -76.5t50.5 -20.5h69q27 0 27 -34v-73h-113q-93 0 -134.5 46.5t-41.5 155.5v678h265q29 0 29 -36q0 -30 -9 -71h-156z" />
<glyph unicode="\" horiz-adv-x="533" d="M411 -110l-411 827q-7 15 1 25.5t25 10.5h96l412 -829q7 -15 -1 -24.5t-26 -9.5h-96z" />
<glyph unicode="]" horiz-adv-x="430" d="M187 74v569h-155q-9 41 -9 71q0 36 29 36h224q26 0 33.5 -6.5t7.5 -32.5v-635q0 -111 -42.5 -158.5t-134.5 -47.5h-112v73q0 34 27 34h69q37 0 50 20.5t13 76.5z" />
<glyph unicode="^" horiz-adv-x="621" d="M421 378l-116 197l-130 -222q-49 3 -88 25q-17 10 -17 29q0 11 9 24l163 269h85q41 0 58 -27l166 -275l-58 -40q-14 -10 -33 -10q-21 0 -39 30z" />
<glyph unicode="_" horiz-adv-x="500" d="M6 -92h464q30 0 30 -32v-55h-472q-28 0 -28 34q0 27 6 53z" />
<glyph unicode="`" horiz-adv-x="420" d="M229 571l-125 96q17 33 46 61q14 12 30 12q13 0 28 -15l109 -112l-39 -42q-11 -11 -23 -11q-11 0 -26 11z" />
<glyph unicode="a" horiz-adv-x="599" d="M243 442q-75 0 -138 -31q-16 22 -16 53q0 28 57 55t134 27q111 0 170.5 -54.5t59.5 -160.5v-185q0 -49 36 -49h23q7 -25 7 -45q0 -22 -24.5 -40.5t-62.5 -18.5q-34 0 -62 20t-40 59q-53 -84 -159 -84q-81 0 -132 47.5t-51 122.5q0 81 57.5 127.5t154.5 46.5q74 0 120 -24 v33q0 101 -134 101zM262 92q36 0 68 19.5t47 54.5v59q-32 12 -94 12q-50 0 -77.5 -20t-27.5 -55q0 -34 23.5 -52t60.5 -18z" />
<glyph unicode="b" horiz-adv-x="644" d="M373 546q96 0 160 -70.5t64 -187.5q0 -133 -78 -216.5t-203 -83.5q-111 0 -177.5 67t-66.5 182v488q43 12 95 12q38 0 38 -30v-239q68 78 168 78zM336 439q-72 0 -131 -62v-145q0 -66 32 -101t81 -35q59 0 102 53t43 134q0 79 -35 117.5t-92 38.5z" />
<glyph unicode="c" horiz-adv-x="558" d="M512 70q0 -31 -49.5 -56.5t-125.5 -25.5q-119 0 -204.5 80.5t-85.5 214.5q0 119 72 191t190 72q73 0 128.5 -29t80.5 -76q8 -16 8 -31q0 -20 -26 -35q-36 -22 -87 -26q-23 89 -109 89q-54 0 -88.5 -41t-34.5 -112q0 -88 52.5 -138.5t132.5 -50.5q70 0 127 30 q19 -27 19 -56z" />
<glyph unicode="d" horiz-adv-x="664" d="M438 730h99q34 0 34 -28v-557q0 -48 36 -48h22q7 -20 7 -45q0 -22 -24.5 -40.5t-62.5 -18.5q-36 0 -65.5 23.5t-40.5 69.5q-28 -48 -73.5 -73t-97.5 -25q-97 0 -161.5 70t-64.5 187q0 135 76.5 218t182.5 83q80 0 133 -50v234zM438 205v197q-39 35 -102 35 q-68 0 -111.5 -53t-43.5 -135q0 -72 32.5 -113t92.5 -41q42 0 77 28t55 82z" />
<glyph unicode="e" horiz-adv-x="583" d="M318 -12q-119 0 -195 78.5t-76 198.5q0 127 78 204t194 77q100 0 161 -56t61 -142q0 -51 -19 -87q-12 -23 -30.5 -32.5t-50.5 -9.5h-258q10 -62 53 -94t109 -32q73 0 128 29q18 -26 18 -55q0 -27 -49.5 -53t-123.5 -26zM316 441q-55 0 -90.5 -34t-42.5 -94h222q7 14 7 35 q0 43 -25.5 68t-70.5 25z" />
<glyph unicode="f" horiz-adv-x="446" d="M124 534v28q0 89 46 134.5t128 45.5q54 0 98 -21.5t44 -42.5q0 -33 -18 -56q-33 13 -85 13q-43 0 -61.5 -17t-18.5 -58v-26h140q27 0 27 -34v-73h-167v-427h-99q-34 0 -34 26v401h-68q-28 0 -28 35q0 44 8 72h88z" />
<glyph unicode="g" horiz-adv-x="648" d="M274 -247q-99 0 -154 39.5t-55 101.5q0 36 24 69.5t71 54.5q-53 31 -83.5 90t-30.5 138q0 134 76.5 217t182.5 83q80 0 133 -50v38h99q34 0 34 -27v-498q0 -104 -79.5 -180t-217.5 -76zM306 95q42 0 77 28t55 83v196q-40 36 -102 36q-68 0 -111.5 -53t-43.5 -135 q0 -73 32.5 -114t92.5 -41zM278 -11q-23 0 -42 3q-39 -34 -39 -79q0 -25 21.5 -40t62.5 -15q66 0 111.5 39.5t45.5 108.5v72q-66 -89 -160 -89z" />
<glyph unicode="h" horiz-adv-x="648" d="M208 0h-99q-34 0 -34 27v698q42 12 95 12q38 0 38 -30v-231q29 32 73 51t90 19q89 0 137.5 -59.5t48.5 -172.5v-168q0 -49 32 -49h26q7 -20 7 -45q0 -22 -24.5 -40.5t-62.5 -18.5q-48 0 -79.5 32t-31.5 104v194q0 115 -98 115q-68 0 -118 -45v-393z" />
<glyph unicode="i" horiz-adv-x="304" d="M74 128v401q43 12 95 12q38 0 38 -30v-366q0 -48 33 -48h26q7 -24 7 -45q0 -22 -24.5 -40.5t-62.5 -18.5q-48 0 -80 31.5t-32 103.5zM140 600q-31 0 -53 20t-22 53q0 32 20.5 51t52.5 19q31 0 53.5 -20.5t22.5 -52.5q0 -33 -20 -51.5t-54 -18.5z" />
<glyph unicode="j" horiz-adv-x="287" d="M118 -165q-46 -34 -73 -34q-14 0 -26.5 14t-18.5 32q79 84 79 195v487q44 12 95 12q38 0 38 -30v-463q0 -141 -94 -213zM145 600q-31 0 -53 20t-22 53q0 32 20.5 51t52.5 19q31 0 53.5 -20.5t22.5 -52.5q0 -33 -20 -51.5t-54 -18.5z" />
<glyph unicode="k" horiz-adv-x="593" d="M208 0h-99q-34 0 -34 27v698q42 12 95 12q38 0 38 -30v-390q63 39 129.5 102t105.5 125q52 -17 72 -33.5t20 -38.5q0 -12 -9 -29q-39 -70 -157 -156q60 -99 110 -153q33 -37 61 -37h22q8 -24 8 -45q0 -22 -25 -40.5t-63 -18.5q-64 0 -121 77q-47 61 -94 150 q-27 -17 -59 -33v-187z" />
<glyph unicode="l" horiz-adv-x="346" d="M221 -7q-77 0 -112.5 49t-35.5 133v550q44 12 95 12q38 0 38 -30v-537q0 -72 56 -72q33 0 58 11q16 -23 16 -54q0 -25 -31.5 -43.5t-83.5 -18.5z" />
<glyph unicode="m" horiz-adv-x="920" d="M620 437q-58 0 -105 -44q3 -23 3 -47v-346h-99q-34 0 -34 27v328q0 41 -20 61.5t-54 20.5q-61 0 -103 -45v-392h-100q-34 0 -34 27v502q50 12 95 12q39 0 39 -31v-33q56 67 142 67q97 0 141 -74q73 76 166 76q79 0 125.5 -49t46.5 -150v-201q0 -48 33 -48h25q7 -20 7 -42 q0 -24 -22.5 -43.5t-64.5 -19.5q-49 0 -80.5 31.5t-31.5 103.5v227q0 82 -75 82z" />
<glyph unicode="n" horiz-adv-x="648" d="M208 0h-99q-34 0 -34 27v502q42 12 95 12q38 0 38 -30v-35q30 32 74 51t89 19q89 0 137.5 -59.5t48.5 -172.5v-168q0 -48 32 -48h26q7 -20 7 -45q0 -23 -24.5 -41.5t-62.5 -18.5q-48 0 -80 32t-32 104v194q0 115 -97 115q-66 0 -118 -45v-393z" />
<glyph unicode="o" horiz-adv-x="633" d="M317 546q113 0 191.5 -75t78.5 -204t-78.5 -204t-191.5 -75t-191.5 75t-78.5 204t78.5 204t191.5 75zM321 96q58 0 94.5 42t36.5 123q0 82 -40 129.5t-99 47.5q-58 0 -95 -42t-37 -123q0 -82 40.5 -129.5t99.5 -47.5z" />
<glyph unicode="p" horiz-adv-x="646" d="M74 -186v715q43 12 95 12q38 0 38 -30v-57q59 92 166 92q98 0 162 -71t64 -188q0 -133 -76.5 -216t-182.5 -83q-82 0 -133 49v-250h-99q-34 0 -34 27zM339 438q-42 0 -77 -28t-55 -83v-196q37 -36 102 -36q68 0 112 53t44 135q0 73 -33 114t-93 41z" />
<glyph unicode="q" horiz-adv-x="646" d="M571 -213h-99q-34 0 -34 27v265q-58 -91 -165 -91q-98 0 -162.5 70.5t-64.5 187.5q0 133 76.5 216.5t182.5 83.5q80 0 133 -50v38h99q34 0 34 -27v-720zM306 95q42 0 77 28t55 83v196q-40 36 -102 36q-68 0 -111.5 -53t-43.5 -135q0 -73 32.5 -114t92.5 -41z" />
<glyph unicode="r" horiz-adv-x="479" d="M359 544q45 0 77.5 -13t32.5 -41q0 -19 -18.5 -40.5t-43.5 -36.5q-33 25 -83 25q-92 0 -117 -108v-330h-99q-34 0 -34 26v503q43 12 95 12q38 0 38 -30v-53q22 39 62.5 62.5t89.5 23.5z" />
<glyph unicode="s" horiz-adv-x="505" d="M446 458q9 -16 9 -30q0 -18 -22 -31q-38 -22 -82 -25q-10 33 -34 51t-57 18q-34 0 -52.5 -15t-18.5 -38q0 -29 23 -46t77 -31q88 -23 129 -62t41 -102q0 -72 -53.5 -115.5t-150.5 -43.5q-74 0 -129.5 26.5t-55.5 55.5q0 35 19 57q68 -34 148 -34q89 0 89 49q0 23 -17 37 t-63 24q-190 43 -190 183q0 71 54.5 115.5t144.5 44.5q65 0 116 -23.5t75 -64.5z" />
<glyph unicode="t" horiz-adv-x="464" d="M297 -12q-82 0 -130.5 51.5t-48.5 146.5v241h-61q-29 0 -29 35q0 38 8 72h82v148q44 12 95 12q39 0 39 -30v-130h146q27 0 27 -34v-73h-173v-248q0 -83 82 -83q45 0 76 14q18 -22 18 -54q0 -25 -36.5 -46.5t-94.5 -21.5z" />
<glyph unicode="u" horiz-adv-x="619" d="M552 507v-280q0 -111 -66.5 -175t-175.5 -64q-112 0 -177.5 61.5t-65.5 177.5v302q43 12 95 12q38 0 38 -30v-291q0 -56 30.5 -89t79.5 -33q48 0 78.5 33t30.5 89v314h99q34 0 34 -27z" />
<glyph unicode="v" horiz-adv-x="597" d="M378 25q-14 -25 -52 -25h-107l-184 502q57 40 101 40q27 0 35 -23l127 -385q40 77 76.5 189.5t52.5 210.5h98q19 0 28 -8t6 -23q-25 -115 -74.5 -245.5t-106.5 -232.5z" />
<glyph unicode="w" horiz-adv-x="877" d="M704 534h88q22 0 33 -11t8 -29q-40 -238 -139 -467q-11 -27 -51 -27h-107l-94 385q-30 -193 -97 -360q-11 -25 -49 -25h-103l-153 503q55 38 99 38q28 0 35 -24l97 -382q63 169 94 399h101q44 0 52 -35l92 -364q61 166 94 399z" />
<glyph unicode="x" horiz-adv-x="578" d="M364 59l-89 118q-70 -82 -104 -177h-101q-33 0 -33 23q0 8 4 16q48 124 164 230l-155 205q48 66 90 66q18 0 32 -18l124 -164q66 78 98 176h102q32 0 32 -24q0 -7 -3 -16q-21 -56 -64 -117t-96 -111l97 -129q16 -22 29.5 -30.5t32.5 -8.5h17q8 -22 8 -46 q0 -22 -23.5 -40.5t-60.5 -18.5q-52 0 -101 66z" />
<glyph unicode="y" horiz-adv-x="629" d="M278 -248q-92 0 -146 39.5t-54 99.5q0 35 22 67.5t62 53.5q-90 51 -90 201v314q44 12 95 12q38 0 38 -30v-299q0 -115 97 -115q68 0 119 46v393h99q34 0 34 -27v-506q0 -104 -71.5 -176.5t-204.5 -72.5zM275 -10q-12 0 -26 2q-38 -33 -38 -79q0 -26 19 -41t55 -15 q58 0 97 36t39 101v64q-60 -65 -146 -68z" />
<glyph unicode="z" horiz-adv-x="513" d="M475 0h-361q-32 0 -49 27q-11 18 -19 57l250 343h-212q-29 0 -29 35q0 40 9 72h336q31 0 47 -24q16 -26 21 -61l-249 -341h229q27 0 27 -34v-74z" />
<glyph unicode="{" horiz-adv-x="435" d="M82 254q-26 3 -26 35v74q106 0 106 100v98q0 99 45 144t149 45h31q29 0 29 -36q0 -34 -8 -71h-58q-59 0 -59 -80v-93q0 -121 -96 -160q53 -23 74.5 -59.5t21.5 -101.5v-94q0 -42 13.5 -60t45.5 -18h34q27 0 27 -34v-73h-69q-90 0 -135 49t-45 137v96q0 49 -20 73t-60 29z " />
<glyph unicode="|" horiz-adv-x="321" d="M103 761q34 8 76 8q39 0 39 -30v-939h-81q-34 0 -34 27v934z" />
<glyph unicode="}" horiz-adv-x="435" d="M353 254q-43 -6 -61.5 -28.5t-18.5 -69.5v-101q0 -101 -44.5 -143t-138.5 -42h-67v73q0 34 27 34h26q59 0 59 79v93q0 121 96 161q-96 39 -96 160v89q0 84 -59 84h-49q-9 41 -9 71q0 36 29 36h37q98 0 143.5 -45t45.5 -148v-94q0 -100 106 -100v-74q0 -32 -26 -35z" />
<glyph unicode="~" horiz-adv-x="634" d="M423 239q-64 0 -118 40q-59 43 -82 43q-42 0 -51 -82q-50 -4 -83 13q-25 13 -25 35q0 17 4 30q31 108 142 108q64 0 118 -40q59 -43 82 -43q21 0 33.5 18.5t17.5 64.5l82 -17q27 -6 27 -26q0 -59 -42 -101.5t-105 -42.5z" />
<glyph unicode="&#xa1;" horiz-adv-x="316" d="M156 546q33 0 57 -21.5t24 -56.5q0 -34 -21.5 -54t-55.5 -20q-33 0 -57 21.5t-24 57.5q0 34 21.5 53.5t55.5 19.5zM214 318q18 -180 18 -358v-122q-51 -12 -106 -12q-42 0 -42 32v102q0 177 20 385h76q30 0 34 -27z" />
<glyph unicode="&#xa2;" horiz-adv-x="558" d="M512 70q0 -28 -43 -52.5t-110 -28.5v-101h-81q-34 0 -34 27v87q-87 28 -142 102t-55 179q0 101 53 169t144 87v101q40 10 76 10q39 0 39 -29v-79q113 -18 159 -101q8 -16 8 -31q0 -20 -26 -35q-36 -22 -87 -26q-23 89 -109 89q-54 0 -88.5 -41t-34.5 -112 q0 -88 52.5 -138.5t132.5 -50.5q70 0 127 30q19 -27 19 -56z" />
<glyph unicode="&#xa3;" horiz-adv-x="605" d="M57 33v70q55 43 55 139v49h-39q-27 0 -27 24q0 29 6 51h60v113q0 110 60.5 171.5t165.5 61.5q76 0 131 -37t82 -98q7 -15 7 -32q0 -18 -22 -31q-42 -24 -96 -27q-11 54 -37.5 80.5t-63.5 26.5q-40 0 -63.5 -28.5t-23.5 -85.5v-114h177q25 0 25 -32v-43h-202v-41 q0 -93 -45 -135h333q27 0 27 -34v-81h-483q-27 0 -27 33z" />
<glyph unicode="&#xa4;" horiz-adv-x="692" d="M121 332q0 62 29 111l-89 90q19 33 46 60q12 12 26.5 13.5t26.5 -9.5l73 -73q50 29 113 29q59 0 109 -28l92 92q35 -18 61 -46q28 -29 4 -53l-73 -73q32 -50 32 -113q0 -62 -30 -111l90 -90q-17 -33 -46 -60q-29 -28 -53 -4l-73 72q-51 -28 -113 -28q-59 0 -109 28 l-92 -92q-35 18 -61 46q-28 29 -4 53l72 73q-31 50 -31 113zM454 327q0 56 -32 89.5t-81 33.5q-43 0 -73 -32t-30 -81q0 -56 32 -89.5t81 -33.5q43 0 73 32t30 81z" />
<glyph unicode="&#xa5;" horiz-adv-x="677" d="M139 318h125v9l-234 314q55 67 97 67q20 0 31 -16l182 -254q103 112 172 262h99q38 0 38 -25q0 -5 -4 -15q-39 -82 -104 -171.5t-136 -160.5v-10h109q21 0 21 -28v-32h-130v-41h109q21 0 21 -28v-32h-130v-157h-107q-34 0 -34 26v131h-112q-19 0 -19 21q0 13 6 39h125v41 h-112q-19 0 -19 21q0 13 6 39z" />
<glyph unicode="&#xa6;" horiz-adv-x="321" d="M103 701q34 8 76 8q39 0 39 -30v-317h-81q-34 0 -34 27v312zM103 199q34 8 76 8q39 0 39 -30v-317h-81q-34 0 -34 27v312z" />
<glyph unicode="&#xa7;" horiz-adv-x="510" d="M56 297q0 74 87 112q-87 50 -87 142q0 72 55 116.5t145 44.5q64 0 115 -24t75 -65q9 -16 9 -29q0 -19 -22 -31q-39 -21 -85 -25q-18 69 -88 69q-34 0 -52.5 -15t-18.5 -38q0 -29 22.5 -46t77.5 -34q170 -54 170 -163q0 -42 -22.5 -72.5t-60.5 -46.5q83 -42 83 -133 q0 -72 -53.5 -115.5t-150.5 -43.5q-74 0 -129.5 26.5t-55.5 55.5q0 35 19 57q68 -34 148 -34q89 0 89 49q0 22 -17.5 35.5t-62.5 25.5q-190 51 -190 182zM275 224q58 22 58 71q0 33 -25 50.5t-68 28.5q-57 -22 -57 -71q0 -33 24.5 -50.5t67.5 -28.5z" />
<glyph unicode="&#xa8;" horiz-adv-x="420" d="M117 578q-28 0 -48.5 20t-20.5 52q0 30 18 48t46 18t48.5 -20t20.5 -52q0 -30 -18 -48t-46 -18zM308 578q-28 0 -48.5 20t-20.5 52q0 30 18 48t46 18t48.5 -20t20.5 -52q0 -30 -18 -48t-46 -18z" />
<glyph unicode="&#xa9;" horiz-adv-x="824" d="M484 405q-19 57 -73 57q-33 0 -54.5 -27t-21.5 -75q0 -58 35 -91.5t89 -33.5q47 0 86 17q12 -19 12 -40q0 -20 -37.5 -39t-83.5 -19q-84 0 -144.5 57t-60.5 147q0 83 52 134t132 51q49 0 88 -20t57 -53q5 -10 5 -20q0 -12 -15 -23q-28 -17 -66 -22zM50 350q0 150 106 256 t256 106t256 -106t106 -256t-106 -256t-256 -106t-256 106t-106 256zM106 350q0 -129 89.5 -219.5t216.5 -90.5t216.5 90.5t89.5 219.5q0 128 -89.5 219t-216.5 91t-216.5 -91t-89.5 -219z" />
<glyph unicode="&#xaa;" horiz-adv-x="457" d="M186 631q-56 0 -100 -22q-13 15 -13 42q0 19 42 38t97 19q80 0 126.5 -37.5t46.5 -110.5v-141q0 -26 26 -26h12q5 -17 5 -32q0 -45 -64 -45q-53 0 -79 49q-33 -53 -113 -53q-59 0 -97 33.5t-38 87.5q0 55 40 88.5t106 33.5q58 0 90 -16v23q0 69 -87 69zM207 389 q48 0 67 43v45q-27 9 -56 9q-69 0 -69 -50q0 -22 17 -34.5t41 -12.5z" />
<glyph unicode="&#xab;" horiz-adv-x="596" d="M296 101l-223 157q-17 13 -17 36v60l205 144q12 9 20 9q20 0 20 -30q0 -22 -8 -68l-144 -97l130 -88q17 -12 17 -34v-89zM535 101l-223 157q-17 13 -17 36v60l205 144q12 9 20 9q20 0 20 -30q0 -22 -8 -68l-144 -97l130 -88q17 -12 17 -34v-89z" />
<glyph unicode="&#xac;" horiz-adv-x="634" d="M549 168h-95q-34 0 -34 27v161h-317q-29 0 -29 34q0 35 10 70h436q29 0 29 -31v-261z" />
<glyph unicode="&#xad;" horiz-adv-x="418" d="M83 387h253q29 0 29 -32v-79h-263q-29 0 -29 35q0 42 10 76z" />
<glyph unicode="&#xae;" horiz-adv-x="824" d="M50 350q0 150 106 256t256 106t256 -106t106 -256t-106 -256t-256 -106t-256 106t-106 256zM106 350q0 -129 89.5 -219.5t216.5 -90.5t216.5 90.5t89.5 219.5q0 128 -89.5 219t-216.5 91t-216.5 -91t-89.5 -219zM526 157q-48 0 -77 46q-21 33 -41 75q-18 0 -40 6v-121 h-76q-23 0 -23 18v362h146q70 0 110.5 -37t40.5 -97q0 -79 -68 -114q16 -31 32 -48q17 -19 39 -19h9q6 -12 6 -34q0 -17 -16 -27t-42 -10zM368 466v-108q13 -4 34 -4q25 0 44.5 14t19.5 42q0 56 -75 56h-23z" />
<glyph unicode="&#xaf;" horiz-adv-x="420" d="M78 690h247q24 0 24 -30v-57h-253q-26 0 -26 32q0 23 8 55z" />
<glyph unicode="&#xb0;" horiz-adv-x="393" d="M199 494q27 0 43.5 19.5t16.5 48.5q0 30 -18 51.5t-46 21.5t-44 -19.5t-16 -49.5t18 -51t46 -21zM197 417q-67 0 -111 42t-44 105t44 105.5t111 42.5q66 0 110 -42.5t44 -105.5t-44 -105t-110 -42z" />
<glyph unicode="&#xb1;" horiz-adv-x="634" d="M381 174h-94q-34 0 -34 27v158h-149q-29 0 -29 34q0 39 9 70h169v172q41 13 89 13q39 0 39 -30v-155h149q29 0 29 -31v-73h-178v-185zM559 0h-455q-29 0 -29 34q0 38 9 71h446q29 0 29 -32v-73z" />
<glyph unicode="&#xb2;" d="M356 339v-55h-256q-24 0 -35 20q-8 14 -12 49q83 41 139.5 96.5t56.5 115.5q0 27 -15.5 42.5t-38.5 15.5q-46 0 -61 -68q-44 2 -72 17q-19 10 -19 25q0 16 5 27q16 37 57 60.5t91 23.5q71 0 114 -39.5t43 -106.5q0 -109 -128 -196h106q25 0 25 -27z" />
<glyph unicode="&#xb3;" d="M172 463q-25 1 -34 16q-12 22 -15 45l85 94h-130q-28 0 -28 28q0 26 7 54h233q24 0 35 -16q12 -20 15 -42l-105 -115q54 -10 85.5 -41.5t31.5 -79.5q0 -58 -45 -94t-122 -36q-55 0 -98.5 21.5t-43.5 43.5q0 25 13 45q61 -28 117 -28q76 0 76 49q0 50 -77 56z" />
<glyph unicode="&#xb4;" horiz-adv-x="420" d="M317 667l-126 -96q-14 -11 -26 -11t-22 11l-39 42l109 112q15 15 27 15q19 0 31 -12q26 -25 46 -61z" />
<glyph unicode="&#xb5;" horiz-adv-x="625" d="M423 210v324h99q34 0 34 -27v-287q0 -113 -48.5 -172.5t-137.5 -59.5q-46 0 -90 18.5t-73 50.5v-285h-99q-34 0 -34 27v730q43 12 95 12q38 0 38 -30v-371q50 -45 119 -45q97 0 97 115z" />
<glyph unicode="&#xb6;" horiz-adv-x="612" d="M264 700h290q21 0 21 -27v-40h-82v-764h-46q-27 0 -27 20v744h-74v-764h-50q-27 0 -27 20v424q-98 0 -160 51.5t-62 141.5t61.5 142t155.5 52z" />
<glyph unicode="&#xb7;" horiz-adv-x="333" d="M164 411q32 0 56 -22.5t24 -59.5q0 -35 -21 -55.5t-54 -20.5q-32 0 -56 23t-24 60q0 35 21 55t54 20z" />
<glyph unicode="&#xb8;" horiz-adv-x="420" d="M181 -241q-43 0 -74 10v50q0 21 21 21q5 0 17.5 -2.5t19.5 -2.5q39 0 39 29q0 35 -69 41q-13 7 -13 13q0 2 2 6l40 76h100l-32 -60q34 -7 54.5 -28.5t20.5 -52.5q0 -45 -35 -72.5t-91 -27.5z" />
<glyph unicode="&#xb9;" d="M77 621l122 79h56q28 0 28 -23v-393h-76q-28 0 -28 22v279l-68 -42q-28 14 -44 38q-6 11 -6 18q0 12 16 22z" />
<glyph unicode="&#xba;" horiz-adv-x="457" d="M228 312q-80 0 -137 53t-57 145t57 145t137 53t137 -53t57 -145t-57 -145t-137 -53zM232 399q36 0 58 28t22 79q0 52 -23.5 84t-63.5 32q-36 0 -58 -28t-22 -80t23 -83.5t64 -31.5z" />
<glyph unicode="&#xbb;" horiz-adv-x="596" d="M284 258l-223 -157v89q0 22 17 34l129 88l-143 97q-8 37 -8 68q0 30 19 30q9 0 21 -9l205 -144v-60q0 -23 -17 -36zM523 258l-223 -157v89q0 22 17 34l129 88l-143 97q-8 37 -8 68q0 30 19 30q9 0 21 -9l205 -144v-60q0 -23 -17 -36z" />
<glyph unicode="&#xbc;" horiz-adv-x="968" d="M77 621l122 79h56q28 0 28 -23v-393h-76q-28 0 -28 22v279l-68 -42q-28 14 -44 38q-6 11 -6 18q0 12 16 22zM385 0h-62q-38 0 -26 30l281 670h62q38 0 26 -30zM791 154v156q-29 -29 -58 -74t-42 -82h100zM942 128v-52h-51v-76h-72q-28 0 -28 22v54h-159q-20 0 -29 17 q-10 20 -13 48q21 73 71.5 146.5t106.5 114.5q41 19 86 19q22 0 29.5 -6t7.5 -22v-239h27q24 0 24 -26z" />
<glyph unicode="&#xbd;" horiz-adv-x="968" d="M77 621l122 79h56q28 0 28 -23v-393h-76q-28 0 -28 22v279l-68 -42q-28 14 -44 38q-6 11 -6 18q0 12 16 22zM385 0h-62q-38 0 -26 30l281 670h62q38 0 26 -30zM919 55v-55h-256q-24 0 -35 20q-8 14 -12 49q83 41 139.5 96.5t56.5 115.5q0 27 -15.5 42.5t-38.5 15.5 q-46 0 -61 -68q-44 2 -72 17q-19 10 -19 25q0 16 5 27q16 37 57 60.5t91 23.5q71 0 114 -39.5t43 -106.5q0 -109 -128 -196h106q25 0 25 -27z" />
<glyph unicode="&#xbe;" horiz-adv-x="968" d="M172 463q-25 1 -34 16q-12 22 -15 45l85 94h-130q-28 0 -28 28q0 26 7 54h233q24 0 35 -16q12 -20 15 -42l-105 -115q54 -10 85.5 -41.5t31.5 -79.5q0 -58 -45 -94t-122 -36q-55 0 -98.5 21.5t-43.5 43.5q0 25 13 45q61 -28 117 -28q76 0 76 49q0 50 -77 56zM385 0h-62 q-38 0 -26 30l281 670h62q38 0 26 -30zM791 154v156q-29 -29 -58 -74t-42 -82h100zM942 128v-52h-51v-76h-72q-28 0 -28 22v54h-159q-20 0 -29 17q-10 20 -13 48q21 73 71.5 146.5t106.5 114.5q41 19 86 19q22 0 29.5 -6t7.5 -22v-239h27q24 0 24 -26z" />
<glyph unicode="&#xbf;" horiz-adv-x="565" d="M398 55q46 -3 83 -19t37 -41q0 -16 -8 -34q-26 -64 -85 -102t-140 -38q-103 0 -166 56.5t-63 147.5q0 102 107 192q38 32 52 52t14 50v26h106q34 0 34 -27v-15q0 -49 -22.5 -86.5t-74.5 -75.5q-42 -30 -58 -57t-16 -61q0 -37 23.5 -59.5t63.5 -22.5q41 0 72.5 29.5 t40.5 84.5zM298 545q33 0 56.5 -21t23.5 -57q0 -34 -21.5 -53.5t-55.5 -19.5q-33 0 -56.5 21.5t-23.5 56.5q0 34 21 53.5t56 19.5z" />
<glyph unicode="&#xc0;" horiz-adv-x="689" d="M163 0h-108q-19 0 -27 9.5t-3 25.5l236 649q51 23 110 23q26 0 40 -9t23 -33l242 -665h-114q-36 0 -44 24l-43 128h-262zM439 265l-95 285l-94 -285h189zM344 765l-125 96q17 33 46 61q13 12 30 12q13 0 28 -15l109 -112l-39 -42q-11 -11 -23 -11q-11 0 -26 11z" />
<glyph unicode="&#xc1;" horiz-adv-x="689" d="M163 0h-108q-19 0 -27 9.5t-3 25.5l236 649q51 23 110 23q26 0 40 -9t23 -33l242 -665h-114q-36 0 -44 24l-43 128h-262zM439 265l-95 285l-94 -285h189zM467 862l-126 -96q-14 -11 -26 -11t-22 11l-39 42l109 112q15 15 27 15q19 0 31 -12q26 -25 46 -61z" />
<glyph unicode="&#xc2;" horiz-adv-x="689" d="M163 0h-108q-19 0 -27 9.5t-3 25.5l236 649q51 23 110 23q26 0 40 -9t23 -33l242 -665h-114q-36 0 -44 24l-43 128h-262zM439 265l-95 285l-94 -285h189zM393 914l114 -106l-34 -38q-14 -17 -29 -17t-30 15l-70 72l-88 -88q-39 18 -54 35q-11 13 -11 22t5 13l117 109h36 q24 0 44 -17z" />
<glyph unicode="&#xc3;" horiz-adv-x="689" d="M163 0h-108q-19 0 -27 9.5t-3 25.5l236 649q51 23 110 23q26 0 40 -9t23 -33l242 -665h-114q-36 0 -44 24l-43 128h-262zM439 265l-95 285l-94 -285h189zM197 836q23 69 85 69q37 0 65 -22q26 -21 37 -21q19 0 26 48l62 -17q21 -6 21 -24q0 -43 -26.5 -69.5t-64.5 -26.5 q-35 0 -63 22q-27 21 -38 21q-20 0 -26 -43q-35 0 -62 11q-20 8 -20 25q0 11 4 27z" />
<glyph unicode="&#xc4;" horiz-adv-x="689" d="M163 0h-108q-19 0 -27 9.5t-3 25.5l236 649q51 23 110 23q26 0 40 -9t23 -33l242 -665h-114q-36 0 -44 24l-43 128h-262zM439 265l-95 285l-94 -285h189zM251 772q-28 0 -48.5 20t-20.5 52q0 30 18 48t46 18t48.5 -20t20.5 -52q0 -30 -18 -48t-46 -18zM442 772 q-28 0 -48.5 20t-20.5 52q0 30 18 48t46 18t48.5 -20t20.5 -52q0 -30 -18 -48t-46 -18z" />
<glyph unicode="&#xc5;" horiz-adv-x="689" d="M163 0h-108q-19 0 -27 9.5t-3 25.5l236 649q51 23 110 23q26 0 40 -9t23 -33l242 -665h-114q-36 0 -44 24l-43 128h-262zM439 265l-95 285l-94 -285h189zM344 936q43 0 70.5 -27t27.5 -67t-27.5 -67t-70.5 -27t-70.5 27t-27.5 67t27.5 67t70.5 27zM346 806q14 0 23 9.5 t9 25.5t-10.5 26.5t-25.5 10.5q-14 0 -23 -9t-9 -25t10.5 -27t25.5 -11z" />
<glyph unicode="&#xc6;" horiz-adv-x="912" d="M443 700h380q29 0 29 -36q0 -38 -10 -80h-290v-178h219q27 0 27 -34v-81h-246v-120q0 -56 67 -56h214q27 0 27 -34v-81h-263q-85 0 -132 40.5t-47 112.5h-193l-69 -153h-109q-18 0 -28 10.5t-2 26.5l307 636q51 27 119 27zM412 265v294l-135 -294h135z" />
<glyph unicode="&#xc7;" horiz-adv-x="695" d="M380 -241q-43 0 -74 10v50q0 21 21 21q5 0 17.5 -2.5t19.5 -2.5q39 0 39 29q0 35 -69 41q-13 7 -13 13q0 2 2 6l36 69q-137 21 -222.5 122.5t-85.5 254.5q0 156 93.5 249t234.5 93q94 0 165 -39t105 -105q8 -15 8 -32q0 -20 -24 -34q-39 -24 -96 -27q-44 120 -164 120 q-76 0 -128 -59t-52 -163q0 -124 72 -196t189 -72q92 0 160 36q20 -32 20 -63q0 -27 -52.5 -54.5t-124.5 -33.5l-26 -50q34 -7 54.5 -28.5t20.5 -52.5q0 -45 -35 -72.5t-91 -27.5z" />
<glyph unicode="&#xc8;" horiz-adv-x="582" d="M530 0h-263q-104 0 -144.5 53.5t-40.5 161.5v485h411q29 0 29 -36q0 -38 -10 -80h-290v-178h219q27 0 27 -34v-81h-246v-81q0 -55 15 -75t52 -20h214q27 0 27 -34v-81zM307 765l-125 96q17 33 46 61q14 12 30 12q13 0 28 -15l109 -112l-39 -42q-11 -11 -23 -11 q-11 0 -26 11z" />
<glyph unicode="&#xc9;" horiz-adv-x="582" d="M530 0h-263q-104 0 -144.5 53.5t-40.5 161.5v485h411q29 0 29 -36q0 -38 -10 -80h-290v-178h219q27 0 27 -34v-81h-246v-81q0 -55 15 -75t52 -20h214q27 0 27 -34v-81zM409 861l-126 -96q-14 -11 -26 -11t-22 11l-39 42l109 112q15 15 27 15q19 0 31 -12q26 -25 46 -61z " />
<glyph unicode="&#xca;" horiz-adv-x="582" d="M530 0h-263q-104 0 -144.5 53.5t-40.5 161.5v485h411q29 0 29 -36q0 -38 -10 -80h-290v-178h219q27 0 27 -34v-81h-246v-81q0 -55 15 -75t52 -20h214q27 0 27 -34v-81zM347 914l114 -106l-34 -38q-14 -17 -29 -17t-30 15l-70 72l-88 -88q-39 18 -54 35q-11 13 -11 22 t5 13l117 109h36q24 0 44 -17z" />
<glyph unicode="&#xcb;" horiz-adv-x="582" d="M530 0h-263q-104 0 -144.5 53.5t-40.5 161.5v485h411q29 0 29 -36q0 -38 -10 -80h-290v-178h219q27 0 27 -34v-81h-246v-81q0 -55 15 -75t52 -20h214q27 0 27 -34v-81zM205 772q-28 0 -48.5 20t-20.5 52q0 30 18 48t46 18t48.5 -20t20.5 -52q0 -30 -18 -48t-46 -18z M396 772q-28 0 -48.5 20t-20.5 52q0 30 18 48t46 18t48.5 -20t20.5 -52q0 -30 -18 -48t-46 -18z" />
<glyph unicode="&#xcc;" horiz-adv-x="318" d="M229 0h-107q-34 0 -34 26v669q43 12 101 12q40 0 40 -30v-677zM140 765l-125 96q17 33 46 61q13 12 30 12q13 0 28 -15l109 -112l-39 -42q-11 -11 -23 -11q-11 0 -26 11z" />
<glyph unicode="&#xcd;" horiz-adv-x="318" d="M229 0h-107q-34 0 -34 26v669q43 12 101 12q40 0 40 -30v-677zM303 861l-126 -96q-14 -11 -26 -11t-22 11l-39 42l109 112q15 15 27 15q19 0 31 -12q26 -25 46 -61z" />
<glyph unicode="&#xce;" horiz-adv-x="318" d="M229 0h-107q-34 0 -34 26v669q43 12 101 12q40 0 40 -30v-677zM208 914l114 -106l-34 -38q-14 -17 -29 -17t-30 15l-70 72l-88 -88q-39 18 -54 35q-11 13 -11 22t5 13l117 109h36q24 0 44 -17z" />
<glyph unicode="&#xcf;" horiz-adv-x="318" d="M229 0h-107q-34 0 -34 26v669q43 12 101 12q40 0 40 -30v-677zM66 772q-28 0 -48.5 20t-20.5 52q0 30 18 48t46 18t48.5 -20t20.5 -52q0 -30 -18 -48t-46 -18zM257 772q-28 0 -48.5 20t-20.5 52q0 30 18 48t46 18t48.5 -20t20.5 -52q0 -30 -18 -48t-46 -18z" />
<glyph unicode="&#xd0;" horiz-adv-x="726" d="M20 387h62v313h261q145 0 238.5 -95t93.5 -255t-94 -255t-242 -95h-71q-95 0 -140.5 49t-45.5 158v105h-41q-27 0 -27 24q0 28 6 51zM532 350q0 113 -56.5 173.5t-146.5 60.5h-107v-197h138q25 0 25 -32v-43h-163v-95q0 -57 15.5 -79t54.5 -22h37q90 0 146.5 60.5 t56.5 173.5z" />
<glyph unicode="&#xd1;" horiz-adv-x="720" d="M500 13l-276 447v-460h-106q-34 0 -34 27v640q22 17 51 29t47 12q24 0 38 -21l276 -447v460h106q34 0 34 -27v-640q-22 -17 -51 -29t-47 -12q-26 0 -38 21zM213 836q23 69 85 69q37 0 65 -22q26 -21 37 -21q19 0 26 48l62 -17q21 -6 21 -24q0 -43 -26.5 -69.5 t-64.5 -26.5q-35 0 -63 22q-27 21 -38 21q-20 0 -26 -43q-35 0 -62 11q-20 8 -20 25q0 11 4 27z" />
<glyph unicode="&#xd2;" horiz-adv-x="781" d="M729 350q0 -170 -96.5 -266t-242.5 -96t-242.5 96t-96.5 266t96.5 266t242.5 96t242.5 -96t96.5 -266zM396 105q81 0 136 60t55 176q0 115 -58 184.5t-144 69.5q-81 0 -136.5 -60t-55.5 -176q0 -115 58.5 -184.5t144.5 -69.5zM390 765l-125 96q17 33 46 61q13 12 30 12 q13 0 28 -15l109 -112l-39 -42q-11 -11 -23 -11q-11 0 -26 11z" />
<glyph unicode="&#xd3;" horiz-adv-x="781" d="M729 350q0 -170 -96.5 -266t-242.5 -96t-242.5 96t-96.5 266t96.5 266t242.5 96t242.5 -96t96.5 -266zM396 105q81 0 136 60t55 176q0 115 -58 184.5t-144 69.5q-81 0 -136.5 -60t-55.5 -176q0 -115 58.5 -184.5t144.5 -69.5zM508 861l-126 -96q-14 -11 -26 -11t-22 11 l-39 42l109 112q15 15 27 15q19 0 31 -12q26 -25 46 -61z" />
<glyph unicode="&#xd4;" horiz-adv-x="781" d="M729 350q0 -170 -96.5 -266t-242.5 -96t-242.5 96t-96.5 266t96.5 266t242.5 96t242.5 -96t96.5 -266zM396 105q81 0 136 60t55 176q0 115 -58 184.5t-144 69.5q-81 0 -136.5 -60t-55.5 -176q0 -115 58.5 -184.5t144.5 -69.5zM439 914l114 -106l-34 -38q-14 -17 -29 -17 t-30 15l-70 72l-88 -88q-39 18 -54 35q-11 13 -11 22t5 13l117 109h36q24 0 44 -17z" />
<glyph unicode="&#xd5;" horiz-adv-x="781" d="M729 350q0 -170 -96.5 -266t-242.5 -96t-242.5 96t-96.5 266t96.5 266t242.5 96t242.5 -96t96.5 -266zM396 105q81 0 136 60t55 176q0 115 -58 184.5t-144 69.5q-81 0 -136.5 -60t-55.5 -176q0 -115 58.5 -184.5t144.5 -69.5zM243 836q23 69 85 69q37 0 65 -22 q26 -21 37 -21q19 0 26 48l62 -17q21 -6 21 -24q0 -43 -26.5 -69.5t-64.5 -26.5q-35 0 -63 22q-27 21 -38 21q-20 0 -26 -43q-35 0 -62 11q-20 8 -20 25q0 11 4 27z" />
<glyph unicode="&#xd6;" horiz-adv-x="781" d="M729 350q0 -170 -96.5 -266t-242.5 -96t-242.5 96t-96.5 266t96.5 266t242.5 96t242.5 -96t96.5 -266zM396 105q81 0 136 60t55 176q0 115 -58 184.5t-144 69.5q-81 0 -136.5 -60t-55.5 -176q0 -115 58.5 -184.5t144.5 -69.5zM297 772q-28 0 -48.5 20t-20.5 52 q0 30 18 48t46 18t48.5 -20t20.5 -52q0 -30 -18 -48t-46 -18zM488 772q-28 0 -48.5 20t-20.5 52q0 30 18 48t46 18t48.5 -20t20.5 -52q0 -30 -18 -48t-46 -18z" />
<glyph unicode="&#xd7;" horiz-adv-x="634" d="M157 131l-62 62l138 136l-138 136q18 34 48 65q29 29 55 3l118 -121l119 121q25 27 55 -3q27 -27 49 -65l-139 -136l139 -136l-68 -68q-18 -18 -37 1l-118 119l-116 -119q-20 -20 -43 5z" />
<glyph unicode="&#xd8;" horiz-adv-x="781" d="M51 350q0 170 96.5 266t242.5 96q124 0 215 -74l57 62h52q28 0 28 -15q0 -7 -5 -12l-79 -87q71 -97 71 -236q0 -171 -96.5 -266.5t-242.5 -95.5q-128 0 -217 72l-55 -60h-54q-17 0 -23.5 9t3.5 20l78 85q-71 94 -71 236zM587 341q0 76 -29 137l-294 -319q56 -54 131 -54 q81 0 136.5 60t55.5 176zM193 358q0 -78 28 -137l293 319q-54 54 -130 54q-81 0 -136 -60t-55 -176z" />
<glyph unicode="&#xd9;" horiz-adv-x="721" d="M79 294v401q47 13 101 13q40 0 40 -30v-395q0 -83 37.5 -130.5t103.5 -47.5t103.5 47.5t37.5 130.5v417h106q34 0 34 -27v-379q0 -142 -74.5 -224t-206.5 -82t-207 82t-75 224zM360 765l-125 96q17 33 46 61q13 12 30 12q13 0 28 -15l109 -112l-39 -42q-11 -11 -23 -11 q-11 0 -26 11z" />
<glyph unicode="&#xda;" horiz-adv-x="721" d="M79 294v401q47 13 101 13q40 0 40 -30v-395q0 -83 37.5 -130.5t103.5 -47.5t103.5 47.5t37.5 130.5v417h106q34 0 34 -27v-379q0 -142 -74.5 -224t-206.5 -82t-207 82t-75 224zM478 861l-126 -96q-14 -11 -26 -11t-22 11l-39 42l109 112q15 15 27 15q19 0 31 -12 q26 -25 46 -61z" />
<glyph unicode="&#xdb;" horiz-adv-x="721" d="M79 294v401q47 13 101 13q40 0 40 -30v-395q0 -83 37.5 -130.5t103.5 -47.5t103.5 47.5t37.5 130.5v417h106q34 0 34 -27v-379q0 -142 -74.5 -224t-206.5 -82t-207 82t-75 224zM409 914l114 -106l-34 -38q-14 -17 -29 -17t-30 15l-70 72l-88 -88q-39 18 -54 35 q-11 13 -11 22t5 13l117 109h36q24 0 44 -17z" />
<glyph unicode="&#xdc;" horiz-adv-x="721" d="M79 294v401q47 13 101 13q40 0 40 -30v-395q0 -83 37.5 -130.5t103.5 -47.5t103.5 47.5t37.5 130.5v417h106q34 0 34 -27v-379q0 -142 -74.5 -224t-206.5 -82t-207 82t-75 224zM267 772q-28 0 -48.5 20t-20.5 52q0 30 18 48t46 18t48.5 -20t20.5 -52q0 -30 -18 -48 t-46 -18zM458 772q-28 0 -48.5 20t-20.5 52q0 30 18 48t46 18t48.5 -20t20.5 -52q0 -30 -18 -48t-46 -18z" />
<glyph unicode="&#xdd;" horiz-adv-x="671" d="M262 26v212l-231 408q54 61 104 61q20 0 31 -20l170 -322q116 170 166 335h101q20 0 29.5 -11t4.5 -29q-56 -191 -235 -418v-242h-106q-34 0 -34 26zM461 861l-126 -96q-14 -11 -26 -11t-22 11l-39 42l109 112q15 15 27 15q19 0 31 -12q26 -25 46 -61z" />
<glyph unicode="&#xde;" horiz-adv-x="647" d="M224 0h-106q-34 0 -34 26v669q42 12 100 12q40 0 40 -30v-75h99q131 0 206 -69t75 -190q0 -115 -75.5 -183t-192.5 -68q-59 0 -112 15v-107zM315 487h-91v-269q38 -9 88 -9q70 0 110.5 35t40.5 103q0 69 -39 104.5t-109 35.5z" />
<glyph unicode="&#xdf;" horiz-adv-x="654" d="M409 -12q-65 0 -106 25t-41 55q0 33 19 63q43 -23 93 -23q47 0 75.5 25t28.5 68q0 45 -47 78.5t-118 34.5q-16 36 -16 75q0 22 26 31q77 29 77 91q0 38 -25 61.5t-63 23.5q-45 0 -71 -32t-26 -88v-476h-106q-34 0 -34 27v443q0 115 61 178.5t176 63.5q100 0 163.5 -55.5 t63.5 -135.5q0 -51 -28 -89t-74 -56q78 -19 130 -73.5t52 -127.5q0 -82 -58 -134.5t-152 -52.5z" />
<glyph unicode="&#xe0;" horiz-adv-x="599" d="M243 442q-75 0 -138 -31q-16 22 -16 53q0 28 57 55t134 27q111 0 170.5 -54.5t59.5 -160.5v-185q0 -49 36 -49h23q7 -25 7 -45q0 -22 -24.5 -40.5t-62.5 -18.5q-34 0 -62 20t-40 59q-53 -84 -159 -84q-81 0 -132 47.5t-51 122.5q0 81 57.5 127.5t154.5 46.5q74 0 120 -24 v33q0 101 -134 101zM262 92q36 0 68 19.5t47 54.5v59q-32 12 -94 12q-50 0 -77.5 -20t-27.5 -55q0 -34 23.5 -52t60.5 -18zM305 591l-125 96q17 33 46 61q14 12 30 12q13 0 28 -15l109 -112l-39 -42q-11 -11 -23 -11q-11 0 -26 11z" />
<glyph unicode="&#xe1;" horiz-adv-x="599" d="M243 442q-75 0 -138 -31q-16 22 -16 53q0 28 57 55t134 27q111 0 170.5 -54.5t59.5 -160.5v-185q0 -49 36 -49h23q7 -25 7 -45q0 -22 -24.5 -40.5t-62.5 -18.5q-34 0 -62 20t-40 59q-53 -84 -159 -84q-81 0 -132 47.5t-51 122.5q0 81 57.5 127.5t154.5 46.5q74 0 120 -24 v33q0 101 -134 101zM262 92q36 0 68 19.5t47 54.5v59q-32 12 -94 12q-50 0 -77.5 -20t-27.5 -55q0 -34 23.5 -52t60.5 -18zM403 687l-126 -96q-14 -11 -26 -11t-22 11l-39 42l109 112q15 15 27 15q19 0 31 -12q26 -25 46 -61z" />
<glyph unicode="&#xe2;" horiz-adv-x="599" d="M243 442q-75 0 -138 -31q-16 22 -16 53q0 28 57 55t134 27q111 0 170.5 -54.5t59.5 -160.5v-185q0 -49 36 -49h23q7 -25 7 -45q0 -22 -24.5 -40.5t-62.5 -18.5q-34 0 -62 20t-40 59q-53 -84 -159 -84q-81 0 -132 47.5t-51 122.5q0 81 57.5 127.5t154.5 46.5q74 0 120 -24 v33q0 101 -134 101zM262 92q36 0 68 19.5t47 54.5v59q-32 12 -94 12q-50 0 -77.5 -20t-27.5 -55q0 -34 23.5 -52t60.5 -18zM344 740l114 -106l-34 -38q-14 -17 -29 -17t-30 15l-70 72l-88 -88q-39 18 -54 35q-11 13 -11 22t5 13l117 109h36q24 0 44 -17z" />
<glyph unicode="&#xe3;" horiz-adv-x="599" d="M243 442q-75 0 -138 -31q-16 22 -16 53q0 28 57 55t134 27q111 0 170.5 -54.5t59.5 -160.5v-185q0 -49 36 -49h23q7 -25 7 -45q0 -22 -24.5 -40.5t-62.5 -18.5q-34 0 -62 20t-40 59q-53 -84 -159 -84q-81 0 -132 47.5t-51 122.5q0 81 57.5 127.5t154.5 46.5q74 0 120 -24 v33q0 101 -134 101zM262 92q36 0 68 19.5t47 54.5v59q-32 12 -94 12q-50 0 -77.5 -20t-27.5 -55q0 -34 23.5 -52t60.5 -18zM148 661q23 69 85 69q37 0 65 -22q26 -21 37 -21q19 0 26 48l62 -17q21 -6 21 -24q0 -43 -26.5 -69.5t-64.5 -26.5q-35 0 -63 22q-27 21 -38 21 q-20 0 -26 -43q-34 0 -62 11q-20 8 -20 25q0 11 4 27z" />
<glyph unicode="&#xe4;" horiz-adv-x="599" d="M243 442q-75 0 -138 -31q-16 22 -16 53q0 28 57 55t134 27q111 0 170.5 -54.5t59.5 -160.5v-185q0 -49 36 -49h23q7 -25 7 -45q0 -22 -24.5 -40.5t-62.5 -18.5q-34 0 -62 20t-40 59q-53 -84 -159 -84q-81 0 -132 47.5t-51 122.5q0 81 57.5 127.5t154.5 46.5q74 0 120 -24 v33q0 101 -134 101zM262 92q36 0 68 19.5t47 54.5v59q-32 12 -94 12q-50 0 -77.5 -20t-27.5 -55q0 -34 23.5 -52t60.5 -18zM202 598q-28 0 -48.5 20t-20.5 52q0 30 18 48t46 18t48.5 -20t20.5 -52q0 -30 -18 -48t-46 -18zM393 598q-28 0 -48.5 20t-20.5 52q0 30 18 48t46 18 t48.5 -20t20.5 -52q0 -30 -18 -48t-46 -18z" />
<glyph unicode="&#xe5;" horiz-adv-x="599" d="M243 442q-75 0 -138 -31q-16 22 -16 53q0 28 57 55t134 27q111 0 170.5 -54.5t59.5 -160.5v-185q0 -49 36 -49h23q7 -25 7 -45q0 -22 -24.5 -40.5t-62.5 -18.5q-34 0 -62 20t-40 59q-53 -84 -159 -84q-81 0 -132 47.5t-51 122.5q0 81 57.5 127.5t154.5 46.5q74 0 120 -24 v33q0 101 -134 101zM262 92q36 0 68 19.5t47 54.5v59q-32 12 -94 12q-50 0 -77.5 -20t-27.5 -55q0 -34 23.5 -52t60.5 -18zM289 762q43 0 70.5 -27t27.5 -67t-27.5 -67t-70.5 -27t-70.5 27t-27.5 67t27.5 67t70.5 27zM291 632q14 0 23 9.5t9 25.5t-10.5 26.5t-25.5 10.5 q-14 0 -23 -9t-9 -25t10.5 -27t25.5 -11z" />
<glyph unicode="&#xe6;" horiz-adv-x="912" d="M647 -12q-64 0 -119 26.5t-90 72.5q-27 -45 -76.5 -72t-113.5 -27q-97 0 -150 47.5t-53 122.5q0 81 57.5 127.5t154.5 46.5q74 0 120 -24v33q0 101 -134 101q-75 0 -138 -31q-16 22 -16 53q0 28 56.5 55t134.5 27q131 0 183 -84q66 84 189 84q97 0 157.5 -56t60.5 -142 q0 -51 -19 -87q-12 -23 -30.5 -32.5t-50.5 -9.5h-258q10 -62 53 -94t109 -32q73 0 128 29q18 -26 18 -55q0 -27 -49.5 -53t-123.5 -26zM645 441q-55 0 -90.5 -34t-42.5 -94h222q8 15 8 35q0 43 -25.5 68t-71.5 25zM262 92q47 0 81 33.5t34 99.5q-32 12 -94 12 q-50 0 -77.5 -20t-27.5 -55q0 -34 23.5 -52t60.5 -18z" />
<glyph unicode="&#xe7;" horiz-adv-x="558" d="M302 -241q-43 0 -74 10v50q0 21 21 21q5 0 17.5 -2.5t19.5 -2.5q39 0 39 29q0 35 -69 41q-13 7 -13 13q0 2 2 6l36 69q-101 18 -167.5 95.5t-66.5 194.5q0 119 72 191t190 72q73 0 128.5 -29t80.5 -76q8 -16 8 -31q0 -20 -26 -35q-36 -22 -87 -26q-23 89 -109 89 q-54 0 -88.5 -41t-34.5 -112q0 -88 52.5 -138.5t132.5 -50.5q70 0 127 30q19 -27 19 -56q0 -26 -36.5 -49t-95.5 -30l-27 -51q34 -7 54.5 -28.5t20.5 -52.5q0 -45 -35 -72.5t-91 -27.5z" />
<glyph unicode="&#xe8;" horiz-adv-x="583" d="M318 -12q-119 0 -195 78.5t-76 198.5q0 127 78 204t194 77q100 0 161 -56t61 -142q0 -51 -19 -87q-12 -23 -30.5 -32.5t-50.5 -9.5h-258q10 -62 53 -94t109 -32q73 0 128 29q18 -26 18 -55q0 -27 -49.5 -53t-123.5 -26zM316 441q-55 0 -90.5 -34t-42.5 -94h222q7 14 7 35 q0 43 -25.5 68t-70.5 25zM314 591l-125 96q17 33 46 61q13 12 30 12q13 0 28 -15l109 -112l-39 -42q-11 -11 -23 -11q-11 0 -26 11z" />
<glyph unicode="&#xe9;" horiz-adv-x="583" d="M318 -12q-119 0 -195 78.5t-76 198.5q0 127 78 204t194 77q100 0 161 -56t61 -142q0 -51 -19 -87q-12 -23 -30.5 -32.5t-50.5 -9.5h-258q10 -62 53 -94t109 -32q73 0 128 29q18 -26 18 -55q0 -27 -49.5 -53t-123.5 -26zM316 441q-55 0 -90.5 -34t-42.5 -94h222q7 14 7 35 q0 43 -25.5 68t-70.5 25zM412 687l-126 -96q-14 -11 -26 -11t-22 11l-39 42l109 112q15 15 27 15q19 0 31 -12q26 -25 46 -61z" />
<glyph unicode="&#xea;" horiz-adv-x="583" d="M318 -12q-119 0 -195 78.5t-76 198.5q0 127 78 204t194 77q100 0 161 -56t61 -142q0 -51 -19 -87q-12 -23 -30.5 -32.5t-50.5 -9.5h-258q10 -62 53 -94t109 -32q73 0 128 29q18 -26 18 -55q0 -27 -49.5 -53t-123.5 -26zM316 441q-55 0 -90.5 -34t-42.5 -94h222q7 14 7 35 q0 43 -25.5 68t-70.5 25zM353 740l114 -106l-34 -38q-14 -17 -29 -17t-30 15l-70 72l-88 -88q-39 18 -54 35q-11 13 -11 22t5 13l117 109h36q24 0 44 -17z" />
<glyph unicode="&#xeb;" horiz-adv-x="583" d="M318 -12q-119 0 -195 78.5t-76 198.5q0 127 78 204t194 77q100 0 161 -56t61 -142q0 -51 -19 -87q-12 -23 -30.5 -32.5t-50.5 -9.5h-258q10 -62 53 -94t109 -32q73 0 128 29q18 -26 18 -55q0 -27 -49.5 -53t-123.5 -26zM316 441q-55 0 -90.5 -34t-42.5 -94h222q7 14 7 35 q0 43 -25.5 68t-70.5 25zM213 598q-28 0 -48.5 20t-20.5 52q0 30 18 48t46 18t48.5 -20t20.5 -52q0 -30 -18 -48t-46 -18zM404 598q-28 0 -48.5 20t-20.5 52q0 30 18 48t46 18t48.5 -20t20.5 -52q0 -30 -18 -48t-46 -18z" />
<glyph unicode="&#xec;" horiz-adv-x="304" d="M74 128v401q43 12 95 12q38 0 38 -30v-366q0 -48 33 -48h26q7 -24 7 -45q0 -22 -24.5 -40.5t-62.5 -18.5q-48 0 -80 31.5t-32 103.5zM129 591l-125 96q17 33 46 61q14 12 30 12q13 0 28 -15l109 -112l-39 -42q-11 -11 -23 -11q-11 0 -26 11z" />
<glyph unicode="&#xed;" horiz-adv-x="304" d="M74 128v401q43 12 95 12q38 0 38 -30v-366q0 -48 33 -48h26q7 -24 7 -45q0 -22 -24.5 -40.5t-62.5 -18.5q-48 0 -80 31.5t-32 103.5zM273 687l-126 -96q-14 -11 -26 -11t-22 11l-39 42l109 112q15 15 27 15q19 0 31 -12q26 -25 46 -61z" />
<glyph unicode="&#xee;" horiz-adv-x="304" d="M74 128v401q43 12 95 12q38 0 38 -30v-366q0 -48 33 -48h26q7 -24 7 -45q0 -22 -24.5 -40.5t-62.5 -18.5q-48 0 -80 31.5t-32 103.5zM190 740l114 -106l-34 -38q-14 -17 -29 -17t-30 15l-70 72l-88 -88q-39 18 -54 35q-11 13 -11 22t5 13l117 109h36q24 0 44 -17z" />
<glyph unicode="&#xef;" horiz-adv-x="304" d="M74 128v401q43 12 95 12q38 0 38 -30v-366q0 -48 33 -48h26q7 -24 7 -45q0 -22 -24.5 -40.5t-62.5 -18.5q-48 0 -80 31.5t-32 103.5zM48 598q-28 0 -48.5 20t-20.5 52q0 30 18 48t46 18t48.5 -20t20.5 -52q0 -30 -18 -48t-46 -18zM239 598q-28 0 -48.5 20t-20.5 52 q0 30 18 48t46 18t48.5 -20t20.5 -52q0 -30 -18 -48t-46 -18z" />
<glyph unicode="&#xf0;" horiz-adv-x="613" d="M289 568l67 41q-36 28 -91 28q-67 0 -125 -29q-18 21 -18 56q0 27 52.5 52.5t115.5 25.5q114 0 177 -66l42 26q22 14 35 -7l25 -43l-58 -35q51 -97 51 -274q0 -171 -72 -263t-208 -92q-105 0 -172.5 64.5t-67.5 162.5q0 119 73 191.5t173 72.5q87 0 139 -57 q-3 83 -27 128l-58 -37q-19 -13 -34 10q-11 19 -19 45zM288 95q65 0 102.5 58t37.5 170q-42 48 -114 48q-62 0 -100 -41t-38 -113q0 -55 31.5 -88.5t80.5 -33.5z" />
<glyph unicode="&#xf1;" horiz-adv-x="648" d="M208 0h-99q-34 0 -34 27v502q42 12 95 12q38 0 38 -30v-35q30 32 74 51t89 19q89 0 137.5 -59.5t48.5 -172.5v-168q0 -48 32 -48h26q7 -20 7 -45q0 -23 -24.5 -41.5t-62.5 -18.5q-48 0 -80 32t-32 104v194q0 115 -97 115q-66 0 -118 -45v-393zM168 661q23 69 85 69 q37 0 65 -22q26 -21 37 -21q19 0 26 48l62 -17q21 -6 21 -24q0 -43 -26.5 -69.5t-64.5 -26.5q-35 0 -63 22q-27 21 -38 21q-20 0 -26 -43q-34 0 -62 11q-20 8 -20 25q0 11 4 27z" />
<glyph unicode="&#xf2;" horiz-adv-x="633" d="M317 546q113 0 191.5 -75t78.5 -204t-78.5 -204t-191.5 -75t-191.5 75t-78.5 204t78.5 204t191.5 75zM321 96q58 0 94.5 42t36.5 123q0 82 -40 129.5t-99 47.5q-58 0 -95 -42t-37 -123q0 -82 40.5 -129.5t99.5 -47.5zM315 591l-125 96q17 33 46 61q14 12 30 12 q13 0 28 -15l109 -112l-39 -42q-11 -11 -23 -11q-11 0 -26 11z" />
<glyph unicode="&#xf3;" horiz-adv-x="633" d="M317 546q113 0 191.5 -75t78.5 -204t-78.5 -204t-191.5 -75t-191.5 75t-78.5 204t78.5 204t191.5 75zM321 96q58 0 94.5 42t36.5 123q0 82 -40 129.5t-99 47.5q-58 0 -95 -42t-37 -123q0 -82 40.5 -129.5t99.5 -47.5zM433 687l-126 -96q-14 -11 -26 -11t-22 11l-39 42 l109 112q15 15 27 15q19 0 31 -12q26 -25 46 -61z" />
<glyph unicode="&#xf4;" horiz-adv-x="633" d="M317 546q113 0 191.5 -75t78.5 -204t-78.5 -204t-191.5 -75t-191.5 75t-78.5 204t78.5 204t191.5 75zM321 96q58 0 94.5 42t36.5 123q0 82 -40 129.5t-99 47.5q-58 0 -95 -42t-37 -123q0 -82 40.5 -129.5t99.5 -47.5zM365 740l114 -106l-34 -38q-14 -17 -29 -17t-30 15 l-70 72l-88 -88q-39 18 -54 35q-11 13 -11 22t5 13l117 109h36q24 0 44 -17z" />
<glyph unicode="&#xf5;" horiz-adv-x="633" d="M317 546q113 0 191.5 -75t78.5 -204t-78.5 -204t-191.5 -75t-191.5 75t-78.5 204t78.5 204t191.5 75zM321 96q58 0 94.5 42t36.5 123q0 82 -40 129.5t-99 47.5q-58 0 -95 -42t-37 -123q0 -82 40.5 -129.5t99.5 -47.5zM169 661q23 69 85 69q37 0 65 -22q26 -21 37 -21 q19 0 26 48l62 -17q21 -6 21 -24q0 -43 -26.5 -69.5t-64.5 -26.5q-35 0 -63 22q-27 21 -38 21q-20 0 -26 -43q-35 0 -62 11q-20 8 -20 25q0 11 4 27z" />
<glyph unicode="&#xf6;" horiz-adv-x="633" d="M317 546q113 0 191.5 -75t78.5 -204t-78.5 -204t-191.5 -75t-191.5 75t-78.5 204t78.5 204t191.5 75zM321 96q58 0 94.5 42t36.5 123q0 82 -40 129.5t-99 47.5q-58 0 -95 -42t-37 -123q0 -82 40.5 -129.5t99.5 -47.5zM223 598q-28 0 -48.5 20t-20.5 52q0 30 18 48t46 18 t48.5 -20t20.5 -52q0 -30 -18 -48t-46 -18zM414 598q-28 0 -48.5 20t-20.5 52q0 30 18 48t46 18t48.5 -20t20.5 -52q0 -30 -18 -48t-46 -18z" />
<glyph unicode="&#xf7;" horiz-adv-x="634" d="M559 280h-455q-29 0 -29 34q0 38 9 70h446q29 0 29 -31v-73zM320 448q-31 0 -53.5 22t-22.5 57q0 33 20 53t51 20t53.5 -22t22.5 -58q0 -33 -20 -52.5t-51 -19.5zM320 64q-31 0 -53.5 22t-22.5 58q0 33 20 52.5t51 19.5t53.5 -22t22.5 -57q0 -33 -20 -53t-51 -20z" />
<glyph unicode="&#xf8;" horiz-adv-x="633" d="M515 534h47q20 0 26 -9t-4 -20l-55 -59q58 -73 58 -179q0 -129 -78.5 -204t-191.5 -75q-94 0 -163 51l-35 -39h-47q-20 0 -26.5 9t4.5 20l53 58q-56 74 -56 180q0 129 78.5 204t191.5 75q91 0 162 -51zM181 273q0 -45 15 -85l201 218q-37 32 -84 32q-58 0 -95 -42 t-37 -123zM321 96q58 0 94.5 42t36.5 123q0 47 -16 84l-201 -217q38 -32 86 -32z" />
<glyph unicode="&#xf9;" horiz-adv-x="619" d="M552 507v-280q0 -111 -66.5 -175t-175.5 -64q-112 0 -177.5 61.5t-65.5 177.5v302q43 12 95 12q38 0 38 -30v-291q0 -56 30.5 -89t79.5 -33q48 0 78.5 33t30.5 89v314h99q34 0 34 -27zM308 591l-125 96q17 33 46 61q13 12 30 12q13 0 28 -15l109 -112l-39 -42 q-11 -11 -23 -11q-11 0 -26 11z" />
<glyph unicode="&#xfa;" horiz-adv-x="619" d="M552 507v-280q0 -111 -66.5 -175t-175.5 -64q-112 0 -177.5 61.5t-65.5 177.5v302q43 12 95 12q38 0 38 -30v-291q0 -56 30.5 -89t79.5 -33q48 0 78.5 33t30.5 89v314h99q34 0 34 -27zM426 687l-126 -96q-14 -11 -26 -11t-22 11l-39 42l109 112q15 15 27 15q19 0 31 -12 q26 -25 46 -61z" />
<glyph unicode="&#xfb;" horiz-adv-x="619" d="M552 507v-280q0 -111 -66.5 -175t-175.5 -64q-112 0 -177.5 61.5t-65.5 177.5v302q43 12 95 12q38 0 38 -30v-291q0 -56 30.5 -89t79.5 -33q48 0 78.5 33t30.5 89v314h99q34 0 34 -27zM357 740l114 -106l-34 -38q-14 -17 -29 -17t-30 15l-70 72l-88 -88q-39 18 -54 35 q-11 13 -11 22t5 13l117 109h36q24 0 44 -17z" />
<glyph unicode="&#xfc;" horiz-adv-x="619" d="M552 507v-280q0 -111 -66.5 -175t-175.5 -64q-112 0 -177.5 61.5t-65.5 177.5v302q43 12 95 12q38 0 38 -30v-291q0 -56 30.5 -89t79.5 -33q48 0 78.5 33t30.5 89v314h99q34 0 34 -27zM216 598q-28 0 -48.5 20t-20.5 52q0 30 18 48t46 18t48.5 -20t20.5 -52 q0 -30 -18 -48t-46 -18zM407 598q-28 0 -48.5 20t-20.5 52q0 30 18 48t46 18t48.5 -20t20.5 -52q0 -30 -18 -48t-46 -18z" />
<glyph unicode="&#xfd;" horiz-adv-x="629" d="M278 -248q-92 0 -146 39.5t-54 99.5q0 35 22 67.5t62 53.5q-90 51 -90 201v314q44 12 95 12q38 0 38 -30v-299q0 -115 97 -115q68 0 119 46v393h99q34 0 34 -27v-506q0 -104 -71.5 -176.5t-204.5 -72.5zM275 -10q-12 0 -26 2q-38 -33 -38 -79q0 -26 19 -41t55 -15 q58 0 97 36t39 101v64q-60 -65 -146 -68zM431 687l-126 -96q-14 -11 -26 -11t-22 11l-39 42l109 112q15 15 27 15q19 0 31 -12q26 -25 46 -61z" />
<glyph unicode="&#xfe;" horiz-adv-x="646" d="M207 -193h-99q-34 0 -34 27v891q43 12 96 12q37 0 37 -30v-253q59 92 166 92q98 0 162 -71t64 -188q0 -133 -76.5 -216t-182.5 -83q-82 0 -133 49v-230zM339 438q-42 0 -77 -28t-55 -83v-196q37 -36 102 -36q68 0 112 53t44 135q0 73 -33 114t-93 41z" />
<glyph unicode="&#xff;" horiz-adv-x="629" d="M278 -248q-92 0 -146 39.5t-54 99.5q0 35 22 67.5t62 53.5q-90 51 -90 201v314q44 12 95 12q38 0 38 -30v-299q0 -115 97 -115q68 0 119 46v393h99q34 0 34 -27v-506q0 -104 -71.5 -176.5t-204.5 -72.5zM275 -10q-12 0 -26 2q-38 -33 -38 -79q0 -26 19 -41t55 -15 q58 0 97 36t39 101v64q-60 -65 -146 -68zM220 598q-28 0 -48.5 20t-20.5 52q0 30 18 48t46 18t48.5 -20t20.5 -52q0 -30 -18 -48t-46 -18zM411 598q-28 0 -48.5 20t-20.5 52q0 30 18 48t46 18t48.5 -20t20.5 -52q0 -30 -18 -48t-46 -18z" />
<glyph unicode="&#x100;" horiz-adv-x="689" d="M163 0h-108q-19 0 -27 9.5t-3 25.5l236 649q51 23 110 23q26 0 40 -9t23 -33l242 -665h-114q-36 0 -44 24l-43 128h-262zM439 265l-95 285l-94 -285h189zM212 880h247q24 0 24 -30v-57h-253q-26 0 -26 32q0 23 8 55z" />
<glyph unicode="&#x101;" horiz-adv-x="599" d="M243 442q-75 0 -138 -31q-16 22 -16 53q0 28 57 55t134 27q111 0 170.5 -54.5t59.5 -160.5v-185q0 -49 36 -49h23q7 -25 7 -45q0 -22 -24.5 -40.5t-62.5 -18.5q-34 0 -62 20t-40 59q-53 -84 -159 -84q-81 0 -132 47.5t-51 122.5q0 81 57.5 127.5t154.5 46.5q74 0 120 -24 v33q0 101 -134 101zM262 92q36 0 68 19.5t47 54.5v59q-32 12 -94 12q-50 0 -77.5 -20t-27.5 -55q0 -34 23.5 -52t60.5 -18zM163 709h247q24 0 24 -30v-57h-253q-26 0 -26 32q0 23 8 55z" />
<glyph unicode="&#x102;" horiz-adv-x="689" d="M163 0h-108q-19 0 -27 9.5t-3 25.5l236 649q51 23 110 23q26 0 40 -9t23 -33l242 -665h-114q-36 0 -44 24l-43 128h-262zM439 265l-95 285l-94 -285h189zM294 898q9 -55 50 -55q48 0 54 77h65q17 0 24 -5.5t5 -17.5q-6 -58 -44.5 -95.5t-103.5 -37.5q-58 0 -99 34.5 t-50 101.5q32 21 68 21q27 0 31 -23z" />
<glyph unicode="&#x103;" horiz-adv-x="599" d="M243 442q-75 0 -138 -31q-16 22 -16 53q0 28 57 55t134 27q111 0 170.5 -54.5t59.5 -160.5v-185q0 -49 36 -49h23q7 -25 7 -45q0 -22 -24.5 -40.5t-62.5 -18.5q-34 0 -62 20t-40 59q-53 -84 -159 -84q-81 0 -132 47.5t-51 122.5q0 81 57.5 127.5t154.5 46.5q74 0 120 -24 v33q0 101 -134 101zM262 92q36 0 68 19.5t47 54.5v59q-32 12 -94 12q-50 0 -77.5 -20t-27.5 -55q0 -34 23.5 -52t60.5 -18zM245 723q9 -55 50 -55q48 0 54 77h65q17 0 24 -5.5t5 -17.5q-6 -58 -44.5 -95.5t-103.5 -37.5q-58 0 -99 34.5t-50 101.5q32 21 68 21q27 0 31 -23z " />
<glyph unicode="&#x104;" horiz-adv-x="689" d="M675 -140q26 9 26 -19v-51q-29 -17 -77 -17q-57 0 -88.5 29t-31.5 74q0 34 20 68.5t53 55.5h-15q-36 0 -44 24l-43 128h-262l-50 -152h-108q-19 0 -27 9.5t-3 25.5l236 649q51 23 110 23q26 0 40 -9t23 -33l242 -665q-69 -49 -69 -107q0 -38 42 -38q14 0 26 5zM439 265 l-95 285l-94 -285h189z" />
<glyph unicode="&#x105;" horiz-adv-x="599" d="M243 442q-75 0 -138 -31q-16 22 -16 53q0 28 57 55t134 27q111 0 170.5 -54.5t59.5 -160.5v-185q0 -49 36 -49h23q7 -25 7 -45q0 -15 -12.5 -29.5t-32.5 -22.5q-69 -49 -69 -107q0 -38 42 -38q14 0 26 5q26 9 26 -19v-51q-29 -17 -77 -17q-57 0 -88.5 29t-31.5 74 q0 34 21 69t59 60q-38 22 -52 67q-53 -84 -161 -84q-78 0 -129.5 48t-51.5 122q0 81 57.5 127.5t154.5 46.5q74 0 120 -24v33q0 101 -134 101zM262 92q36 0 68 19.5t47 54.5v59q-32 12 -94 12q-50 0 -77.5 -20t-27.5 -55q0 -34 23.5 -52t60.5 -18z" />
<glyph unicode="&#x106;" horiz-adv-x="695" d="M537 475q-44 120 -164 120q-76 0 -128 -59t-52 -163q0 -124 72 -196t189 -72q92 0 160 36q20 -32 20 -63q0 -30 -63.5 -60t-144.5 -30q-163 0 -269 105t-106 277q0 156 93.5 249t234.5 93q94 0 165 -39t105 -105q8 -15 8 -32q0 -20 -24 -34q-39 -24 -96 -27zM483 861 l-126 -96q-14 -11 -26 -11t-22 11l-39 42l109 112q15 15 27 15q19 0 31 -12q26 -25 46 -61z" />
<glyph unicode="&#x107;" horiz-adv-x="558" d="M512 70q0 -31 -49.5 -56.5t-125.5 -25.5q-119 0 -204.5 80.5t-85.5 214.5q0 119 72 191t190 72q73 0 128.5 -29t80.5 -76q8 -16 8 -31q0 -20 -26 -35q-36 -22 -87 -26q-23 89 -109 89q-54 0 -88.5 -41t-34.5 -112q0 -88 52.5 -138.5t132.5 -50.5q70 0 127 30 q19 -27 19 -56zM408 687l-126 -96q-14 -11 -26 -11t-22 11l-39 42l109 112q15 15 27 15q19 0 31 -12q26 -25 46 -61z" />
<glyph unicode="&#x108;" horiz-adv-x="695" d="M537 475q-44 120 -164 120q-76 0 -128 -59t-52 -163q0 -124 72 -196t189 -72q92 0 160 36q20 -32 20 -63q0 -30 -63.5 -60t-144.5 -30q-163 0 -269 105t-106 277q0 156 93.5 249t234.5 93q94 0 165 -39t105 -105q8 -15 8 -32q0 -20 -24 -34q-39 -24 -96 -27zM420 914 l114 -106l-34 -38q-14 -17 -29 -17t-30 15l-70 72l-88 -88q-39 18 -54 35q-11 13 -11 22t5 13l117 109h36q24 0 44 -17z" />
<glyph unicode="&#x109;" horiz-adv-x="558" d="M512 70q0 -31 -49.5 -56.5t-125.5 -25.5q-119 0 -204.5 80.5t-85.5 214.5q0 119 72 191t190 72q73 0 128.5 -29t80.5 -76q8 -16 8 -31q0 -20 -26 -35q-36 -22 -87 -26q-23 89 -109 89q-54 0 -88.5 -41t-34.5 -112q0 -88 52.5 -138.5t132.5 -50.5q70 0 127 30 q19 -27 19 -56zM342 740l114 -106l-34 -38q-14 -17 -29 -17t-30 15l-70 72l-88 -88q-39 18 -54 35q-11 13 -11 22t5 13l117 109h36q24 0 44 -17z" />
<glyph unicode="&#x10a;" horiz-adv-x="695" d="M537 475q-44 120 -164 120q-76 0 -128 -59t-52 -163q0 -124 72 -196t189 -72q92 0 160 36q20 -32 20 -63q0 -30 -63.5 -60t-144.5 -30q-163 0 -269 105t-106 277q0 156 93.5 249t234.5 93q94 0 165 -39t105 -105q8 -15 8 -32q0 -20 -24 -34q-39 -24 -96 -27zM373 772 q-28 0 -48 20t-20 52q0 30 18 48t46 18t48 -20t20 -52q0 -30 -18 -48t-46 -18z" />
<glyph unicode="&#x10b;" horiz-adv-x="558" d="M512 70q0 -31 -49.5 -56.5t-125.5 -25.5q-119 0 -204.5 80.5t-85.5 214.5q0 119 72 191t190 72q73 0 128.5 -29t80.5 -76q8 -16 8 -31q0 -20 -26 -35q-36 -22 -87 -26q-23 89 -109 89q-54 0 -88.5 -41t-34.5 -112q0 -88 52.5 -138.5t132.5 -50.5q70 0 127 30 q19 -27 19 -56zM300 598q-28 0 -48 20t-20 52q0 30 18 48t46 18t48 -20t20 -52q0 -30 -18 -48t-46 -18z" />
<glyph unicode="&#x10c;" horiz-adv-x="695" d="M537 475q-44 120 -164 120q-76 0 -128 -59t-52 -163q0 -124 72 -196t189 -72q92 0 160 36q20 -32 20 -63q0 -30 -63.5 -60t-144.5 -30q-163 0 -269 105t-106 277q0 156 93.5 249t234.5 93q94 0 165 -39t105 -105q8 -15 8 -32q0 -20 -24 -34q-39 -24 -96 -27zM333 770 l-111 103q32 58 60 58q13 0 24 -11l76 -76l91 91l43 -39q15 -15 15 -24q0 -10 -12 -20l-106 -99h-37q-25 0 -43 17z" />
<glyph unicode="&#x10d;" horiz-adv-x="558" d="M512 70q0 -31 -49.5 -56.5t-125.5 -25.5q-119 0 -204.5 80.5t-85.5 214.5q0 119 72 191t190 72q73 0 128.5 -29t80.5 -76q8 -16 8 -31q0 -20 -26 -35q-36 -22 -87 -26q-23 89 -109 89q-54 0 -88.5 -41t-34.5 -112q0 -88 52.5 -138.5t132.5 -50.5q70 0 127 30 q19 -27 19 -56zM250 596l-111 103q32 58 60 58q13 0 24 -11l76 -76l91 91l43 -39q15 -15 15 -24q0 -10 -12 -20l-106 -99h-37q-25 0 -43 17z" />
<glyph unicode="&#x10e;" horiz-adv-x="726" d="M339 0h-71q-95 0 -140.5 49t-45.5 158v493h261q145 0 238.5 -95t93.5 -255t-94 -255t-242 -95zM532 350q0 113 -56.5 173.5t-146.5 60.5h-107v-367q0 -57 15.5 -79t54.5 -22h37q90 0 146.5 60.5t56.5 173.5zM272 770l-111 103q32 58 60 58q13 0 24 -11l76 -76l91 91 l43 -39q15 -15 15 -24q0 -10 -12 -20l-106 -99h-37q-25 0 -43 17z" />
<glyph unicode="&#x10f;" horiz-adv-x="806" d="M438 730h99q34 0 34 -28v-557q0 -48 36 -48h22q7 -20 7 -45q0 -22 -24.5 -40.5t-62.5 -18.5q-36 0 -65.5 23.5t-40.5 69.5q-28 -48 -73.5 -73t-97.5 -25q-97 0 -161.5 70t-64.5 187q0 135 76.5 218t182.5 83q80 0 133 -50v234zM438 205v197q-39 35 -102 35 q-68 0 -111.5 -53t-43.5 -135q0 -72 32.5 -113t92.5 -41q42 0 77 28t55 82zM718 742q33 0 56.5 -23t23.5 -62q0 -84 -56 -151q-22 -27 -46.5 -41t-33.5 -10q-17 8 -24 32q51 48 60 101q-24 8 -39.5 28.5t-15.5 50.5q0 35 21 55t54 20z" />
<glyph unicode="&#x110;" horiz-adv-x="726" d="M20 387h62v313h261q145 0 238.5 -95t93.5 -255t-94 -255t-242 -95h-71q-95 0 -140.5 49t-45.5 158v105h-41q-27 0 -27 24q0 28 6 51zM532 350q0 113 -56.5 173.5t-146.5 60.5h-107v-197h138q25 0 25 -32v-43h-163v-95q0 -57 15.5 -79t54.5 -22h37q90 0 146.5 60.5 t56.5 173.5z" />
<glyph unicode="&#x111;" horiz-adv-x="664" d="M438 730h99q34 0 34 -28v-32h35q25 0 25 -32v-43h-60v-450q0 -48 36 -48h22q7 -20 7 -45q0 -22 -24.5 -40.5t-62.5 -18.5q-36 0 -65.5 23.5t-40.5 69.5q-28 -48 -73.5 -73t-97.5 -25q-97 0 -161.5 70t-64.5 187q0 135 76.5 218t182.5 83q80 0 133 -50v99h-136 q-26 0 -26 24q0 32 5 51h157v60zM438 205v197q-39 35 -102 35q-68 0 -111.5 -53t-43.5 -135q0 -72 32.5 -113t92.5 -41q42 0 77 28t55 82z" />
<glyph unicode="&#x112;" horiz-adv-x="582" d="M530 0h-263q-104 0 -144.5 53.5t-40.5 161.5v485h411q29 0 29 -36q0 -38 -10 -80h-290v-178h219q27 0 27 -34v-81h-246v-81q0 -55 15 -75t52 -20h214q27 0 27 -34v-81zM166 884h247q24 0 24 -30v-57h-253q-26 0 -26 32q0 23 8 55z" />
<glyph unicode="&#x113;" horiz-adv-x="583" d="M318 -12q-119 0 -195 78.5t-76 198.5q0 127 78 204t194 77q100 0 161 -56t61 -142q0 -51 -19 -87q-12 -23 -30.5 -32.5t-50.5 -9.5h-258q10 -62 53 -94t109 -32q73 0 128 29q18 -26 18 -55q0 -27 -49.5 -53t-123.5 -26zM316 441q-55 0 -90.5 -34t-42.5 -94h222q7 14 7 35 q0 43 -25.5 68t-70.5 25zM178 709h247q24 0 24 -30v-57h-253q-26 0 -26 32q0 23 8 55z" />
<glyph unicode="&#x114;" horiz-adv-x="582" d="M530 0h-263q-104 0 -144.5 53.5t-40.5 161.5v485h411q29 0 29 -36q0 -38 -10 -80h-290v-178h219q27 0 27 -34v-81h-246v-81q0 -55 15 -75t52 -20h214q27 0 27 -34v-81zM247 898q9 -55 50 -55q48 0 54 77h65q17 0 24 -5.5t5 -17.5q-6 -58 -44.5 -95.5t-103.5 -37.5 q-58 0 -99 34.5t-50 101.5q32 21 68 21q27 0 31 -23z" />
<glyph unicode="&#x115;" horiz-adv-x="583" d="M318 -12q-119 0 -195 78.5t-76 198.5q0 127 78 204t194 77q100 0 161 -56t61 -142q0 -51 -19 -87q-12 -23 -30.5 -32.5t-50.5 -9.5h-258q10 -62 53 -94t109 -32q73 0 128 29q18 -26 18 -55q0 -27 -49.5 -53t-123.5 -26zM316 441q-55 0 -90.5 -34t-42.5 -94h222q7 14 7 35 q0 43 -25.5 68t-70.5 25zM260 723q9 -55 50 -55q48 0 54 77h65q17 0 24 -5.5t5 -17.5q-6 -58 -44.5 -95.5t-103.5 -37.5q-58 0 -99 34.5t-50 101.5q32 21 68 21q27 0 31 -23z" />
<glyph unicode="&#x116;" horiz-adv-x="582" d="M530 0h-263q-104 0 -144.5 53.5t-40.5 161.5v485h411q29 0 29 -36q0 -38 -10 -80h-290v-178h219q27 0 27 -34v-81h-246v-81q0 -55 15 -75t52 -20h214q27 0 27 -34v-81zM299 772q-28 0 -48 20t-20 52q0 30 18 48t46 18t48 -20t20 -52q0 -30 -18 -48t-46 -18z" />
<glyph unicode="&#x117;" horiz-adv-x="583" d="M318 -12q-119 0 -195 78.5t-76 198.5q0 127 78 204t194 77q100 0 161 -56t61 -142q0 -51 -19 -87q-12 -23 -30.5 -32.5t-50.5 -9.5h-258q10 -62 53 -94t109 -32q73 0 128 29q18 -26 18 -55q0 -27 -49.5 -53t-123.5 -26zM316 441q-55 0 -90.5 -34t-42.5 -94h222q7 14 7 35 q0 43 -25.5 68t-70.5 25zM312 598q-28 0 -48 20t-20 52q0 30 18 48t46 18t48 -20t20 -52q0 -30 -18 -48t-46 -18z" />
<glyph unicode="&#x118;" horiz-adv-x="582" d="M495 -140q26 9 26 -19v-51q-29 -17 -77 -17q-57 0 -88.5 29t-31.5 74q0 34 20 68.5t53 55.5h-130q-104 0 -144.5 53.5t-40.5 161.5v485h411q29 0 29 -36q0 -38 -10 -80h-290v-178h219q27 0 27 -34v-81h-246v-81q0 -55 15 -75t52 -20h214q27 0 27 -34v-81h-34 q-69 -49 -69 -107q0 -38 42 -38q14 0 26 5z" />
<glyph unicode="&#x119;" horiz-adv-x="583" d="M405 -140q26 9 26 -19v-51q-29 -17 -77 -17q-57 0 -88.5 29t-31.5 74q0 65 58 113q-109 9 -177 85.5t-68 190.5q0 127 78 204t194 77q100 0 161 -56t61 -142q0 -51 -19 -87q-12 -23 -30.5 -32.5t-50.5 -9.5h-258q10 -62 53 -94t109 -32q73 0 128 29q18 -26 18 -55 q0 -17 -23.5 -36t-61.5 -31q-69 -49 -69 -107q0 -38 42 -38q14 0 26 5zM316 441q-55 0 -90.5 -34t-42.5 -94h222q7 14 7 35q0 43 -25.5 68t-70.5 25z" />
<glyph unicode="&#x11a;" horiz-adv-x="582" d="M530 0h-263q-104 0 -144.5 53.5t-40.5 161.5v485h411q29 0 29 -36q0 -38 -10 -80h-290v-178h219q27 0 27 -34v-81h-246v-81q0 -55 15 -75t52 -20h214q27 0 27 -34v-81zM254 770l-111 103q32 58 60 58q13 0 24 -11l76 -76l91 91l43 -39q15 -15 15 -24q0 -10 -12 -20 l-106 -99h-37q-25 0 -43 17z" />
<glyph unicode="&#x11b;" horiz-adv-x="583" d="M318 -12q-119 0 -195 78.5t-76 198.5q0 127 78 204t194 77q100 0 161 -56t61 -142q0 -51 -19 -87q-12 -23 -30.5 -32.5t-50.5 -9.5h-258q10 -62 53 -94t109 -32q73 0 128 29q18 -26 18 -55q0 -27 -49.5 -53t-123.5 -26zM316 441q-55 0 -90.5 -34t-42.5 -94h222q7 14 7 35 q0 43 -25.5 68t-70.5 25zM262 596l-111 103q32 58 60 58q13 0 24 -11l76 -76l91 91l43 -39q15 -15 15 -24q0 -10 -12 -20l-106 -99h-37q-25 0 -43 17z" />
<glyph unicode="&#x11c;" horiz-adv-x="754" d="M554 483q-22 52 -64.5 81.5t-101.5 29.5q-85 0 -140 -59t-55 -163q0 -121 68.5 -194t167.5 -73q60 0 87 18t27 57v80h-113q-30 0 -30 36q0 33 9 73h236q39 0 39 -42v-139q0 -99 -75.5 -149.5t-185.5 -50.5q-160 0 -266 105.5t-106 275.5q0 156 95.5 249.5t242.5 93.5 q92 0 164 -37.5t110 -99.5q10 -16 10 -31q0 -23 -37.5 -41t-81.5 -20zM426 914l114 -106l-34 -38q-14 -17 -29 -17t-30 15l-70 72l-88 -88q-39 18 -54 35q-11 13 -11 22t5 13l117 109h36q24 0 44 -17z" />
<glyph unicode="&#x11d;" horiz-adv-x="648" d="M274 -247q-99 0 -154 39.5t-55 101.5q0 36 24 69.5t71 54.5q-53 31 -83.5 90t-30.5 138q0 134 76.5 217t182.5 83q80 0 133 -50v38h99q34 0 34 -27v-498q0 -104 -79.5 -180t-217.5 -76zM306 95q42 0 77 28t55 83v196q-40 36 -102 36q-68 0 -111.5 -53t-43.5 -135 q0 -73 32.5 -114t92.5 -41zM278 -11q-23 0 -42 3q-39 -34 -39 -79q0 -25 21.5 -40t62.5 -15q66 0 111.5 39.5t45.5 108.5v72q-66 -89 -160 -89zM385 740l114 -106l-34 -38q-14 -17 -29 -17t-30 15l-70 72l-88 -88q-39 18 -54 35q-11 13 -11 22t5 13l117 109h36q24 0 44 -17z " />
<glyph unicode="&#x11e;" horiz-adv-x="754" d="M554 483q-22 52 -64.5 81.5t-101.5 29.5q-85 0 -140 -59t-55 -163q0 -121 68.5 -194t167.5 -73q60 0 87 18t27 57v80h-113q-30 0 -30 36q0 33 9 73h236q39 0 39 -42v-139q0 -99 -75.5 -149.5t-185.5 -50.5q-160 0 -266 105.5t-106 275.5q0 156 95.5 249.5t242.5 93.5 q92 0 164 -37.5t110 -99.5q10 -16 10 -31q0 -23 -37.5 -41t-81.5 -20zM327 898q9 -55 50 -55q48 0 54 77h65q17 0 24 -5.5t5 -17.5q-6 -58 -44.5 -95.5t-103.5 -37.5q-58 0 -99 34.5t-50 101.5q32 21 68 21q27 0 31 -23z" />
<glyph unicode="&#x11f;" horiz-adv-x="648" d="M274 -247q-99 0 -154 39.5t-55 101.5q0 36 24 69.5t71 54.5q-53 31 -83.5 90t-30.5 138q0 134 76.5 217t182.5 83q80 0 133 -50v38h99q34 0 34 -27v-498q0 -104 -79.5 -180t-217.5 -76zM306 95q42 0 77 28t55 83v196q-40 36 -102 36q-68 0 -111.5 -53t-43.5 -135 q0 -73 32.5 -114t92.5 -41zM278 -11q-23 0 -42 3q-39 -34 -39 -79q0 -25 21.5 -40t62.5 -15q66 0 111.5 39.5t45.5 108.5v72q-66 -89 -160 -89zM286 723q9 -55 50 -55q48 0 54 77h65q17 0 24 -5.5t5 -17.5q-6 -58 -44.5 -95.5t-103.5 -37.5q-58 0 -99 34.5t-50 101.5 q32 21 68 21q27 0 31 -23z" />
<glyph unicode="&#x120;" horiz-adv-x="754" d="M554 483q-22 52 -64.5 81.5t-101.5 29.5q-85 0 -140 -59t-55 -163q0 -121 68.5 -194t167.5 -73q60 0 87 18t27 57v80h-113q-30 0 -30 36q0 33 9 73h236q39 0 39 -42v-139q0 -99 -75.5 -149.5t-185.5 -50.5q-160 0 -266 105.5t-106 275.5q0 156 95.5 249.5t242.5 93.5 q92 0 164 -37.5t110 -99.5q10 -16 10 -31q0 -23 -37.5 -41t-81.5 -20zM377 772q-28 0 -48 20t-20 52q0 30 18 48t46 18t48 -20t20 -52q0 -30 -18 -48t-46 -18z" />
<glyph unicode="&#x121;" horiz-adv-x="648" d="M274 -247q-99 0 -154 39.5t-55 101.5q0 36 24 69.5t71 54.5q-53 31 -83.5 90t-30.5 138q0 134 76.5 217t182.5 83q80 0 133 -50v38h99q34 0 34 -27v-498q0 -104 -79.5 -180t-217.5 -76zM306 95q42 0 77 28t55 83v196q-40 36 -102 36q-68 0 -111.5 -53t-43.5 -135 q0 -73 32.5 -114t92.5 -41zM278 -11q-23 0 -42 3q-39 -34 -39 -79q0 -25 21.5 -40t62.5 -15q66 0 111.5 39.5t45.5 108.5v72q-66 -89 -160 -89zM338 598q-28 0 -48 20t-20 52q0 30 18 48t46 18t48 -20t20 -52q0 -30 -18 -48t-46 -18z" />
<glyph unicode="&#x122;" horiz-adv-x="754" d="M554 483q-22 52 -64.5 81.5t-101.5 29.5q-85 0 -140 -59t-55 -163q0 -121 68.5 -194t167.5 -73q60 0 87 18t27 57v80h-113q-30 0 -30 36q0 33 9 73h236q39 0 39 -42v-139q0 -99 -75.5 -149.5t-185.5 -50.5q-160 0 -266 105.5t-106 275.5q0 156 95.5 249.5t242.5 93.5 q92 0 164 -37.5t110 -99.5q10 -16 10 -31q0 -23 -37.5 -41t-81.5 -20zM487 -110q0 -63 -43 -113q-21 -25 -43.5 -39t-31.5 -10q-17 10 -22 30q38 34 47 72q-22 6 -35.5 23.5t-13.5 42.5q0 28 20.5 46.5t49.5 18.5q30 0 51 -20t21 -51z" />
<glyph unicode="&#x123;" horiz-adv-x="648" d="M274 -247q-99 0 -154 39.5t-55 101.5q0 36 24 69.5t71 54.5q-53 31 -83.5 90t-30.5 138q0 134 76.5 217t182.5 83q80 0 133 -50v38h99q34 0 34 -27v-498q0 -104 -79.5 -180t-217.5 -76zM306 95q42 0 77 28t55 83v196q-40 36 -102 36q-68 0 -111.5 -53t-43.5 -135 q0 -73 32.5 -114t92.5 -41zM278 -11q-23 0 -42 3q-39 -34 -39 -79q0 -25 21.5 -40t62.5 -15q66 0 111.5 39.5t45.5 108.5v72q-66 -89 -160 -89zM264 647q0 63 43 113q21 25 43.5 39t31.5 10q17 -10 22 -30q-38 -34 -47 -72q22 -6 35.5 -23.5t13.5 -42.5q0 -28 -20.5 -46.5 t-49.5 -18.5q-30 0 -51 20t-21 51z" />
<glyph unicode="&#x124;" horiz-adv-x="724" d="M224 0h-106q-34 0 -34 26v669q42 12 100 12q40 0 40 -30v-269h275v292h107q34 0 34 -27v-673h-107q-34 0 -34 26v267h-275v-293zM410 914l114 -106l-34 -38q-14 -17 -29 -17t-30 15l-70 72l-88 -88q-39 18 -54 35q-11 13 -11 22t5 13l117 109h36q24 0 44 -17z" />
<glyph unicode="&#x125;" horiz-adv-x="648" d="M207 0h-99q-33 0 -33 27v668q36 10 82 12h12h1q37 -1 37 -30v-202l1 1l8 8q45 43 108 57q4 0 6 1q1 0 3.5 0.5t3.5 0.5h3q2 1 8 1q8 2 13 2h9q89 0 137.5 -60t48.5 -173v-168q0 -45 28 -48h5h25q7 -20 8 -38v-7v-2q-2 -22 -26.5 -38.5t-61.5 -16.5q-66 0 -94 51 q-16 34 -16 83v194q0 112 -94 115h-4q-9 0 -13 -1q-5 0 -19 -2q-9 -2 -27 -8q-34 -13 -59 -34v-393h-99h-1q-34 0 -34 26v669q37 10 83 12h12h1q38 0 38 -30v-201l8 8q45 43 108 57q4 0 6 1q1 0 3.5 0.5t3.5 0.5h3q2 1 8 1q8 2 13 2h10q89 0 137.5 -59.5t48.5 -172.5v-168 q0 -46 27 -49h5h26q5 -16 7 -38v-7v-2q-1 -26 -24 -41.5t-63 -15.5q-66 0 -95 53q-17 31 -17 82v195q0 112 -93 115h-4q-9 0 -13 -1q-5 0 -19 -2q-9 -2 -27 -8q-37 -14 -59 -34l-1 -1v-392zM268 916l114 -106l-34 -38q-14 -17 -29 -17t-30 15l-70 72l-88 -88q-39 18 -54 35 q-11 13 -11 22t5 13l117 109h36q24 0 44 -17z" />
<glyph unicode="&#x126;" horiz-adv-x="724" d="M224 0h-106q-34 0 -34 26v484h-43q-26 0 -26 23q0 32 5 51h64v111q42 12 100 12q40 0 40 -30v-93h275v116h107q34 0 34 -27v-89h44q25 0 25 -32v-42h-69v-510h-107q-34 0 -34 26v267h-275v-293zM224 510v-102h275v102h-275z" />
<glyph unicode="&#x127;" horiz-adv-x="648" d="M20 670h55v55q42 12 95 12q38 0 38 -30v-37h137q25 0 25 -32v-43h-162v-119q30 32 74 51t89 19q89 0 137.5 -59.5t48.5 -172.5v-168q0 -48 32 -48h26q7 -20 7 -45q0 -23 -24.5 -41.5t-62.5 -18.5q-48 0 -80 32t-32 104v194q0 115 -97 115q-66 0 -118 -45v-393h-99 q-34 0 -34 27v568h-34q-26 0 -26 24q0 26 5 51z" />
<glyph unicode="&#x128;" horiz-adv-x="318" d="M229 0h-107q-34 0 -34 26v669q43 12 101 12q40 0 40 -30v-677zM13 836q23 69 85 69q37 0 65 -22q26 -21 37 -21q19 0 26 48l62 -17q21 -6 21 -24q0 -43 -26.5 -69.5t-64.5 -26.5q-35 0 -63 22q-27 21 -38 21q-20 0 -26 -43q-35 0 -62 11q-20 8 -20 25q0 11 4 27z" />
<glyph unicode="&#x129;" horiz-adv-x="304" d="M74 128v401q43 12 95 12q38 0 38 -30v-366q0 -48 33 -48h26q7 -24 7 -45q0 -22 -24.5 -40.5t-62.5 -18.5q-48 0 -80 31.5t-32 103.5zM-5 661q23 69 85 69q37 0 65 -22q26 -21 37 -21q19 0 26 48l62 -17q21 -6 21 -24q0 -43 -26.5 -69.5t-64.5 -26.5q-35 0 -63 22 q-27 21 -38 21q-20 0 -26 -43q-35 0 -62 11q-20 8 -20 25q0 11 4 27z" />
<glyph unicode="&#x12a;" horiz-adv-x="318" d="M229 0h-107q-34 0 -34 26v669q43 12 101 12q40 0 40 -30v-677zM27 884h247q24 0 24 -30v-57h-253q-26 0 -26 32q0 23 8 55z" />
<glyph unicode="&#x12b;" horiz-adv-x="304" d="M74 128v401q43 12 95 12q38 0 38 -30v-366q0 -48 33 -48h26q7 -24 7 -45q0 -22 -24.5 -40.5t-62.5 -18.5q-48 0 -80 31.5t-32 103.5zM10 709h247q24 0 24 -30v-57h-253q-26 0 -26 32q0 23 8 55z" />
<glyph unicode="&#x12c;" horiz-adv-x="318" d="M229 0h-107q-34 0 -34 26v669q43 12 101 12q40 0 40 -30v-677zM109 898q9 -55 50 -55q48 0 54 77h65q17 0 24 -5.5t5 -17.5q-6 -58 -44.5 -95.5t-103.5 -37.5q-58 0 -99 34.5t-50 101.5q32 21 68 21q27 0 31 -23z" />
<glyph unicode="&#x12d;" horiz-adv-x="304" d="M74 128v401q43 12 95 12q38 0 38 -30v-366q0 -48 33 -48h26q7 -24 7 -45q0 -22 -24.5 -40.5t-62.5 -18.5q-48 0 -80 31.5t-32 103.5zM92 723q9 -55 50 -55q48 0 54 77h65q17 0 24 -5.5t5 -17.5q-6 -58 -44.5 -95.5t-103.5 -37.5q-58 0 -99 34.5t-50 101.5q32 21 68 21 q27 0 31 -23z" />
<glyph unicode="&#x12e;" horiz-adv-x="318" d="M228 -140q26 9 26 -19v-51q-29 -17 -77 -17q-57 0 -88.5 29t-31.5 74q0 34 20 68.5t53 55.5h-8q-34 0 -34 26v669q43 12 101 12q40 0 40 -30v-677q-69 -49 -69 -107q0 -38 42 -38q14 0 26 5z" />
<glyph unicode="&#x12f;" horiz-adv-x="304" d="M234 -140q26 9 26 -19v-51q-29 -17 -77 -17q-57 0 -88.5 29t-31.5 74q0 33 20.5 67.5t52.5 58.5q-62 28 -62 126v401q43 12 95 12q38 0 38 -30v-366q0 -48 33 -48h26q7 -24 7 -45q0 -24 -31 -45q-34 -22 -55 -53t-21 -61q0 -38 42 -38q14 0 26 5zM140 600q-31 0 -53 20 t-22 53q0 32 20.5 51t52.5 19q31 0 53.5 -20.5t22.5 -52.5q0 -33 -20 -51.5t-54 -18.5z" />
<glyph unicode="&#x130;" horiz-adv-x="318" d="M229 0h-107q-34 0 -34 26v669q43 12 101 12q40 0 40 -30v-677zM161 772q-28 0 -48 20t-20 52q0 30 18 48t46 18t48 -20t20 -52q0 -30 -18 -48t-46 -18z" />
<glyph unicode="&#x131;" horiz-adv-x="304" d="M74 128v401q43 12 95 12q38 0 38 -30v-366q0 -48 33 -48h26q7 -24 7 -45q0 -22 -24.5 -40.5t-62.5 -18.5q-48 0 -80 31.5t-32 103.5z" />
<glyph unicode="&#x132;" horiz-adv-x="726" d="M215 0h-107q-34 0 -34 26v669q43 12 101 12q40 0 40 -30v-677zM463 -12q-63 0 -111.5 22.5t-48.5 48.5q0 33 18 64q49 -18 96 -18q103 0 103 107v483q42 12 101 12q39 0 39 -30v-452q0 -117 -45 -177t-152 -60z" />
<glyph unicode="&#x133;" horiz-adv-x="586" d="M74 128v401q43 12 95 12q38 0 38 -30v-366q0 -48 33 -48h26q7 -24 7 -45q0 -22 -24.5 -40.5t-62.5 -18.5q-48 0 -80 31.5t-32 103.5zM140 600q-31 0 -53 20t-22 53q0 32 20.5 51t52.5 19q31 0 53.5 -20.5t22.5 -52.5q0 -33 -20 -51.5t-54 -18.5zM417 -165 q-46 -34 -73 -34q-14 0 -26.5 14t-18.5 32q79 84 79 195v487q44 12 95 12q38 0 38 -30v-463q0 -141 -94 -213zM444 600q-31 0 -53 20t-22 53q0 32 20.5 51t52.5 19q31 0 53.5 -20.5t22.5 -52.5q0 -33 -20 -51.5t-54 -18.5z" />
<glyph unicode="&#x134;" horiz-adv-x="452" d="M174 -12q-63 0 -111.5 22.5t-48.5 48.5q0 33 18 64q49 -18 96 -18q103 0 103 107v483q42 12 101 12q39 0 39 -30v-452q0 -117 -45 -177t-152 -60zM345 914l114 -106l-34 -38q-14 -17 -29 -17t-30 15l-70 72l-88 -88q-39 18 -54 35q-11 13 -11 22t5 13l117 109h36 q24 0 44 -17z" />
<glyph unicode="&#x135;" horiz-adv-x="287" d="M118 -165q-46 -34 -73 -34q-14 0 -26.5 14t-18.5 32q79 84 79 195v487q44 12 95 12q38 0 38 -30v-463q0 -141 -94 -213zM191 740l114 -106l-34 -38q-14 -17 -29 -17t-30 15l-70 72l-88 -88q-39 18 -54 35q-11 13 -11 22t5 13l117 109h36q24 0 44 -17z" />
<glyph unicode="&#x136;" horiz-adv-x="675" d="M607 597q-70 -112 -198 -221q80 -156 162 -241q30 -32 64 -32h18q9 -22 9 -55q0 -22 -26 -41t-65 -19q-65 0 -128 75q-71 87 -140 231q-39 -27 -79 -51v-243h-106q-34 0 -34 27v668q47 13 101 13q39 0 39 -30v-283q171 123 292 314q57 -18 79 -35.5t22 -41.5 q0 -18 -10 -35zM421 -110q0 -63 -43 -113q-21 -25 -43.5 -39t-31.5 -10q-17 10 -22 30q38 34 47 72q-22 6 -35.5 23.5t-13.5 42.5q0 28 20.5 46.5t49.5 18.5q30 0 51 -20t21 -51z" />
<glyph unicode="&#x137;" horiz-adv-x="593" d="M208 0h-99q-34 0 -34 27v698q42 12 95 12q38 0 38 -30v-390q63 39 129.5 102t105.5 125q52 -17 72 -33.5t20 -38.5q0 -12 -9 -29q-39 -70 -157 -156q60 -99 110 -153q33 -37 61 -37h22q8 -24 8 -45q0 -22 -25 -40.5t-63 -18.5q-64 0 -121 77q-47 61 -94 150 q-27 -17 -59 -33v-187zM377 -110q0 -63 -43 -113q-21 -25 -43.5 -39t-31.5 -10q-17 10 -22 30q38 34 47 72q-22 6 -35.5 23.5t-13.5 42.5q0 28 20.5 46.5t49.5 18.5q30 0 51 -20t21 -51z" />
<glyph unicode="&#x138;" horiz-adv-x="593" d="M208 0h-99q-34 0 -34 27v502q42 12 95 12q38 0 38 -30v-194q63 39 129.5 102t105.5 125q52 -17 72 -33.5t20 -38.5q0 -12 -9 -29q-39 -70 -157 -156q56 -93 112 -153q33 -37 59 -37h22q8 -24 8 -45q0 -22 -25 -40.5t-63 -18.5q-64 0 -121 77q-47 61 -94 150 q-27 -17 -59 -33v-187z" />
<glyph unicode="&#x139;" horiz-adv-x="555" d="M531 0h-259q-103 0 -146.5 51.5t-43.5 164.5v480q42 12 100 12q40 0 40 -30v-462q0 -57 14 -79t53 -22h215q27 0 27 -34v-81zM284 861l-126 -96q-14 -11 -26 -11t-22 11l-39 42l109 112q15 15 27 15q19 0 31 -12q26 -25 46 -61z" />
<glyph unicode="&#x13a;" horiz-adv-x="346" d="M221 -7q-77 0 -112.5 49t-35.5 133v520q44 12 95 12q38 0 38 -30v-507q0 -72 56 -72q33 0 58 11q16 -23 16 -54q0 -25 -31.5 -43.5t-83.5 -18.5zM282 861l-126 -96q-14 -11 -26 -11t-22 11l-39 42l109 112q15 15 27 15q19 0 31 -12q26 -25 46 -61z" />
<glyph unicode="&#x13b;" horiz-adv-x="555" d="M531 0h-259q-103 0 -146.5 51.5t-43.5 164.5v480q42 12 100 12q40 0 40 -30v-462q0 -57 14 -79t53 -22h215q27 0 27 -34v-81zM404 -110q0 -63 -43 -113q-21 -25 -43.5 -39t-31.5 -10q-17 10 -22 30q38 34 47 72q-22 6 -35.5 23.5t-13.5 42.5q0 28 20.5 46.5t49.5 18.5 q30 0 51 -20t21 -51z" />
<glyph unicode="&#x13c;" horiz-adv-x="346" d="M221 -7q-77 0 -112.5 49t-35.5 133v550q44 12 95 12q38 0 38 -30v-537q0 -72 56 -72q33 0 58 11q16 -23 16 -54q0 -25 -31.5 -43.5t-83.5 -18.5zM282 -110q0 -63 -43 -113q-21 -25 -43.5 -39t-31.5 -10q-17 10 -22 30q38 34 47 72q-22 6 -35.5 23.5t-13.5 42.5 q0 28 20.5 46.5t49.5 18.5q30 0 51 -20t21 -51z" />
<glyph unicode="&#x13d;" horiz-adv-x="555" d="M531 0h-259q-103 0 -146.5 51.5t-43.5 164.5v480q42 12 100 12q40 0 40 -30v-462q0 -57 14 -79t53 -22h215q27 0 27 -34v-81zM368 742q33 0 56.5 -23t23.5 -62q0 -84 -56 -151q-22 -27 -46.5 -41t-33.5 -10q-17 8 -24 32q51 48 60 101q-24 8 -39.5 28.5t-15.5 50.5 q0 35 21 55t54 20z" />
<glyph unicode="&#x13e;" horiz-adv-x="441" d="M221 -7q-77 0 -112.5 49t-35.5 133v550q44 12 95 12q38 0 38 -30v-537q0 -72 56 -72q33 0 58 11q16 -23 16 -54q0 -25 -31.5 -43.5t-83.5 -18.5zM353 742q33 0 56.5 -23t23.5 -62q0 -84 -56 -151q-22 -27 -46.5 -41t-33.5 -10q-17 8 -24 32q51 48 60 101 q-24 8 -39.5 28.5t-15.5 50.5q0 35 21 55t54 20z" />
<glyph unicode="&#x13f;" horiz-adv-x="555" d="M531 0h-259q-103 0 -146.5 51.5t-43.5 164.5v480q42 12 100 12q40 0 40 -30v-462q0 -57 14 -79t53 -22h215q27 0 27 -34v-81zM408 312q-28 0 -48 20t-20 52q0 30 18 48t46 18t48 -20t20 -52q0 -30 -18 -48t-46 -18z" />
<glyph unicode="&#x140;" horiz-adv-x="440" d="M221 -7q-77 0 -112.5 49t-35.5 133v550q44 12 95 12q38 0 38 -30v-537q0 -72 56 -72q33 0 58 11q16 -23 16 -54q0 -25 -31.5 -43.5t-83.5 -18.5zM365 312q-28 0 -48 20t-20 52q0 30 18 48t46 18t48 -20t20 -52q0 -30 -18 -48t-46 -18z" />
<glyph unicode="&#x141;" horiz-adv-x="556" d="M531 0h-259q-103 0 -146.5 51.5t-43.5 164.5v46l-40 -19q-19 -9 -29 4q-15 18 -22 60l91 43v345q42 12 100 12q40 0 40 -30v-260l139 66q16 7 27 -4q17 -16 25 -59l-191 -91v-113q0 -57 14 -79t53 -22h215q27 0 27 -34v-81z" />
<glyph unicode="&#x142;" horiz-adv-x="352" d="M221 -7q-77 0 -112.5 49t-35.5 133v103l-33 -16q-16 -8 -28 3q-16 15 -24 61l85 40v359q44 12 95 12q38 0 38 -30v-278l71 34q17 9 26 -2q17 -21 25 -61l-122 -59v-171q0 -72 56 -72q33 0 58 11q16 -23 16 -54q0 -25 -31.5 -43.5t-83.5 -18.5z" />
<glyph unicode="&#x143;" horiz-adv-x="720" d="M500 13l-276 447v-460h-106q-34 0 -34 27v640q22 17 51 29t47 12q24 0 38 -21l276 -447v460h106q34 0 34 -27v-640q-22 -17 -51 -29t-47 -12q-26 0 -38 21zM482 861l-126 -96q-14 -11 -26 -11t-22 11l-39 42l109 112q15 15 27 15q19 0 31 -12q26 -25 46 -61z" />
<glyph unicode="&#x144;" horiz-adv-x="648" d="M208 0h-99q-34 0 -34 27v502q42 12 95 12q38 0 38 -30v-35q30 32 74 51t89 19q89 0 137.5 -59.5t48.5 -172.5v-168q0 -48 32 -48h26q7 -20 7 -45q0 -23 -24.5 -41.5t-62.5 -18.5q-48 0 -80 32t-32 104v194q0 115 -97 115q-66 0 -118 -45v-393zM438 687l-126 -96 q-14 -11 -26 -11t-22 11l-39 42l109 112q15 15 27 15q19 0 31 -12q26 -25 46 -61z" />
<glyph unicode="&#x145;" horiz-adv-x="720" d="M500 13l-276 447v-460h-106q-34 0 -34 27v640q22 17 51 29t47 12q24 0 38 -21l276 -447v460h106q34 0 34 -27v-640q-22 -17 -51 -29t-47 -12q-26 0 -38 21zM438 -110q0 -63 -43 -113q-21 -25 -43.5 -39t-31.5 -10q-17 10 -22 30q38 34 47 72q-22 6 -35.5 23.5t-13.5 42.5 q0 28 20.5 46.5t49.5 18.5q30 0 51 -20t21 -51z" />
<glyph unicode="&#x146;" horiz-adv-x="648" d="M208 0h-99q-34 0 -34 27v502q42 12 95 12q38 0 38 -30v-35q30 32 74 51t89 19q89 0 137.5 -59.5t48.5 -172.5v-168q0 -48 32 -48h26q7 -20 7 -45q0 -23 -24.5 -41.5t-62.5 -18.5q-48 0 -80 32t-32 104v194q0 115 -97 115q-66 0 -118 -45v-393zM401 -110q0 -63 -43 -113 q-21 -25 -43.5 -39t-31.5 -10q-17 10 -22 30q38 34 47 72q-22 6 -35.5 23.5t-13.5 42.5q0 28 20.5 46.5t49.5 18.5q30 0 51 -20t21 -51z" />
<glyph unicode="&#x147;" horiz-adv-x="720" d="M500 13l-276 447v-460h-106q-34 0 -34 27v640q22 17 51 29t47 12q24 0 38 -21l276 -447v460h106q34 0 34 -27v-640q-22 -17 -51 -29t-47 -12q-26 0 -38 21zM316 770l-111 103q32 58 60 58q13 0 24 -11l76 -76l91 91l43 -39q15 -15 15 -24q0 -10 -12 -20l-106 -99h-37 q-25 0 -43 17z" />
<glyph unicode="&#x148;" horiz-adv-x="648" d="M208 0h-99q-34 0 -34 27v502q42 12 95 12q38 0 38 -30v-35q30 32 74 51t89 19q89 0 137.5 -59.5t48.5 -172.5v-168q0 -48 32 -48h26q7 -20 7 -45q0 -23 -24.5 -41.5t-62.5 -18.5q-48 0 -80 32t-32 104v194q0 115 -97 115q-66 0 -118 -45v-393zM272 596l-111 103 q32 58 60 58q13 0 24 -11l76 -76l91 91l43 -39q15 -15 15 -24q0 -10 -12 -20l-106 -99h-37q-25 0 -43 17z" />
<glyph unicode="&#x149;" horiz-adv-x="726" d="M286 0h-99q-34 0 -34 27v502q42 12 95 12q38 0 38 -30v-35q30 32 74 51t89 19q89 0 137.5 -59.5t48.5 -172.5v-168q0 -48 32 -48h26q7 -20 7 -45q0 -23 -24.5 -41.5t-62.5 -18.5q-48 0 -80 32t-32 104v194q0 115 -97 115q-66 0 -118 -45v-393zM72 742q33 0 56.5 -23 t23.5 -62q0 -84 -56 -151q-22 -27 -46.5 -41t-33.5 -10q-17 8 -24 32q51 48 60 101q-24 8 -39.5 28.5t-15.5 50.5q0 35 21 55t54 20z" />
<glyph unicode="&#x14a;" horiz-adv-x="720" d="M495 2v17l-271 439v-458h-106q-34 0 -34 26v641q55 40 98 40q25 0 38 -20l275 -446v459h106q34 0 34 -27v-677q0 -107 -64 -176q-50 -53 -96 -53q-16 0 -32.5 14.5t-24.5 37.5q77 79 77 183z" />
<glyph unicode="&#x14b;" horiz-adv-x="648" d="M424 2v321q0 115 -98 115q-68 0 -118 -45v-393h-99q-34 0 -34 27v502q42 12 95 12q38 0 38 -30v-35q29 32 73 51t90 19q89 0 137.5 -59.5t48.5 -172.5v-318q0 -111 -76 -185q-46 -44 -83 -44q-16 0 -31 14.5t-23 35.5q80 83 80 185z" />
<glyph unicode="&#x14c;" horiz-adv-x="781" d="M729 350q0 -170 -96.5 -266t-242.5 -96t-242.5 96t-96.5 266t96.5 266t242.5 96t242.5 -96t96.5 -266zM396 105q81 0 136 60t55 176q0 115 -58 184.5t-144 69.5q-81 0 -136.5 -60t-55.5 -176q0 -115 58.5 -184.5t144.5 -69.5zM258 884h247q24 0 24 -30v-57h-253 q-26 0 -26 32q0 23 8 55z" />
<glyph unicode="&#x14d;" horiz-adv-x="633" d="M317 546q113 0 191.5 -75t78.5 -204t-78.5 -204t-191.5 -75t-191.5 75t-78.5 204t78.5 204t191.5 75zM321 96q58 0 94.5 42t36.5 123q0 82 -40 129.5t-99 47.5q-58 0 -95 -42t-37 -123q0 -82 40.5 -129.5t99.5 -47.5zM183 709h247q24 0 24 -30v-57h-253q-26 0 -26 32 q0 23 8 55z" />
<glyph unicode="&#x14e;" horiz-adv-x="781" d="M729 350q0 -170 -96.5 -266t-242.5 -96t-242.5 96t-96.5 266t96.5 266t242.5 96t242.5 -96t96.5 -266zM396 105q81 0 136 60t55 176q0 115 -58 184.5t-144 69.5q-81 0 -136.5 -60t-55.5 -176q0 -115 58.5 -184.5t144.5 -69.5zM340 898q9 -55 50 -55q48 0 54 77h65 q17 0 24 -5.5t5 -17.5q-6 -58 -44.5 -95.5t-103.5 -37.5q-58 0 -99 34.5t-50 101.5q32 21 68 21q27 0 31 -23z" />
<glyph unicode="&#x14f;" horiz-adv-x="633" d="M317 546q113 0 191.5 -75t78.5 -204t-78.5 -204t-191.5 -75t-191.5 75t-78.5 204t78.5 204t191.5 75zM321 96q58 0 94.5 42t36.5 123q0 82 -40 129.5t-99 47.5q-58 0 -95 -42t-37 -123q0 -82 40.5 -129.5t99.5 -47.5zM266 723q9 -55 50 -55q48 0 54 77h65q17 0 24 -5.5 t5 -17.5q-6 -58 -44.5 -95.5t-103.5 -37.5q-58 0 -99 34.5t-50 101.5q32 21 68 21q27 0 31 -23z" />
<glyph unicode="&#x150;" horiz-adv-x="781" d="M729 350q0 -170 -96.5 -266t-242.5 -96t-242.5 96t-96.5 266t96.5 266t242.5 96t242.5 -96t96.5 -266zM396 105q81 0 136 60t55 176q0 115 -58 184.5t-144 69.5q-81 0 -136.5 -60t-55.5 -176q0 -115 58.5 -184.5t144.5 -69.5zM409 861l-126 -96q-14 -11 -26 -11t-22 11 l-39 42l109 112q15 15 27 15q16 0 31 -12q25 -19 46 -61zM604 861l-125 -96q-15 -11 -26 -11q-12 0 -23 11l-39 42l109 112q15 15 28 15q16 0 30 -12q25 -19 46 -61z" />
<glyph unicode="&#x151;" horiz-adv-x="633" d="M317 546q113 0 191.5 -75t78.5 -204t-78.5 -204t-191.5 -75t-191.5 75t-78.5 204t78.5 204t191.5 75zM321 96q58 0 94.5 42t36.5 123q0 82 -40 129.5t-99 47.5q-58 0 -95 -42t-37 -123q0 -82 40.5 -129.5t99.5 -47.5zM335 687l-126 -96q-14 -11 -26 -11t-22 11l-39 42 l109 112q15 15 27 15q16 0 31 -12q25 -19 46 -61zM530 687l-125 -96q-15 -11 -26 -11q-12 0 -23 11l-39 42l109 112q15 15 28 15q16 0 30 -12q25 -19 46 -61z" />
<glyph unicode="&#x152;" horiz-adv-x="1001" d="M949 0h-263q-92 0 -136 44q-71 -56 -177 -56q-137 0 -229.5 97t-92.5 265q0 165 92.5 263.5t226.5 98.5q79 0 131 -40v28h411q29 0 29 -36q0 -38 -10 -80h-290v-178h219q27 0 27 -34v-81h-246v-75q0 -56 15.5 -78.5t51.5 -22.5h214q27 0 27 -34v-81zM506 136q-5 26 -5 71 v354q-46 33 -117 33q-81 0 -136 -60t-55 -176q0 -115 58 -184t144 -69q69 0 111 31z" />
<glyph unicode="&#x153;" horiz-adv-x="988" d="M721 441q-55 0 -90 -34t-43 -94h223q7 15 7 35q0 43 -25.5 68t-71.5 25zM321 96q58 0 94.5 42t36.5 123q0 82 -40 129.5t-99 47.5q-58 0 -95 -42t-37 -123q0 -82 40.5 -129.5t99.5 -47.5zM520 94q-67 -106 -208 -106q-111 0 -188 75t-77 204t77 204t188 75 q66 0 121 -27.5t87 -78.5q68 106 208 106q97 0 157.5 -56t60.5 -142q0 -51 -19 -87q-22 -42 -81 -42h-257q9 -61 52.5 -93.5t109.5 -32.5q72 0 127 29q18 -26 18 -55q0 -27 -49.5 -53t-122.5 -26q-66 0 -119.5 27.5t-84.5 78.5z" />
<glyph unicode="&#x154;" horiz-adv-x="657" d="M526 -12q-37 0 -67 16t-63 56q-49 61 -89 149q-51 2 -83 13v-222h-106q-34 0 -34 26v674h220q131 0 206 -65.5t75 -180.5q0 -80 -38.5 -136.5t-105.5 -83.5q37 -60 72 -97q38 -38 75 -38h20q8 -24 8 -51q0 -24 -23.5 -42t-66.5 -18zM224 584v-251q29 -7 70 -7 q68 0 107.5 32.5t39.5 95.5t-38.5 96.5t-108.5 33.5h-70zM414 861l-126 -96q-14 -11 -26 -11t-22 11l-39 42l109 112q15 15 27 15q19 0 31 -12q26 -25 46 -61z" />
<glyph unicode="&#x155;" horiz-adv-x="479" d="M359 544q45 0 77.5 -13t32.5 -41q0 -19 -18.5 -40.5t-43.5 -36.5q-33 25 -83 25q-92 0 -117 -108v-330h-99q-34 0 -34 26v503q43 12 95 12q38 0 38 -30v-53q22 39 62.5 62.5t89.5 23.5zM384 687l-126 -96q-14 -11 -26 -11t-22 11l-39 42l109 112q15 15 27 15q19 0 31 -12 q26 -25 46 -61z" />
<glyph unicode="&#x156;" horiz-adv-x="657" d="M526 -12q-37 0 -67 16t-63 56q-49 61 -89 149q-51 2 -83 13v-222h-106q-34 0 -34 26v674h220q131 0 206 -65.5t75 -180.5q0 -80 -38.5 -136.5t-105.5 -83.5q37 -60 72 -97q38 -38 75 -38h20q8 -24 8 -51q0 -24 -23.5 -42t-66.5 -18zM224 584v-251q29 -7 70 -7 q68 0 107.5 32.5t39.5 95.5t-38.5 96.5t-108.5 33.5h-70zM408 -110q0 -63 -43 -113q-21 -25 -43.5 -39t-31.5 -10q-17 10 -22 30q38 34 47 72q-22 6 -35.5 23.5t-13.5 42.5q0 28 20.5 46.5t49.5 18.5q30 0 51 -20t21 -51z" />
<glyph unicode="&#x157;" horiz-adv-x="479" d="M359 544q45 0 77.5 -13t32.5 -41q0 -19 -18.5 -40.5t-43.5 -36.5q-33 25 -83 25q-92 0 -117 -108v-330h-99q-34 0 -34 26v503q43 12 95 12q38 0 38 -30v-53q22 39 62.5 62.5t89.5 23.5zM214 -110q0 -63 -43 -113q-21 -25 -43.5 -39t-31.5 -10q-17 10 -22 30q38 34 47 72 q-22 6 -35.5 23.5t-13.5 42.5q0 28 20.5 46.5t49.5 18.5q30 0 51 -20t21 -51z" />
<glyph unicode="&#x158;" horiz-adv-x="657" d="M526 -12q-37 0 -67 16t-63 56q-49 61 -89 149q-51 2 -83 13v-222h-106q-34 0 -34 26v674h220q131 0 206 -65.5t75 -180.5q0 -80 -38.5 -136.5t-105.5 -83.5q37 -60 72 -97q38 -38 75 -38h20q8 -24 8 -51q0 -24 -23.5 -42t-66.5 -18zM224 584v-251q29 -7 70 -7 q68 0 107.5 32.5t39.5 95.5t-38.5 96.5t-108.5 33.5h-70zM258 770l-111 103q32 58 60 58q13 0 24 -11l76 -76l91 91l43 -39q15 -15 15 -24q0 -10 -12 -20l-106 -99h-37q-25 0 -43 17z" />
<glyph unicode="&#x159;" horiz-adv-x="479" d="M359 544q45 0 77.5 -13t32.5 -41q0 -19 -18.5 -40.5t-43.5 -36.5q-33 25 -83 25q-92 0 -117 -108v-330h-99q-34 0 -34 26v503q43 12 95 12q38 0 38 -30v-53q22 39 62.5 62.5t89.5 23.5zM213 596l-111 103q32 58 60 58q13 0 24 -11l76 -76l91 91l43 -39q15 -15 15 -24 q0 -10 -12 -20l-106 -99h-37q-25 0 -43 17z" />
<glyph unicode="&#x15a;" horiz-adv-x="601" d="M280 105q64 0 96 20t32 56q0 35 -28 57.5t-101 43.5q-223 63 -223 227q0 90 66.5 146.5t173.5 56.5q81 0 142 -32.5t90 -79.5q13 -20 13 -39q0 -22 -24 -35q-36 -18 -96 -24q-31 93 -123 93q-44 0 -72 -23t-28 -60t33 -63.5t116 -50.5q104 -31 153.5 -82.5t49.5 -128.5 q0 -89 -67.5 -144t-184.5 -55q-90 0 -153 30t-63 62q0 34 20 63q79 -38 178 -38zM406 861l-126 -96q-14 -11 -26 -11t-22 11l-39 42l109 112q15 15 27 15q19 0 31 -12q26 -25 46 -61z" />
<glyph unicode="&#x15b;" horiz-adv-x="505" d="M446 458q9 -16 9 -30q0 -18 -22 -31q-38 -22 -82 -25q-10 33 -34 51t-57 18q-34 0 -52.5 -15t-18.5 -38q0 -29 23 -46t77 -31q88 -23 129 -62t41 -102q0 -72 -53.5 -115.5t-150.5 -43.5q-74 0 -129.5 26.5t-55.5 55.5q0 35 19 57q68 -34 148 -34q89 0 89 49q0 23 -17 37 t-63 24q-190 43 -190 183q0 71 54.5 115.5t144.5 44.5q65 0 116 -23.5t75 -64.5zM359 687l-126 -96q-14 -11 -26 -11t-22 11l-39 42l109 112q15 15 27 15q19 0 31 -12q26 -25 46 -61z" />
<glyph unicode="&#x15c;" horiz-adv-x="601" d="M280 105q64 0 96 20t32 56q0 35 -28 57.5t-101 43.5q-223 63 -223 227q0 90 66.5 146.5t173.5 56.5q81 0 142 -32.5t90 -79.5q13 -20 13 -39q0 -22 -24 -35q-36 -18 -96 -24q-31 93 -123 93q-44 0 -72 -23t-28 -60t33 -63.5t116 -50.5q104 -31 153.5 -82.5t49.5 -128.5 q0 -89 -67.5 -144t-184.5 -55q-90 0 -153 30t-63 62q0 34 20 63q79 -38 178 -38zM338 914l114 -106l-34 -38q-14 -17 -29 -17t-30 15l-70 72l-88 -88q-39 18 -54 35q-11 13 -11 22t5 13l117 109h36q24 0 44 -17z" />
<glyph unicode="&#x15d;" horiz-adv-x="505" d="M446 458q9 -16 9 -30q0 -18 -22 -31q-38 -22 -82 -25q-10 33 -34 51t-57 18q-34 0 -52.5 -15t-18.5 -38q0 -29 23 -46t77 -31q88 -23 129 -62t41 -102q0 -72 -53.5 -115.5t-150.5 -43.5q-74 0 -129.5 26.5t-55.5 55.5q0 35 19 57q68 -34 148 -34q89 0 89 49q0 23 -17 37 t-63 24q-190 43 -190 183q0 71 54.5 115.5t144.5 44.5q65 0 116 -23.5t75 -64.5zM296 740l114 -106l-34 -38q-14 -17 -29 -17t-30 15l-70 72l-88 -88q-39 18 -54 35q-11 13 -11 22t5 13l117 109h36q24 0 44 -17z" />
<glyph unicode="&#x15e;" horiz-adv-x="601" d="M309 -241q-43 0 -74 10v50q0 21 21 21q5 0 17.5 -2.5t19.5 -2.5q39 0 39 29q0 35 -69 41q-13 7 -13 13q0 2 2 6l34 64q-86 2 -145 31.5t-59 60.5q0 34 20 63q79 -38 178 -38q64 0 96 20t32 56q0 35 -28 57.5t-101 43.5q-223 63 -223 227q0 90 66.5 146.5t173.5 56.5 q81 0 142 -32.5t90 -79.5q13 -20 13 -39q0 -22 -24 -35q-36 -18 -96 -24q-31 93 -123 93q-44 0 -72 -23t-28 -60t33 -63.5t116 -50.5q104 -31 153.5 -82.5t49.5 -128.5q0 -69 -41.5 -119t-117.5 -69l-31 -59q34 -7 54.5 -28.5t20.5 -52.5q0 -45 -35 -72.5t-91 -27.5z" />
<glyph unicode="&#x15f;" horiz-adv-x="505" d="M249 -241q-43 0 -74 10v50q0 21 21 21q5 0 17.5 -2.5t19.5 -2.5q39 0 39 29q0 35 -69 41q-13 7 -13 13q0 2 2 6l34 66q-65 5 -110.5 29.5t-45.5 50.5q0 35 19 57q68 -34 148 -34q89 0 89 49q0 23 -17 37t-63 24q-190 43 -190 183q0 71 54.5 115.5t144.5 44.5 q65 0 116 -23.5t75 -64.5q9 -16 9 -30q0 -18 -22 -31q-38 -22 -82 -25q-10 33 -34 51t-57 18q-34 0 -52.5 -15t-18.5 -38q0 -29 23 -46t77 -31q88 -23 129 -62t41 -102q0 -56 -33.5 -96t-95.5 -55l-30 -56q34 -7 54.5 -28.5t20.5 -52.5q0 -45 -35 -72.5t-91 -27.5z" />
<glyph unicode="&#x160;" horiz-adv-x="601" d="M280 105q64 0 96 20t32 56q0 35 -28 57.5t-101 43.5q-223 63 -223 227q0 90 66.5 146.5t173.5 56.5q81 0 142 -32.5t90 -79.5q13 -20 13 -39q0 -22 -24 -35q-36 -18 -96 -24q-31 93 -123 93q-44 0 -72 -23t-28 -60t33 -63.5t116 -50.5q104 -31 153.5 -82.5t49.5 -128.5 q0 -89 -67.5 -144t-184.5 -55q-90 0 -153 30t-63 62q0 34 20 63q79 -38 178 -38zM246 770l-111 103q32 58 60 58q13 0 24 -11l76 -76l91 91l43 -39q15 -15 15 -24q0 -10 -12 -20l-106 -99h-37q-25 0 -43 17z" />
<glyph unicode="&#x161;" horiz-adv-x="505" d="M446 458q9 -16 9 -30q0 -18 -22 -31q-38 -22 -82 -25q-10 33 -34 51t-57 18q-34 0 -52.5 -15t-18.5 -38q0 -29 23 -46t77 -31q88 -23 129 -62t41 -102q0 -72 -53.5 -115.5t-150.5 -43.5q-74 0 -129.5 26.5t-55.5 55.5q0 35 19 57q68 -34 148 -34q89 0 89 49q0 23 -17 37 t-63 24q-190 43 -190 183q0 71 54.5 115.5t144.5 44.5q65 0 116 -23.5t75 -64.5zM203 596l-111 103q32 58 60 58q13 0 24 -11l76 -76l91 91l43 -39q15 -15 15 -24q0 -10 -12 -20l-106 -99h-37q-25 0 -43 17z" />
<glyph unicode="&#x162;" horiz-adv-x="623" d="M288 -241q-43 0 -74 10v50q0 21 21 21q5 0 17.5 -2.5t19.5 -2.5q39 0 39 29q0 35 -69 41q-13 7 -13 13q0 2 2 6l40 76q-30 1 -30 26v558h-175q-29 0 -29 35q0 34 9 81h512q27 0 27 -34v-82h-204v-584h-10l-32 -60q34 -7 54.5 -28.5t20.5 -52.5q0 -45 -35 -72.5t-91 -27.5 z" />
<glyph unicode="&#x163;" horiz-adv-x="464" d="M250 -241q-43 0 -74 10v50q0 21 21 21q5 0 17.5 -2.5t19.5 -2.5q39 0 39 29q0 35 -69 41q-13 7 -13 13q0 2 2 6l38 73q-113 34 -113 187v243h-62q-28 0 -28 35q0 43 8 72h82v148q42 12 94 12q39 0 39 -30v-130h146q27 0 27 -34v-73h-173v-249q0 -83 82 -83q45 0 76 14 q18 -22 18 -54q0 -23 -27 -41.5t-73 -23.5l-26 -50q34 -7 54.5 -28.5t20.5 -52.5q0 -45 -35 -72.5t-91 -27.5z" />
<glyph unicode="&#x164;" horiz-adv-x="623" d="M381 0h-106q-34 0 -34 26v558h-175q-29 0 -29 35q0 34 9 81h512q27 0 27 -34v-82h-204v-584zM261 770l-111 103q32 58 60 58q13 0 24 -11l76 -76l91 91l43 -39q15 -15 15 -24q0 -10 -12 -20l-106 -99h-37q-25 0 -43 17z" />
<glyph unicode="&#x165;" horiz-adv-x="633" d="M297 -12q-82 0 -130.5 51.5t-48.5 146.5v241h-61q-29 0 -29 35q0 38 8 72h82v148q44 12 95 12q39 0 39 -30v-130h146q27 0 27 -34v-73h-173v-248q0 -83 82 -83q45 0 76 14q18 -22 18 -54q0 -25 -36.5 -46.5t-94.5 -21.5zM545 742q33 0 56.5 -23t23.5 -62q0 -84 -56 -151 q-22 -27 -46.5 -41t-33.5 -10q-17 8 -24 32q51 48 60 101q-24 8 -39.5 28.5t-15.5 50.5q0 35 21 55t54 20z" />
<glyph unicode="&#x166;" horiz-adv-x="623" d="M381 0h-106q-34 0 -34 26v284h-93q-26 0 -26 24q0 26 5 51h114v199h-175q-29 0 -29 35q0 41 9 81h512q27 0 27 -34v-82h-204v-199h93q25 0 25 -32v-43h-118v-310z" />
<glyph unicode="&#x167;" horiz-adv-x="464" d="M387 232h-136v-54q0 -83 82 -83q45 0 76 14q18 -22 18 -54q0 -28 -36 -47.5t-95 -19.5q-88 0 -133 51.5t-45 144.5v48h-42q-27 0 -27 24q0 28 6 51h63v120h-62q-28 0 -28 35q0 43 8 72h82v148q42 12 94 12q39 0 39 -30v-130h146q27 0 27 -34v-73h-173v-120h111 q25 0 25 -32v-43z" />
<glyph unicode="&#x168;" horiz-adv-x="721" d="M79 294v401q47 13 101 13q40 0 40 -30v-395q0 -83 37.5 -130.5t103.5 -47.5t103.5 47.5t37.5 130.5v417h106q34 0 34 -27v-379q0 -142 -74.5 -224t-206.5 -82t-207 82t-75 224zM214 836q23 69 85 69q37 0 65 -22q26 -21 37 -21q19 0 26 48l62 -17q21 -6 21 -24 q0 -43 -26.5 -69.5t-64.5 -26.5q-35 0 -63 22q-27 21 -38 21q-20 0 -26 -43q-34 0 -62 11q-20 8 -20 25q0 11 4 27z" />
<glyph unicode="&#x169;" horiz-adv-x="619" d="M552 507v-280q0 -111 -66.5 -175t-175.5 -64q-112 0 -177.5 61.5t-65.5 177.5v302q43 12 95 12q38 0 38 -30v-291q0 -56 30.5 -89t79.5 -33q48 0 78.5 33t30.5 89v314h99q34 0 34 -27zM163 661q23 69 85 69q37 0 65 -22q26 -21 37 -21q19 0 26 48l62 -17q21 -6 21 -24 q0 -43 -26.5 -69.5t-64.5 -26.5q-35 0 -63 22q-27 21 -38 21q-20 0 -26 -43q-35 0 -62 11q-20 8 -20 25q0 11 4 27z" />
<glyph unicode="&#x16a;" horiz-adv-x="721" d="M79 294v401q47 13 101 13q40 0 40 -30v-395q0 -83 37.5 -130.5t103.5 -47.5t103.5 47.5t37.5 130.5v417h106q34 0 34 -27v-379q0 -142 -74.5 -224t-206.5 -82t-207 82t-75 224zM228 884h247q24 0 24 -30v-57h-253q-26 0 -26 32q0 23 8 55z" />
<glyph unicode="&#x16b;" horiz-adv-x="619" d="M552 507v-280q0 -111 -66.5 -175t-175.5 -64q-112 0 -177.5 61.5t-65.5 177.5v302q43 12 95 12q38 0 38 -30v-291q0 -56 30.5 -89t79.5 -33q48 0 78.5 33t30.5 89v314h99q34 0 34 -27zM177 709h247q24 0 24 -30v-57h-253q-26 0 -26 32q0 23 8 55z" />
<glyph unicode="&#x16c;" horiz-adv-x="721" d="M79 294v401q47 13 101 13q40 0 40 -30v-395q0 -83 37.5 -130.5t103.5 -47.5t103.5 47.5t37.5 130.5v417h106q34 0 34 -27v-379q0 -142 -74.5 -224t-206.5 -82t-207 82t-75 224zM310 898q9 -55 50 -55q48 0 54 77h65q17 0 24 -5.5t5 -17.5q-6 -58 -44.5 -95.5 t-103.5 -37.5q-58 0 -99 34.5t-50 101.5q32 21 68 21q27 0 31 -23z" />
<glyph unicode="&#x16d;" horiz-adv-x="619" d="M552 507v-280q0 -111 -66.5 -175t-175.5 -64q-112 0 -177.5 61.5t-65.5 177.5v302q43 12 95 12q38 0 38 -30v-291q0 -56 30.5 -89t79.5 -33q48 0 78.5 33t30.5 89v314h99q34 0 34 -27zM259 723q9 -55 50 -55q48 0 54 77h65q17 0 24 -5.5t5 -17.5q-6 -58 -44.5 -95.5 t-103.5 -37.5q-58 0 -99 34.5t-50 101.5q32 21 68 21q27 0 31 -23z" />
<glyph unicode="&#x16e;" horiz-adv-x="721" d="M79 294v401q47 13 101 13q40 0 40 -30v-395q0 -83 37.5 -130.5t103.5 -47.5t103.5 47.5t37.5 130.5v417h106q34 0 34 -27v-379q0 -142 -74.5 -224t-206.5 -82t-207 82t-75 224zM360 936q43 0 70.5 -27t27.5 -67t-27.5 -67t-70.5 -27t-70.5 27t-27.5 67t27.5 67t70.5 27z M362 806q14 0 23 9.5t9 25.5t-10.5 26.5t-25.5 10.5q-14 0 -23 -9t-9 -25t10.5 -27t25.5 -11z" />
<glyph unicode="&#x16f;" horiz-adv-x="619" d="M552 507v-280q0 -111 -66.5 -175t-175.5 -64q-112 0 -177.5 61.5t-65.5 177.5v302q43 12 95 12q38 0 38 -30v-291q0 -56 30.5 -89t79.5 -33q48 0 78.5 33t30.5 89v314h99q34 0 34 -27zM309 762q43 0 70.5 -27t27.5 -67t-27.5 -67t-70.5 -27t-70.5 27t-27.5 67t27.5 67 t70.5 27zM311 632q14 0 23 9.5t9 25.5t-10.5 26.5t-25.5 10.5q-14 0 -23 -9t-9 -25t10.5 -27t25.5 -11z" />
<glyph unicode="&#x170;" horiz-adv-x="721" d="M79 294v401q47 13 101 13q40 0 40 -30v-395q0 -83 37.5 -130.5t103.5 -47.5t103.5 47.5t37.5 130.5v417h106q34 0 34 -27v-379q0 -142 -74.5 -224t-206.5 -82t-207 82t-75 224zM389 861l-126 -96q-14 -11 -26 -11t-22 11l-39 42l109 112q15 15 27 15q16 0 31 -12 q25 -19 46 -61zM584 861l-125 -96q-15 -11 -26 -11q-12 0 -23 11l-39 42l109 112q15 15 28 15q16 0 30 -12q25 -19 46 -61z" />
<glyph unicode="&#x171;" horiz-adv-x="619" d="M552 507v-280q0 -111 -66.5 -175t-175.5 -64q-112 0 -177.5 61.5t-65.5 177.5v302q43 12 95 12q38 0 38 -30v-291q0 -56 30.5 -89t79.5 -33q48 0 78.5 33t30.5 89v314h99q34 0 34 -27zM333 687l-126 -96q-14 -11 -26 -11t-22 11l-39 42l109 112q15 15 27 15q16 0 31 -12 q25 -19 46 -61zM528 687l-125 -96q-15 -11 -26 -11q-12 0 -23 11l-39 42l109 112q15 15 28 15q16 0 30 -12q25 -19 46 -61z" />
<glyph unicode="&#x172;" horiz-adv-x="721" d="M456 -140q26 9 26 -19v-51q-29 -17 -77 -17q-57 0 -88.5 29t-31.5 74q0 65 57 113q-124 6 -193.5 87t-69.5 218v401q47 13 101 13q40 0 40 -30v-395q0 -83 37.5 -130.5t103.5 -47.5t103.5 47.5t37.5 130.5v417h106q34 0 34 -27v-379q0 -112 -48 -188t-135 -104 q-32 -22 -51.5 -52t-19.5 -57q0 -38 42 -38q14 0 26 5z" />
<glyph unicode="&#x173;" horiz-adv-x="619" d="M404 -140q26 9 26 -19v-51q-29 -17 -77 -17q-57 0 -88.5 29t-31.5 74q0 65 57 113q-103 5 -163 66t-60 172v302q43 12 95 12q38 0 38 -30v-291q0 -56 30.5 -89t79.5 -33q48 0 78.5 33t30.5 89v314h99q34 0 34 -27v-280q0 -81 -37 -138.5t-102 -82.5q-33 -23 -55 -55 t-22 -58q0 -38 42 -38q14 0 26 5z" />
<glyph unicode="&#x174;" horiz-adv-x="1122" d="M871 30q-12 -30 -58 -30h-106l-142 525q-53 -254 -158 -495q-13 -30 -58 -30h-101l-206 668q62 40 107 40q31 0 39 -27l144 -520q92 215 148 539h109q49 0 58 -33l138 -506q94 224 149 539h95q27 0 38 -10.5t7 -30.5q-56 -286 -203 -629zM613 914l114 -106l-34 -38 q-14 -17 -29 -17t-30 15l-70 72l-88 -88q-39 18 -54 35q-11 13 -11 22t5 13l117 109h36q24 0 44 -17z" />
<glyph unicode="&#x175;" horiz-adv-x="877" d="M704 534h88q22 0 33 -11t8 -29q-40 -238 -139 -467q-11 -27 -51 -27h-107l-94 385q-30 -193 -97 -360q-11 -25 -49 -25h-103l-153 503q55 38 99 38q28 0 35 -24l97 -382q63 169 94 399h101q44 0 52 -35l92 -364q61 166 94 399zM491 740l114 -106l-34 -38q-14 -17 -29 -17 t-30 15l-70 72l-88 -88q-39 18 -54 35q-11 13 -11 22t5 13l117 109h36q24 0 44 -17z" />
<glyph unicode="&#x176;" horiz-adv-x="671" d="M262 26v212l-231 408q54 61 104 61q20 0 31 -20l170 -322q116 170 166 335h101q20 0 29.5 -11t4.5 -29q-56 -191 -235 -418v-242h-106q-34 0 -34 26zM384 914l114 -106l-34 -38q-14 -17 -29 -17t-30 15l-70 72l-88 -88q-39 18 -54 35q-11 13 -11 22t5 13l117 109h36 q24 0 44 -17z" />
<glyph unicode="&#x177;" horiz-adv-x="629" d="M278 -248q-92 0 -146 39.5t-54 99.5q0 35 22 67.5t62 53.5q-90 51 -90 201v314q44 12 95 12q38 0 38 -30v-299q0 -115 97 -115q68 0 119 46v393h99q34 0 34 -27v-506q0 -104 -71.5 -176.5t-204.5 -72.5zM275 -10q-12 0 -26 2q-38 -33 -38 -79q0 -26 19 -41t55 -15 q58 0 97 36t39 101v64q-60 -65 -146 -68zM361 740l114 -106l-34 -38q-14 -17 -29 -17t-30 15l-70 72l-88 -88q-39 18 -54 35q-11 13 -11 22t5 13l117 109h36q24 0 44 -17z" />
<glyph unicode="&#x178;" horiz-adv-x="671" d="M262 26v212l-231 408q54 61 104 61q20 0 31 -20l170 -322q116 170 166 335h101q20 0 29.5 -11t4.5 -29q-56 -191 -235 -418v-242h-106q-34 0 -34 26zM243 781q-28 0 -48.5 20t-20.5 52q0 30 18 48t46 18t48.5 -20t20.5 -52q0 -30 -18 -48t-46 -18zM434 781 q-28 0 -48.5 20t-20.5 52q0 30 18 48t46 18t48.5 -20t20.5 -52q0 -30 -18 -48t-46 -18z" />
<glyph unicode="&#x179;" horiz-adv-x="622" d="M79 700h420q31 0 46 -23q16 -29 22 -66l-331 -496h311q27 0 27 -34v-81h-455q-31 0 -46 23q-16 29 -22 66l331 495h-283q-29 0 -29 35q0 34 9 81zM437 861l-126 -96q-14 -11 -26 -11t-22 11l-39 42l109 112q15 15 27 15q19 0 31 -12q26 -25 46 -61z" />
<glyph unicode="&#x17a;" horiz-adv-x="513" d="M475 0h-361q-32 0 -49 27q-11 18 -19 57l250 343h-212q-29 0 -29 35q0 40 9 72h336q31 0 47 -24q16 -26 21 -61l-249 -341h229q27 0 27 -34v-74zM378 687l-126 -96q-14 -11 -26 -11t-22 11l-39 42l109 112q15 15 27 15q19 0 31 -12q26 -25 46 -61z" />
<glyph unicode="&#x17b;" horiz-adv-x="622" d="M79 700h420q31 0 46 -23q16 -29 22 -66l-331 -496h311q27 0 27 -34v-81h-455q-31 0 -46 23q-16 29 -22 66l331 495h-283q-29 0 -29 35q0 34 9 81zM310 772q-28 0 -48 20t-20 52q0 30 18 48t46 18t48 -20t20 -52q0 -30 -18 -48t-46 -18z" />
<glyph unicode="&#x17c;" horiz-adv-x="513" d="M475 0h-361q-32 0 -49 27q-11 18 -19 57l250 343h-212q-29 0 -29 35q0 40 9 72h336q31 0 47 -24q16 -26 21 -61l-249 -341h229q27 0 27 -34v-74zM255 598q-28 0 -48 20t-20 52q0 30 18 48t46 18t48 -20t20 -52q0 -30 -18 -48t-46 -18z" />
<glyph unicode="&#x17d;" horiz-adv-x="622" d="M79 700h420q31 0 46 -23q16 -29 22 -66l-331 -496h311q27 0 27 -34v-81h-455q-31 0 -46 23q-16 29 -22 66l331 495h-283q-29 0 -29 35q0 34 9 81zM267 770l-111 103q32 58 60 58q13 0 24 -11l76 -76l91 91l43 -39q15 -15 15 -24q0 -10 -12 -20l-106 -99h-37q-25 0 -43 17 z" />
<glyph unicode="&#x17e;" horiz-adv-x="513" d="M475 0h-361q-32 0 -49 27q-11 18 -19 57l250 343h-212q-29 0 -29 35q0 40 9 72h336q31 0 47 -24q16 -26 21 -61l-249 -341h229q27 0 27 -34v-74zM211 596l-111 103q32 58 60 58q13 0 24 -11l76 -76l91 91l43 -39q15 -15 15 -24q0 -10 -12 -20l-106 -99h-37q-25 0 -43 17z " />
<glyph unicode="&#x17f;" horiz-adv-x="446" d="M124 534v28q0 89 46 134.5t128 45.5q54 0 98 -21.5t44 -42.5q0 -33 -18 -56q-33 13 -85 13q-43 0 -61.5 -17t-18.5 -58v-560h-99q-34 0 -34 26v401h-68q-28 0 -28 35q0 44 8 72h88z" />
<glyph unicode="&#x191;" horiz-adv-x="557" d="M84 2v698h410q29 0 29 -36q0 -42 -9 -80h-290v-192h218q27 0 27 -34v-82h-245v-280q0 -107 -64 -176q-50 -53 -96 -53q-16 0 -32.5 14.5t-24.5 37.5q77 79 77 183z" />
<glyph unicode="&#x192;" horiz-adv-x="446" d="M124 -65v492h-68q-28 0 -28 35q0 44 8 72h88v28q0 89 46 134.5t128 45.5q54 0 98 -21.5t44 -42.5q0 -33 -18 -56q-33 13 -85 13q-43 0 -61.5 -17t-18.5 -58v-26h140q27 0 27 -34v-73h-167v-494q0 -89 -46 -134.5t-128 -45.5q-54 0 -98 21.5t-44 42.5q0 33 18 56 q33 -13 85 -13q43 0 61.5 17t18.5 58z" />
<glyph unicode="&#x1fa;" horiz-adv-x="689" d="M163 0h-108q-19 0 -27 9.5t-3 25.5l236 649l11 4q-26 26 -26 64q0 40 27.5 67t70.5 27t70.5 -27t27.5 -67q0 -35 -24 -62q11 -11 16 -25l242 -665h-114q-36 0 -44 24l-43 128h-262zM439 265l-95 285l-94 -285h189zM433 939l-94 -71q-12 -9 -22 -9q-9 0 -18 9l-33 35 l86 89q7 8 18 8q12 0 22 -9q24 -22 41 -52zM345 716q15 0 24 9t9 25q0 17 -10.5 27.5t-25.5 10.5q-14 0 -23.5 -9t-9.5 -25q0 -17 10.5 -27.5t25.5 -10.5z" />
<glyph unicode="&#x1fb;" horiz-adv-x="599" d="M243 442q-75 0 -138 -31q-16 22 -16 53q0 28 57 55t134 27q111 0 170.5 -54.5t59.5 -160.5v-185q0 -49 36 -49h23q7 -25 7 -45q0 -22 -24.5 -40.5t-62.5 -18.5q-34 0 -62 20t-40 59q-53 -84 -161 -84q-78 0 -129.5 48t-51.5 122q0 81 57.5 127.5t154.5 46.5q74 0 120 -24 v33q0 101 -134 101zM262 92q36 0 68 19.5t47 54.5v59q-32 12 -94 12q-50 0 -77.5 -20t-27.5 -55q0 -34 23.5 -52t60.5 -18zM289 759q43 0 71 -27t28 -67t-28 -67t-71 -27t-70.5 27t-27.5 67t27.5 67t70.5 27zM291 629q15 0 24 9.5t9 24.5q0 17 -10.5 27.5t-25.5 10.5 q-14 0 -23.5 -9.5t-9.5 -24.5q0 -17 10.5 -27.5t25.5 -10.5zM378 854l-94 -71q-12 -9 -22 -9q-9 0 -18 9l-33 35l86 89q7 8 18 8q12 0 22 -9q24 -22 41 -52z" />
<glyph unicode="&#x1fc;" horiz-adv-x="912" d="M443 700h380q29 0 29 -36q0 -38 -10 -80h-290v-178h219q27 0 27 -34v-81h-246v-120q0 -56 67 -56h214q27 0 27 -34v-81h-263q-85 0 -132 40.5t-47 112.5h-193l-69 -153h-109q-18 0 -28 10.5t-2 26.5l307 636q51 27 119 27zM412 265v294l-135 -294h135zM692 861l-126 -96 q-14 -11 -26 -11t-22 11l-39 42l109 112q15 15 27 15q19 0 31 -12q26 -25 46 -61z" />
<glyph unicode="&#x1fd;" horiz-adv-x="912" d="M647 -12q-64 0 -119 26.5t-90 72.5q-27 -45 -76.5 -72t-113.5 -27q-97 0 -150 47.5t-53 122.5q0 81 57.5 127.5t154.5 46.5q74 0 120 -24v33q0 101 -134 101q-75 0 -138 -31q-16 22 -16 53q0 28 56.5 55t134.5 27q131 0 183 -84q66 84 189 84q97 0 157.5 -56t60.5 -142 q0 -51 -19 -87q-12 -23 -30.5 -32.5t-50.5 -9.5h-258q10 -62 53 -94t109 -32q73 0 128 29q18 -26 18 -55q0 -27 -49.5 -53t-123.5 -26zM645 441q-55 0 -90.5 -34t-42.5 -94h222q8 15 8 35q0 43 -25.5 68t-71.5 25zM262 92q47 0 81 33.5t34 99.5q-32 12 -94 12 q-50 0 -77.5 -20t-27.5 -55q0 -34 23.5 -52t60.5 -18zM572 687l-126 -96q-14 -11 -26 -11t-22 11l-39 42l109 112q15 15 27 15q19 0 31 -12q26 -25 46 -61z" />
<glyph unicode="&#x1fe;" horiz-adv-x="781" d="M51 350q0 170 96.5 266t242.5 96q124 0 215 -74l57 62h52q28 0 28 -15q0 -7 -5 -12l-79 -87q71 -97 71 -236q0 -171 -96.5 -266.5t-242.5 -95.5q-128 0 -217 72l-55 -60h-54q-17 0 -23.5 9t3.5 20l78 85q-71 94 -71 236zM587 341q0 76 -29 137l-294 -319q56 -54 131 -54 q81 0 136.5 60t55.5 176zM193 358q0 -78 28 -137l293 319q-54 54 -130 54q-81 0 -136 -60t-55 -176zM508 861l-126 -96q-14 -11 -26 -11t-22 11l-39 42l109 112q15 15 27 15q19 0 31 -12q26 -25 46 -61z" />
<glyph unicode="&#x1ff;" horiz-adv-x="633" d="M515 534h47q20 0 26 -9t-4 -20l-55 -59q58 -73 58 -179q0 -129 -78.5 -204t-191.5 -75q-94 0 -163 51l-35 -39h-47q-20 0 -26.5 9t4.5 20l53 58q-56 74 -56 180q0 129 78.5 204t191.5 75q91 0 162 -51zM181 273q0 -45 15 -85l201 218q-37 32 -84 32q-58 0 -95 -42 t-37 -123zM321 96q58 0 94.5 42t36.5 123q0 47 -16 84l-201 -217q38 -32 86 -32zM433 687l-126 -96q-14 -11 -26 -11t-22 11l-39 42l109 112q15 15 27 15q19 0 31 -12q26 -25 46 -61z" />
<glyph unicode="&#x218;" horiz-adv-x="601" d="M280 105q64 0 96 20t32 56q0 35 -28 57.5t-101 43.5q-223 63 -223 227q0 90 66.5 146.5t173.5 56.5q81 0 142 -32.5t90 -79.5q13 -20 13 -39q0 -22 -24 -35q-36 -18 -96 -24q-31 93 -123 93q-44 0 -72 -23t-28 -60t33 -63.5t116 -50.5q104 -31 153.5 -82.5t49.5 -128.5 q0 -89 -67.5 -144t-184.5 -55q-90 0 -153 30t-63 62q0 34 20 63q79 -38 178 -38zM404 -110q0 -63 -43 -113q-21 -25 -43.5 -39t-31.5 -10q-17 10 -22 30q38 34 47 72q-22 6 -35.5 23.5t-13.5 42.5q0 28 20.5 46.5t49.5 18.5q30 0 51 -20t21 -51z" />
<glyph unicode="&#x219;" horiz-adv-x="505" d="M446 458q9 -16 9 -30q0 -18 -22 -31q-38 -22 -82 -25q-10 33 -34 51t-57 18q-34 0 -52.5 -15t-18.5 -38q0 -29 23 -46t77 -31q88 -23 129 -62t41 -102q0 -72 -53.5 -115.5t-150.5 -43.5q-74 0 -129.5 26.5t-55.5 55.5q0 35 19 57q68 -34 148 -34q89 0 89 49q0 23 -17 37 t-63 24q-190 43 -190 183q0 71 54.5 115.5t144.5 44.5q65 0 116 -23.5t75 -64.5zM345 -110q0 -63 -43 -113q-21 -25 -43.5 -39t-31.5 -10q-17 10 -22 30q38 34 47 72q-22 6 -35.5 23.5t-13.5 42.5q0 28 20.5 46.5t49.5 18.5q30 0 51 -20t21 -51z" />
<glyph unicode="&#x21a;" horiz-adv-x="623" d="M381 0h-106q-34 0 -34 26v558h-175q-29 0 -29 35q0 34 9 81h512q27 0 27 -34v-82h-204v-584zM383 -110q0 -63 -43 -113q-21 -25 -43.5 -39t-31.5 -10q-17 10 -22 30q38 34 47 72q-22 6 -35.5 23.5t-13.5 42.5q0 28 20.5 46.5t49.5 18.5q30 0 51 -20t21 -51z" />
<glyph unicode="&#x21b;" horiz-adv-x="464" d="M297 -12q-82 0 -130.5 51.5t-48.5 146.5v241h-61q-29 0 -29 35q0 38 8 72h82v148q44 12 95 12q39 0 39 -30v-130h146q27 0 27 -34v-73h-173v-248q0 -83 82 -83q45 0 76 14q18 -22 18 -54q0 -25 -36.5 -46.5t-94.5 -21.5zM349 -110q0 -63 -43 -113q-21 -25 -43.5 -39 t-31.5 -10q-17 10 -22 30q38 34 47 72q-22 6 -35.5 23.5t-13.5 42.5q0 28 20.5 46.5t49.5 18.5q30 0 51 -20t21 -51z" />
<glyph unicode="&#x237;" horiz-adv-x="287" d="M118 -165q-46 -34 -73 -34q-14 0 -26.5 14t-18.5 32q79 84 79 195v487q44 12 95 12q38 0 38 -30v-463q0 -141 -94 -213z" />
<glyph unicode="&#x2bc;" horiz-adv-x="420" d="M211 742q33 0 56.5 -23t23.5 -62q0 -84 -56 -151q-22 -27 -46.5 -41t-33.5 -10q-17 8 -24 32q51 48 60 101q-24 8 -39.5 28.5t-15.5 50.5q0 35 21 55t54 20z" />
<glyph unicode="&#x2c6;" horiz-adv-x="420" d="M257 720l114 -106l-34 -38q-14 -17 -29 -17t-30 15l-70 72l-88 -88q-39 18 -54 35q-11 13 -11 22t5 13l117 109h36q24 0 44 -17z" />
<glyph unicode="&#x2c7;" horiz-adv-x="420" d="M161 576l-111 103q32 58 60 58q13 0 24 -11l76 -76l91 91l43 -39q15 -15 15 -24q0 -10 -12 -20l-106 -99h-37q-25 0 -43 17z" />
<glyph unicode="&#x2c9;" horiz-adv-x="420" d="M78 690h247q24 0 24 -30v-57h-253q-26 0 -26 32q0 23 8 55z" />
<glyph unicode="&#x2d8;" horiz-adv-x="420" d="M160 703q9 -55 50 -55q48 0 54 77h65q17 0 24 -5.5t5 -17.5q-6 -58 -44.5 -95.5t-103.5 -37.5q-58 0 -99 34.5t-50 101.5q32 21 68 21q27 0 31 -23z" />
<glyph unicode="&#x2d9;" horiz-adv-x="420" d="M212 578q-28 0 -48 20t-20 52q0 30 18 48t46 18t48 -20t20 -52q0 -30 -18 -48t-46 -18z" />
<glyph unicode="&#x2da;" horiz-adv-x="420" d="M210 742q43 0 70.5 -27t27.5 -67t-27.5 -67t-70.5 -27t-70.5 27t-27.5 67t27.5 67t70.5 27zM212 612q14 0 23 9.5t9 25.5t-10.5 26.5t-25.5 10.5q-14 0 -23 -9t-9 -25t10.5 -27t25.5 -11z" />
<glyph unicode="&#x2db;" horiz-adv-x="420" d="M280 -140q26 9 26 -19v-51q-29 -17 -77 -17q-57 0 -88.5 29t-31.5 74q0 34 20 68.5t53 55.5h99q-69 -49 -69 -107q0 -38 42 -38q14 0 26 5z" />
<glyph unicode="&#x2dc;" horiz-adv-x="420" d="M63 642q23 69 85 69q37 0 65 -22q26 -21 37 -21q19 0 26 48l62 -17q21 -6 21 -24q0 -43 -26.5 -69.5t-64.5 -26.5q-35 0 -63 22q-27 21 -38 21q-20 0 -26 -43q-35 0 -62 11q-20 8 -20 25q0 11 4 27z" />
<glyph unicode="&#x2dd;" horiz-adv-x="420" d="M219 667l-126 -96q-14 -11 -26 -11t-22 11l-39 42l109 112q15 15 27 15q16 0 31 -12q25 -19 46 -61zM414 667l-125 -96q-15 -11 -26 -11q-12 0 -23 11l-39 42l109 112q15 15 28 15q16 0 30 -12q25 -19 46 -61z" />
<glyph unicode="&#x300;" horiz-adv-x="0" d="M-233 571l-125 96q17 33 46 61q14 12 30 12q13 0 28 -15l109 -112l-39 -42q-11 -11 -23 -11q-11 0 -26 11z" />
<glyph unicode="&#x301;" horiz-adv-x="0" d="M-145 667l-126 -96q-14 -11 -26 -11t-22 11l-39 42l109 112q15 15 27 15q19 0 31 -12q26 -25 46 -61z" />
<glyph unicode="&#x302;" horiz-adv-x="0" d="M-199 720l114 -106l-34 -38q-14 -17 -29 -17t-30 15l-70 72l-88 -88q-39 18 -54 35q-11 13 -11 22t5 13l117 109h36q24 0 44 -17z" />
<glyph unicode="&#x303;" horiz-adv-x="0" d="M-399 642q23 69 85 69q37 0 65 -22q26 -21 37 -21q19 0 26 48l62 -17q21 -6 21 -24q0 -43 -26.5 -69.5t-64.5 -26.5q-35 0 -63 22q-27 21 -38 21q-20 0 -26 -43q-35 0 -62 11q-20 8 -20 25q0 11 4 27z" />
<glyph unicode="&#x304;" horiz-adv-x="0" d="M-383 690h247q24 0 24 -30v-57h-253q-26 0 -26 32q0 23 8 55z" />
<glyph unicode="&#x306;" horiz-adv-x="0" d="M-302 703q9 -55 50 -55q48 0 54 77h65q17 0 24 -5.5t5 -17.5q-6 -58 -44.5 -95.5t-103.5 -37.5q-58 0 -99 34.5t-50 101.5q32 21 68 21q27 0 31 -23z" />
<glyph unicode="&#x307;" horiz-adv-x="0" d="M-249 578q-28 0 -48 20t-20 52q0 30 18 48t46 18t48 -20t20 -52q0 -30 -18 -48t-46 -18z" />
<glyph unicode="&#x308;" horiz-adv-x="0" d="M-344 578q-28 0 -48.5 20t-20.5 52q0 30 18 48t46 18t48.5 -20t20.5 -52q0 -30 -18 -48t-46 -18zM-153 578q-28 0 -48.5 20t-20.5 52q0 30 18 48t46 18t48.5 -20t20.5 -52q0 -30 -18 -48t-46 -18z" />
<glyph unicode="&#x30a;" horiz-adv-x="0" d="M-251 742q43 0 70.5 -27t27.5 -67t-27.5 -67t-70.5 -27t-70.5 27t-27.5 67t27.5 67t70.5 27zM-249 612q14 0 23 9.5t9 25.5t-10.5 26.5t-25.5 10.5q-14 0 -23 -9t-9 -25t10.5 -27t25.5 -11z" />
<glyph unicode="&#x30c;" horiz-adv-x="0" d="M-304 576l-111 103q32 58 60 58q13 0 24 -11l76 -76l91 91l43 -39q15 -15 15 -24q0 -10 -12 -20l-106 -99h-37q-25 0 -43 17z" />
<glyph unicode="&#x327;" horiz-adv-x="0" d="M-277 -241q-43 0 -74 10v50q0 21 21 21q5 0 17.5 -2.5t19.5 -2.5q39 0 39 29q0 35 -69 41q-13 7 -13 13q0 2 2 6l40 76h100l-32 -60q34 -7 54.5 -28.5t20.5 -52.5q0 -45 -35 -72.5t-91 -27.5z" />
<glyph unicode="&#x3a9;" horiz-adv-x="790" d="M723 81v-81h-290v71q0 29 29 48q130 88 130 239q0 114 -56.5 175t-141.5 61t-141 -61t-56 -175q0 -156 129 -239q30 -19 30 -48v-71h-261q-29 0 -29 35q0 43 9 80h114q-59 39 -96 107t-37 146q0 154 94.5 249t243.5 95q150 0 244.5 -95t94.5 -249q0 -78 -37 -146 t-96 -107h96q27 0 27 -34z" />
<glyph unicode="&#x400;" horiz-adv-x="582" d="M530 0h-263q-104 0 -144.5 53.5t-40.5 161.5v485h411q29 0 29 -36q0 -38 -10 -80h-290v-178h219q27 0 27 -34v-81h-246v-81q0 -55 15 -75t52 -20h214q27 0 27 -34v-81zM307 765l-125 96q17 33 46 61q14 12 30 12q13 0 28 -15l109 -112l-39 -42q-11 -11 -23 -11 q-11 0 -26 11z" />
<glyph unicode="&#x401;" horiz-adv-x="582" d="M530 0h-263q-104 0 -144.5 53.5t-40.5 161.5v485h411q29 0 29 -36q0 -38 -10 -80h-290v-178h219q27 0 27 -34v-81h-246v-81q0 -55 15 -75t52 -20h214q27 0 27 -34v-81zM205 772q-28 0 -48.5 20t-20.5 52q0 30 18 48t46 18t48.5 -20t20.5 -52q0 -30 -18 -48t-46 -18z M396 772q-28 0 -48.5 20t-20.5 52q0 30 18 48t46 18t48.5 -20t20.5 -52q0 -30 -18 -48t-46 -18z" />
<glyph unicode="&#x402;" horiz-adv-x="772" d="M710 213v-188q0 -107 -64 -176q-50 -53 -96 -53q-16 0 -32.5 14.5t-24.5 37.5q77 79 77 183v184q0 59 -21.5 86t-66.5 27q-58 0 -101 -36v-292h-106q-34 0 -34 26v558h-175q-29 0 -29 35q0 34 9 81h512q27 0 27 -34v-82h-204v-196q64 58 144 58q88 0 136.5 -60t48.5 -173 z" />
<glyph unicode="&#x403;" horiz-adv-x="557" d="M523 584h-299v-584h-106q-34 0 -34 26v674h412q27 0 27 -34v-82zM422 861l-126 -96q-14 -11 -26 -11t-22 11l-39 42l109 112q15 15 27 15q19 0 31 -12q26 -25 46 -61z" />
<glyph unicode="&#x404;" horiz-adv-x="695" d="M537 475q-44 120 -164 120q-70 0 -120.5 -51t-58.5 -142h265q27 0 27 -34v-79h-283q22 -87 88.5 -135.5t162.5 -48.5q92 0 160 36q20 -32 20 -63q0 -30 -63.5 -60t-144.5 -30q-163 0 -269 105t-106 277q0 156 93.5 249t234.5 93q94 0 165 -39t105 -105q8 -15 8 -32 q0 -20 -24 -34q-39 -24 -96 -27z" />
<glyph unicode="&#x405;" horiz-adv-x="601" d="M280 105q64 0 96 20t32 56q0 35 -28 57.5t-101 43.5q-223 63 -223 227q0 90 66.5 146.5t173.5 56.5q81 0 142 -32.5t90 -79.5q13 -20 13 -39q0 -22 -24 -35q-36 -18 -96 -24q-31 93 -123 93q-44 0 -72 -23t-28 -60t33 -63.5t116 -50.5q104 -31 153.5 -82.5t49.5 -128.5 q0 -89 -67.5 -144t-184.5 -55q-90 0 -153 30t-63 62q0 34 20 63q79 -38 178 -38z" />
<glyph unicode="&#x406;" horiz-adv-x="318" d="M229 0h-107q-34 0 -34 26v669q43 12 101 12q40 0 40 -30v-677z" />
<glyph unicode="&#x407;" horiz-adv-x="318" d="M229 0h-107q-34 0 -34 26v669q43 12 101 12q40 0 40 -30v-677zM66 772q-28 0 -48.5 20t-20.5 52q0 30 18 48t46 18t48.5 -20t20.5 -52q0 -30 -18 -48t-46 -18zM257 772q-28 0 -48.5 20t-20.5 52q0 30 18 48t46 18t48.5 -20t20.5 -52q0 -30 -18 -48t-46 -18z" />
<glyph unicode="&#x408;" horiz-adv-x="452" d="M174 -12q-63 0 -111.5 22.5t-48.5 48.5q0 33 18 64q49 -18 96 -18q103 0 103 107v483q42 12 101 12q39 0 39 -30v-452q0 -117 -45 -177t-152 -60z" />
<glyph unicode="&#x409;" horiz-adv-x="1118" d="M680 673v-237q61 27 146 27q112 0 180.5 -58.5t68.5 -164.5q0 -117 -78 -178.5t-217 -61.5h-36q-116 0 -160 54t-44 177v353h-183q-8 -221 -27 -345q-20 -136 -65.5 -193.5t-128.5 -57.5q-47 0 -87 22.5t-40 43.5q0 35 18 64q29 -13 69 -13q41 0 61 32.5t32 114.5 q30 212 30 448h427q34 0 34 -27zM791 349q-60 0 -111 -16v-99q0 -64 17 -91.5t60 -27.5h21q154 0 154 118q0 60 -35 88t-106 28z" />
<glyph unicode="&#x40a;" horiz-adv-x="1058" d="M480 293h-256v-293h-106q-34 0 -34 26v669q42 12 100 12q40 0 40 -30v-269h256v292h106q34 0 34 -27v-237q61 27 146 27q112 0 180.5 -58.5t68.5 -164.5q0 -117 -78 -178.5t-217 -61.5h-36q-116 0 -160 54t-44 177v62zM731 349q-60 0 -111 -16v-99q0 -64 17 -91.5 t60 -27.5h21q154 0 154 118q0 60 -35 88t-106 28z" />
<glyph unicode="&#x40b;" horiz-adv-x="797" d="M381 0h-106q-34 0 -34 26v558h-175q-29 0 -29 35q0 41 9 81h512q27 0 27 -34v-82h-204v-196q64 58 144 58q88 0 136.5 -60t48.5 -173v-64q0 -49 33 -49h26q6 -20 6 -33q0 -72 -89 -72q-56 0 -86 37.5t-30 126.5v44q0 67 -20 96t-68 29q-58 0 -101 -36v-292z" />
<glyph unicode="&#x40c;" horiz-adv-x="675" d="M607 597q-70 -112 -198 -221q80 -156 162 -241q30 -32 64 -32h18q9 -22 9 -55q0 -22 -26 -41t-65 -19q-65 0 -128 75q-71 87 -140 231q-39 -27 -79 -51v-243h-106q-34 0 -34 27v668q47 13 101 13q39 0 39 -30v-283q171 123 292 314q57 -18 79 -35.5t22 -41.5 q0 -18 -10 -35zM450 861l-126 -96q-14 -11 -26 -11t-22 11l-39 42l109 112q15 15 27 15q19 0 31 -12q26 -25 46 -61z" />
<glyph unicode="&#x40d;" horiz-adv-x="720" d="M84 32v663q42 12 100 12q40 0 40 -30v-438l275 448q11 20 38 20q43 0 98 -40v-667h-106q-34 0 -34 26v434l-275 -448q-12 -19 -38 -19q-18 0 -47 11.5t-51 27.5zM366 765l-125 96q17 33 46 61q13 12 30 12q13 0 28 -15l109 -112l-39 -42q-11 -11 -23 -11q-11 0 -26 11z " />
<glyph unicode="&#x40e;" horiz-adv-x="666" d="M264 0h-80q-21 0 -32.5 8.5t-11.5 21.5q0 9 8 19q54 71 119 175l-218 425q51 58 100 58q28 0 41 -27l154 -323q98 181 151 343h89q47 0 47 -32q0 -6 -3 -14q-52 -154 -152.5 -334.5t-211.5 -319.5zM289 898q9 -55 50 -55q48 0 54 77h65q17 0 24 -5.5t5 -17.5 q-6 -58 -44.5 -95.5t-103.5 -37.5q-58 0 -99 34.5t-50 101.5q32 21 68 21q27 0 31 -23z" />
<glyph unicode="&#x40f;" horiz-adv-x="728" d="M304 -120v120q-130 0 -176 49t-46 169v477q42 12 100 12q40 0 40 -30v-461q0 -60 13 -80.5t47 -20.5h221v585h106q34 0 34 -27v-673h-199v-147h-106q-34 0 -34 27z" />
<glyph unicode="&#x410;" horiz-adv-x="689" d="M163 0h-108q-19 0 -27 9.5t-3 25.5l236 649q51 23 110 23q26 0 40 -9t23 -33l242 -665h-114q-36 0 -44 24l-43 128h-262zM439 265l-95 285l-94 -285h189z" />
<glyph unicode="&#x411;" horiz-adv-x="665" d="M333 349q-60 0 -111 -16v-99q0 -64 17 -91.5t60 -27.5h21q154 0 154 118q0 60 -35 88t-106 28zM533 584h-311v-148q61 27 146 27q112 0 180.5 -58.5t68.5 -164.5q0 -117 -78 -178.5t-217 -61.5h-36q-116 0 -160 54t-44 177v469h424q27 0 27 -34v-82z" />
<glyph unicode="&#x412;" horiz-adv-x="664" d="M470 208q0 92 -123 92h-124v-87q0 -57 15 -79t54 -22h65q113 0 113 96zM447 499q0 42 -28 65.5t-83 23.5h-114v-178h114q55 0 83 23.5t28 65.5zM82 700h262q117 0 181 -52t64 -136q0 -52 -25.5 -91.5t-69.5 -58.5q54 -18 86 -60.5t32 -103.5q0 -91 -65.5 -144.5 t-188.5 -53.5h-90q-95 0 -140.5 49t-45.5 158v493z" />
<glyph unicode="&#x413;" horiz-adv-x="557" d="M523 584h-299v-584h-106q-34 0 -34 26v674h412q27 0 27 -34v-82z" />
<glyph unicode="&#x414;" horiz-adv-x="677" d="M426 584h-128q-16 -261 -72 -469h200v469zM641 89v-236h-106q-34 0 -34 27v120h-333v-147h-106q-34 0 -34 27v236h57q70 244 82 584h365q34 0 34 -27v-557h41q34 0 34 -27z" />
<glyph unicode="&#x415;" horiz-adv-x="582" d="M530 0h-263q-104 0 -144.5 53.5t-40.5 161.5v485h411q29 0 29 -36q0 -38 -10 -80h-290v-178h219q27 0 27 -34v-81h-246v-81q0 -55 15 -75t52 -20h214q27 0 27 -34v-81z" />
<glyph unicode="&#x416;" horiz-adv-x="1006" d="M252 394q-111 98 -177 203q-10 17 -10 35q0 24 22 41.5t79 35.5q110 -176 267 -296v282q45 13 101 13q39 0 39 -30v-265q157 120 267 296q56 -18 78 -35.5t22 -41.5q0 -20 -9 -35q-66 -105 -177 -203q70 -178 147 -266q21 -25 58 -25h20q8 -24 8 -55q0 -26 -25.5 -43 t-65.5 -17q-38 0 -67 18.5t-61 62.5q-70 97 -123 241q-35 -26 -72 -49v-261h-106q-34 0 -34 27v234q-37 23 -72 49q-53 -144 -123 -241q-32 -44 -61.5 -62.5t-66.5 -18.5q-40 0 -65.5 17t-25.5 43q0 31 8 55h19q38 0 59 25q77 88 147 266z" />
<glyph unicode="&#x417;" horiz-adv-x="608" d="M237 300h-12q-28 0 -28 36q0 38 9 77h29q79 0 120 25.5t41 70.5q0 40 -27 62.5t-75 22.5q-97 0 -124 -97q-46 3 -82.5 19.5t-36.5 42.5q0 19 9 34q32 53 92.5 86t146.5 33q104 0 170.5 -54.5t66.5 -139.5q0 -54 -31.5 -97t-81.5 -61q62 -20 97.5 -64.5t35.5 -102.5 q0 -92 -73.5 -148.5t-201.5 -56.5q-90 0 -157 32t-67 65t20 63q80 -43 187 -43q152 0 152 90q0 105 -179 105z" />
<glyph unicode="&#x418;" horiz-adv-x="720" d="M84 32v663q42 12 100 12q40 0 40 -30v-438l275 448q11 20 38 20q43 0 98 -40v-667h-106q-34 0 -34 26v434l-275 -448q-12 -19 -38 -19q-18 0 -47 11.5t-51 27.5z" />
<glyph unicode="&#x419;" horiz-adv-x="720" d="M84 32v663q42 12 100 12q40 0 40 -30v-438l275 448q11 20 38 20q43 0 98 -40v-667h-106q-34 0 -34 26v434l-275 -448q-12 -19 -38 -19q-18 0 -47 11.5t-51 27.5zM310 898q9 -55 50 -55q48 0 54 77h65q17 0 24 -5.5t5 -17.5q-6 -58 -44.5 -95.5t-103.5 -37.5 q-58 0 -99 34.5t-50 101.5q32 21 68 21q27 0 31 -23z" />
<glyph unicode="&#x41a;" horiz-adv-x="675" d="M607 597q-70 -112 -198 -221q80 -156 162 -241q30 -32 64 -32h18q9 -22 9 -55q0 -22 -26 -41t-65 -19q-65 0 -128 75q-71 87 -140 231q-39 -27 -79 -51v-243h-106q-34 0 -34 27v668q47 13 101 13q39 0 39 -30v-283q171 123 292 314q57 -18 79 -35.5t22 -41.5 q0 -18 -10 -35z" />
<glyph unicode="&#x41b;" horiz-adv-x="781" d="M556 584h-199q-8 -221 -27 -345q-20 -136 -65.5 -193.5t-128.5 -57.5q-47 0 -87 22.5t-40 43.5q0 35 18 64q29 -13 69 -13q41 0 61 32.5t32 114.5q30 212 30 448h444q34 0 34 -27v-673h-107q-34 0 -34 26v558z" />
<glyph unicode="&#x41c;" horiz-adv-x="901" d="M692 28l-44 461l-135 -253q-12 -22 -46 -22h-70l-147 275l-47 -489h-108q-37 0 -34 30l71 644q56 33 101 33q27 0 40 -24l176 -334l186 351h98q31 0 34 -26l73 -674h-110q-35 0 -38 28z" />
<glyph unicode="&#x41d;" horiz-adv-x="724" d="M224 0h-106q-34 0 -34 26v669q42 12 100 12q40 0 40 -30v-269h275v292h107q34 0 34 -27v-673h-107q-34 0 -34 26v267h-275v-293z" />
<glyph unicode="&#x41e;" horiz-adv-x="781" d="M729 350q0 -170 -96.5 -266t-242.5 -96t-242.5 96t-96.5 266t96.5 266t242.5 96t242.5 -96t96.5 -266zM396 105q81 0 136 60t55 176q0 115 -58 184.5t-144 69.5q-81 0 -136.5 -60t-55.5 -176q0 -115 58.5 -184.5t144.5 -69.5z" />
<glyph unicode="&#x41f;" horiz-adv-x="725" d="M640 0h-106q-34 0 -34 26v558h-276v-584h-106q-34 0 -34 26v674h522q34 0 34 -27v-673z" />
<glyph unicode="&#x420;" horiz-adv-x="647" d="M224 0h-106q-34 0 -34 27v673h240q131 0 206 -69t75 -191q0 -115 -75 -182.5t-193 -67.5q-65 0 -113 15v-205zM224 584v-269q42 -8 89 -8q69 0 109.5 35t40.5 103t-39 103.5t-108 35.5h-92z" />
<glyph unicode="&#x421;" horiz-adv-x="695" d="M537 475q-44 120 -164 120q-76 0 -128 -59t-52 -163q0 -124 72 -196t189 -72q92 0 160 36q20 -32 20 -63q0 -30 -63.5 -60t-144.5 -30q-163 0 -269 105t-106 277q0 156 93.5 249t234.5 93q94 0 165 -39t105 -105q8 -15 8 -32q0 -20 -24 -34q-39 -24 -96 -27z" />
<glyph unicode="&#x422;" horiz-adv-x="623" d="M381 0h-106q-34 0 -34 26v558h-175q-29 0 -29 35q0 34 9 81h512q27 0 27 -34v-82h-204v-584z" />
<glyph unicode="&#x423;" horiz-adv-x="666" d="M264 0h-80q-21 0 -32.5 8.5t-11.5 21.5q0 9 8 19q54 71 119 175l-218 425q51 58 100 58q28 0 41 -27l154 -323q98 181 151 343h89q47 0 47 -32q0 -6 -3 -14q-52 -154 -152.5 -334.5t-211.5 -319.5z" />
<glyph unicode="&#x424;" horiz-adv-x="777" d="M732 354q0 -113 -79 -183.5t-194 -83.5v-87h-107q-34 0 -34 27v58q-115 14 -194 84.5t-79 183.5t79 183t194 84v75q47 13 101 13q40 0 40 -30v-57q115 -13 194 -83t79 -184zM185 362q0 -60 36 -103t99 -58v307q-60 -9 -97.5 -46t-37.5 -100zM592 345q0 60 -36.5 103 t-98.5 58v-308q60 9 97.5 46t37.5 101z" />
<glyph unicode="&#x425;" horiz-adv-x="699" d="M439 359l223 -296q-57 -72 -99 -72q-19 0 -33 18l-189 249q-101 -118 -151 -258h-110q-21 0 -29 12t-1 33q28 79 85.5 163t129.5 151l-208 275q56 73 101 73q19 0 34 -21l169 -225q93 111 138 239h109q21 0 30 -12.5t1 -33.5q-68 -169 -200 -295z" />
<glyph unicode="&#x426;" horiz-adv-x="754" d="M578 0h-274q-130 0 -176 49t-46 169v477q42 12 100 12q40 0 40 -30v-461q0 -60 13 -80.5t47 -20.5h221v585h106q34 0 34 -27v-558h41q34 0 34 -27v-235h-106q-34 0 -34 27v120z" />
<glyph unicode="&#x427;" horiz-adv-x="694" d="M213 677v-227q0 -67 39 -102t107 -35q67 0 110 21v366h106q34 0 34 -27v-673h-106q-34 0 -34 26v201q-54 -31 -142 -31q-112 0 -183.5 67.5t-71.5 185.5v246q43 12 101 12q40 0 40 -30z" />
<glyph unicode="&#x428;" horiz-adv-x="922" d="M837 673v-673h-533q-130 0 -176 49t-46 169v477q42 12 100 12q40 0 40 -30v-461q0 -60 13 -80.5t47 -20.5h107v585h107q34 0 34 -27v-558h167v585h106q34 0 34 -27z" />
<glyph unicode="&#x429;" horiz-adv-x="948" d="M772 0h-468q-130 0 -176 49t-46 169v477q42 12 100 12q40 0 40 -30v-461q0 -60 13 -80.5t47 -20.5h107v585h107q34 0 34 -27v-558h167v585h106q34 0 34 -27v-558h41q34 0 34 -27v-235h-106q-34 0 -34 27v120z" />
<glyph unicode="&#x42a;" horiz-adv-x="819" d="M241 584h-175q-29 0 -29 35q0 34 9 81h306q29 0 29 -32v-232q61 27 146 27q112 0 180.5 -58.5t68.5 -164.5q0 -117 -78 -178.5t-217 -61.5h-36q-116 0 -160 54t-44 177v353zM492 349q-60 0 -111 -16v-99q0 -64 17 -91.5t60 -27.5h21q154 0 154 118q0 60 -35 88t-106 28z " />
<glyph unicode="&#x42b;" horiz-adv-x="940" d="M856 0h-107q-34 0 -34 26v669q43 12 101 12q40 0 40 -30v-677zM82 231v464q42 12 100 12q40 0 40 -30v-241q61 27 146 27q112 0 180.5 -58.5t68.5 -164.5q0 -117 -78 -178.5t-217 -61.5h-36q-116 0 -160 54t-44 177zM333 349q-60 0 -111 -16v-99q0 -64 17 -91.5t60 -27.5 h21q154 0 154 118q0 60 -35 88t-106 28z" />
<glyph unicode="&#x42c;" horiz-adv-x="660" d="M82 231v464q42 12 100 12q40 0 40 -30v-241q61 27 146 27q112 0 180.5 -58.5t68.5 -164.5q0 -117 -78 -178.5t-217 -61.5h-36q-116 0 -160 54t-44 177zM333 349q-60 0 -111 -16v-99q0 -64 17 -91.5t60 -27.5h21q154 0 154 118q0 60 -35 88t-106 28z" />
<glyph unicode="&#x42d;" horiz-adv-x="701" d="M164 475q-57 3 -95 27q-25 14 -25 34q0 17 8 32q34 65 105 104.5t165 39.5q141 0 234.5 -93t93.5 -249q0 -172 -106 -277t-269 -105q-81 0 -144 30t-63 60q0 34 20 63q66 -36 159 -36q95 0 161.5 48t88.5 136h-253q-29 0 -29 35q0 41 10 78h282q-7 91 -58 142t-121 51 q-120 0 -164 -120z" />
<glyph unicode="&#x42e;" horiz-adv-x="1047" d="M996 350q0 -170 -96.5 -266t-242.5 -96q-131 0 -224.5 79.5t-110.5 222.5h-98v-290h-106q-34 0 -34 27v668q47 13 101 13q39 0 39 -30v-272h97q16 145 109.5 225.5t226.5 80.5q146 0 242.5 -96t96.5 -266zM663 105q80 0 135.5 60t55.5 176q0 115 -58 184.5t-145 69.5 q-81 0 -136 -60t-55 -176q0 -115 58 -184.5t145 -69.5z" />
<glyph unicode="&#x42f;" horiz-adv-x="657" d="M435 26v196q-32 -11 -83 -13q-40 -88 -89 -149q-33 -40 -63 -56t-67 -16q-43 0 -66.5 18t-23.5 42q0 27 8 51h20q37 0 75 38q35 37 72 97q-67 27 -105.5 83.5t-38.5 136.5q0 115 75 180.5t206 65.5h189q31 0 31 -30v-670h-106q-34 0 -34 26zM435 333v251h-70 q-70 0 -108.5 -33.5t-38.5 -96.5t39.5 -95.5t107.5 -32.5q41 0 70 7z" />
<glyph unicode="&#x430;" horiz-adv-x="599" d="M243 442q-75 0 -138 -31q-16 22 -16 53q0 28 57 55t134 27q111 0 170.5 -54.5t59.5 -160.5v-185q0 -49 36 -49h23q7 -25 7 -45q0 -22 -24.5 -40.5t-62.5 -18.5q-34 0 -62 20t-40 59q-53 -84 -159 -84q-81 0 -132 47.5t-51 122.5q0 81 57.5 127.5t154.5 46.5q74 0 120 -24 v33q0 101 -134 101zM262 92q36 0 68 19.5t47 54.5v59q-32 12 -94 12q-50 0 -77.5 -20t-27.5 -55q0 -34 23.5 -52t60.5 -18z" />
<glyph unicode="&#x431;" horiz-adv-x="638" d="M63 301q0 96 14 165t43 111.5t65.5 65t87.5 33.5q151 31 247 67q31 -29 31 -59q0 -52 -152 -87l-91 -20q-49 -11 -75 -48.5t-32 -118.5q29 40 76.5 64t97.5 24q93 0 156.5 -67t63.5 -172q0 -119 -74 -195t-191 -76q-124 0 -195.5 84t-71.5 229zM197 322v-29 q0 -95 36 -146.5t97 -51.5q56 0 93.5 42.5t37.5 116.5q0 66 -35.5 101.5t-92.5 35.5q-35 0 -72 -19t-64 -50z" />
<glyph unicode="&#x432;" horiz-adv-x="562" d="M294 432h-90v-113h90q72 0 72 57q0 56 -72 56zM318 0h-99q-74 0 -110.5 38t-36.5 122v374h234q87 0 137.5 -42.5t50.5 -106.5q0 -74 -62 -105q39 -14 63 -46t24 -77q0 -71 -52.5 -114t-148.5 -43zM244 101h58q86 0 86 63q0 60 -96 60h-88v-61q0 -37 9 -49.5t31 -12.5z " />
<glyph unicode="&#x433;" horiz-adv-x="477" d="M208 427v-427h-99q-34 0 -34 27v507h347q27 0 27 -34v-73h-241z" />
<glyph unicode="&#x434;" horiz-adv-x="597" d="M151 534h316q34 0 34 -27v-401h36q34 0 34 -27v-197h-99q-34 0 -34 27v91h-282v-118h-99q-34 0 -34 27v197h55q58 171 73 428zM208 106h163v321h-105q-14 -172 -58 -321z" />
<glyph unicode="&#x435;" horiz-adv-x="583" d="M318 -12q-119 0 -195 78.5t-76 198.5q0 127 78 204t194 77q100 0 161 -56t61 -142q0 -51 -19 -87q-12 -23 -30.5 -32.5t-50.5 -9.5h-258q10 -62 53 -94t109 -32q73 0 128 29q18 -26 18 -55q0 -27 -49.5 -53t-123.5 -26zM316 441q-55 0 -90.5 -34t-42.5 -94h222q7 14 7 35 q0 43 -25.5 68t-70.5 25z" />
<glyph unicode="&#x436;" horiz-adv-x="817" d="M150 544q72 -119 192 -208v193q42 12 94 12q38 0 38 -30v-175q115 87 192 208q49 -17 70 -31.5t21 -33.5t-10 -35q-46 -72 -121 -136q41 -111 73 -160.5t65 -49.5h21q8 -24 8 -48q0 -22 -24 -39.5t-59 -17.5q-44 0 -81.5 39t-60 91t-38.5 117q-29 -20 -56 -35v-205h-98 q-34 0 -34 26v179q-26 14 -57 35q-65 -247 -180 -247q-35 0 -58.5 18t-23.5 39q0 24 8 48h17q21 0 35 10t30 35q32 48 76 165q-92 78 -120 131q-11 20 -11 34q0 21 20 37t72 34z" />
<glyph unicode="&#x437;" horiz-adv-x="531" d="M226 217h-10q-28 0 -28 35q0 36 9 65h23q111 0 111 65q0 27 -20 43t-53 16q-78 0 -98 -74q-48 3 -83 26q-21 13 -21 31q0 14 9 30q23 42 76.5 67t125.5 25q88 0 143 -42.5t55 -107.5q0 -43 -24 -75t-66 -48q48 -14 76.5 -47.5t28.5 -79.5q0 -70 -59.5 -114t-164.5 -44 q-75 0 -134.5 28.5t-59.5 58.5q0 26 18 54q67 -36 152 -36q113 0 113 61q0 63 -119 63z" />
<glyph unicode="&#x438;" horiz-adv-x="628" d="M553 501v-501h-99q-34 0 -34 26v303l-217 -318q-11 -17 -37 -17q-17 0 -44.5 10.5t-47.5 27.5v497q43 12 95 12q38 0 38 -30v-307l217 318q13 19 37 19q16 0 44.5 -12t47.5 -28z" />
<glyph unicode="&#x439;" horiz-adv-x="628" d="M553 501v-501h-99q-34 0 -34 26v303l-217 -318q-11 -17 -37 -17q-17 0 -44.5 10.5t-47.5 27.5v497q43 12 95 12q38 0 38 -30v-307l217 318q13 19 37 19q16 0 44.5 -12t47.5 -28zM263 723q9 -55 50 -55q48 0 54 77h65q17 0 24 -5.5t5 -17.5q-6 -58 -44.5 -95.5 t-103.5 -37.5q-58 0 -99 34.5t-50 101.5q32 21 68 21q27 0 31 -23z" />
<glyph unicode="&#x43a;" horiz-adv-x="593" d="M208 0h-99q-34 0 -34 27v502q42 12 95 12q38 0 38 -30v-194q63 39 129.5 102t105.5 125q52 -17 72 -33.5t20 -38.5q0 -12 -9 -29q-39 -70 -157 -156q56 -93 112 -153q33 -37 59 -37h22q8 -24 8 -45q0 -22 -25 -40.5t-63 -18.5q-64 0 -121 77q-47 61 -94 150 q-27 -17 -59 -33v-187z" />
<glyph unicode="&#x43b;" horiz-adv-x="664" d="M589 507v-507h-99q-34 0 -34 26v401h-159q-5 -148 -18 -248q-13 -96 -50 -143.5t-107 -47.5q-47 0 -80 17t-33 42q0 33 17 57q24 -11 53 -11t46 21t23 72q21 193 21 348h386q34 0 34 -27z" />
<glyph unicode="&#x43c;" horiz-adv-x="760" d="M645 507l60 -507h-101q-31 0 -34 26l-38 335l-96 -175q-10 -17 -32 -17h-75l-105 192l-41 -361h-94q-15 0 -25.5 5.5t-8.5 20.5l56 484q53 31 98 31q26 0 39 -24l130 -236l139 253h93q32 0 35 -27z" />
<glyph unicode="&#x43d;" horiz-adv-x="614" d="M539 0h-99q-34 0 -34 26v196h-199v-222h-99q-34 0 -34 26v503q43 12 95 12q38 0 38 -30v-182h199v205h99q34 0 34 -27v-507z" />
<glyph unicode="&#x43e;" horiz-adv-x="633" d="M317 546q113 0 191.5 -75t78.5 -204t-78.5 -204t-191.5 -75t-191.5 75t-78.5 204t78.5 204t191.5 75zM321 96q58 0 94.5 42t36.5 123q0 82 -40 129.5t-99 47.5q-58 0 -95 -42t-37 -123q0 -82 40.5 -129.5t99.5 -47.5z" />
<glyph unicode="&#x43f;" horiz-adv-x="614" d="M539 507v-507h-99q-34 0 -34 26v401h-199v-427h-99q-34 0 -34 26v508h431q34 0 34 -27z" />
<glyph unicode="&#x440;" horiz-adv-x="646" d="M74 -186v715q43 12 95 12q38 0 38 -30v-57q59 92 166 92q98 0 162 -71t64 -188q0 -133 -76.5 -216t-182.5 -83q-82 0 -133 49v-250h-99q-34 0 -34 27zM339 438q-42 0 -77 -28t-55 -83v-196q37 -36 102 -36q68 0 112 53t44 135q0 73 -33 114t-93 41z" />
<glyph unicode="&#x441;" horiz-adv-x="558" d="M512 70q0 -31 -49.5 -56.5t-125.5 -25.5q-119 0 -204.5 80.5t-85.5 214.5q0 119 72 191t190 72q73 0 128.5 -29t80.5 -76q8 -16 8 -31q0 -20 -26 -35q-36 -22 -87 -26q-23 89 -109 89q-54 0 -88.5 -41t-34.5 -112q0 -88 52.5 -138.5t132.5 -50.5q70 0 127 30 q19 -27 19 -56z" />
<glyph unicode="&#x442;" horiz-adv-x="538" d="M335 0h-99q-34 0 -34 26v401h-144q-28 0 -28 35q0 44 8 72h442q27 0 27 -34v-73h-172v-427z" />
<glyph unicode="&#x443;" horiz-adv-x="629" d="M278 -248q-92 0 -146 39.5t-54 99.5q0 35 22 67.5t62 53.5q-90 51 -90 201v314q44 12 95 12q38 0 38 -30v-299q0 -115 97 -115q68 0 119 46v393h99q34 0 34 -27v-506q0 -104 -71.5 -176.5t-204.5 -72.5zM275 -10q-12 0 -26 2q-38 -33 -38 -79q0 -26 19 -41t55 -15 q58 0 97 36t39 101v64q-60 -65 -146 -68z" />
<glyph unicode="&#x444;" horiz-adv-x="777" d="M319 541v184q43 12 92 12q38 0 38 -30v-165q129 -13 206 -85t77 -190t-77 -190.5t-206 -84.5v-185h-96q-34 0 -34 27v159q-125 14 -200 85.5t-75 188.5q0 115 75 187t200 87zM599 261q0 69 -41 114.5t-109 58.5v-338q70 9 110 51t40 114zM178 273q0 -68 38 -112.5 t103 -59.5v334q-66 -11 -103.5 -52t-37.5 -110z" />
<glyph unicode="&#x445;" horiz-adv-x="578" d="M364 59l-89 118q-70 -82 -104 -177h-101q-33 0 -33 23q0 8 4 16q48 124 164 230l-155 205q48 66 90 66q18 0 32 -18l124 -164q66 78 98 176h102q32 0 32 -24q0 -7 -3 -16q-21 -56 -64 -117t-96 -111l97 -129q16 -22 29.5 -30.5t32.5 -8.5h17q8 -22 8 -46 q0 -22 -23.5 -40.5t-60.5 -18.5q-52 0 -101 66z" />
<glyph unicode="&#x446;" horiz-adv-x="637" d="M478 0h-258q-148 0 -148 161v368q44 12 95 12q38 0 38 -30v-335q0 -40 10.5 -55t37.5 -15h156v428h99q34 0 34 -27v-401h35q34 0 34 -27v-197h-99q-34 0 -34 27v91z" />
<glyph unicode="&#x447;" horiz-adv-x="614" d="M539 0h-99q-34 0 -34 26v179q-61 -64 -157 -64q-88 0 -138.5 59t-50.5 171v158q44 12 95 12q38 0 38 -30v-143q0 -117 95 -117q70 0 118 45v238h99q34 0 34 -27v-507z" />
<glyph unicode="&#x448;" horiz-adv-x="809" d="M734 0h-514q-148 0 -148 161v368q44 12 95 12q38 0 38 -30v-335q0 -40 10.5 -55t37.5 -15h84v428h99q34 0 34 -27v-401h131v428h99q34 0 34 -27v-507z" />
<glyph unicode="&#x449;" horiz-adv-x="829" d="M670 0h-450q-148 0 -148 161v368q44 12 95 12q38 0 38 -30v-335q0 -40 10.5 -55t37.5 -15h84v428h99q34 0 34 -27v-401h131v428h99q34 0 34 -27v-401h35q34 0 34 -27v-197h-99q-34 0 -34 27v91z" />
<glyph unicode="&#x44a;" horiz-adv-x="695" d="M335 507v-150q50 19 119 19q89 0 145 -48.5t56 -132.5q0 -92 -64.5 -143.5t-188.5 -51.5h-32q-85 0 -126.5 44t-41.5 135v248h-144q-28 0 -28 35q0 44 8 72h263q34 0 34 -27zM420 272q-52 0 -85 -10v-69q0 -49 17 -69.5t62 -20.5q107 0 107 86q0 83 -101 83z" />
<glyph unicode="&#x44b;" horiz-adv-x="828" d="M599 128v401q42 12 95 12q38 0 38 -30v-366q0 -48 33 -48h25q8 -22 8 -45q0 -22 -25 -40.5t-63 -18.5q-48 0 -79.5 32t-31.5 103zM72 179v350q44 12 95 12q38 0 38 -30v-154q50 19 119 19q89 0 145 -48.5t56 -132.5q0 -92 -64.5 -143.5t-188.5 -51.5h-32q-85 0 -126.5 44 t-41.5 135zM290 272q-52 0 -85 -10v-69q0 -49 17 -69.5t62 -20.5q107 0 107 86q0 83 -101 83z" />
<glyph unicode="&#x44c;" horiz-adv-x="565" d="M72 179v350q44 12 95 12q38 0 38 -30v-154q50 19 119 19q89 0 145 -48.5t56 -132.5q0 -92 -64.5 -143.5t-188.5 -51.5h-32q-85 0 -126.5 44t-41.5 135zM290 272q-52 0 -85 -10v-69q0 -49 17 -69.5t62 -20.5q107 0 107 86q0 83 -101 83z" />
<glyph unicode="&#x44d;" horiz-adv-x="573" d="M60 70q0 29 19 56q57 -30 127 -30q61 0 108 30.5t66 87.5h-156q-29 0 -29 35q0 40 8 68h186q-8 56 -41 88.5t-80 32.5q-86 0 -109 -89q-51 4 -87 26q-26 15 -26 35q0 15 8 31q25 47 80.5 76t128.5 29q118 0 190 -72t72 -191q0 -134 -85.5 -214.5t-204.5 -80.5 q-76 0 -125.5 25.5t-49.5 56.5z" />
<glyph unicode="&#x44e;" horiz-adv-x="866" d="M549 546q113 0 191.5 -75t78.5 -204t-78.5 -204t-191.5 -75q-102 0 -177 61.5t-90 169.5h-74v-219h-99q-34 0 -34 27v502q42 12 95 12q38 0 38 -30v-185h76q18 103 92 161.5t173 58.5zM553 96q58 0 94.5 42t36.5 123q0 82 -40 129.5t-99 47.5q-58 0 -95 -42t-37 -123 q0 -82 40.5 -129.5t99.5 -47.5z" />
<glyph unicode="&#x44f;" horiz-adv-x="577" d="M131 -12q-33 0 -54 16t-21 37q0 25 7 44h18q27 0 47 19q31 29 58 79q-111 45 -111 165q0 86 59 136t158 50h176q34 0 34 -27v-507h-99q-34 0 -34 27v144q-30 -9 -67 -9q-28 -63 -77 -124q-43 -50 -94 -50zM208 348q0 -40 29.5 -61t79.5 -21q32 0 52 4v162h-54 q-107 0 -107 -84z" />
<glyph unicode="&#x450;" horiz-adv-x="583" d="M318 -12q-119 0 -195 78.5t-76 198.5q0 127 78 204t194 77q100 0 161 -56t61 -142q0 -51 -19 -87q-12 -23 -30.5 -32.5t-50.5 -9.5h-258q10 -62 53 -94t109 -32q73 0 128 29q18 -26 18 -55q0 -27 -49.5 -53t-123.5 -26zM316 441q-55 0 -90.5 -34t-42.5 -94h222q7 14 7 35 q0 43 -25.5 68t-70.5 25zM314 591l-125 96q17 33 46 61q13 12 30 12q13 0 28 -15l109 -112l-39 -42q-11 -11 -23 -11q-11 0 -26 11z" />
<glyph unicode="&#x451;" horiz-adv-x="583" d="M318 -12q-119 0 -195 78.5t-76 198.5q0 127 78 204t194 77q100 0 161 -56t61 -142q0 -51 -19 -87q-12 -23 -30.5 -32.5t-50.5 -9.5h-258q10 -62 53 -94t109 -32q73 0 128 29q18 -26 18 -55q0 -27 -49.5 -53t-123.5 -26zM316 441q-55 0 -90.5 -34t-42.5 -94h222q7 14 7 35 q0 43 -25.5 68t-70.5 25zM213 598q-28 0 -48.5 20t-20.5 52q0 30 18 48t46 18t48.5 -20t20.5 -52q0 -30 -18 -48t-46 -18zM404 598q-28 0 -48.5 20t-20.5 52q0 30 18 48t46 18t48.5 -20t20.5 -52q0 -30 -18 -48t-46 -18z" />
<glyph unicode="&#x452;" horiz-adv-x="627" d="M423 7v316q0 115 -98 115q-68 0 -118 -45v-393h-99q-34 0 -34 27v568h-33q-26 0 -26 23q0 26 5 51h54v56q42 12 95 12q38 0 38 -30v-38h137q25 0 25 -32v-42h-162v-119q29 32 73 51t90 19q89 0 137.5 -59.5t48.5 -172.5v-301q0 -141 -94 -213q-46 -34 -73 -34 q-14 0 -26.5 14t-18.5 32q79 84 79 195z" />
<glyph unicode="&#x453;" horiz-adv-x="477" d="M208 427v-427h-99q-34 0 -34 27v507h347q27 0 27 -34v-73h-241zM373 687l-126 -96q-14 -11 -26 -11t-22 11l-39 42l109 112q15 15 27 15q19 0 31 -12q26 -25 46 -61z" />
<glyph unicode="&#x454;" horiz-adv-x="558" d="M511 70q0 -31 -49.5 -56.5t-125.5 -25.5q-119 0 -204.5 80.5t-85.5 214.5q0 119 72 191t190 72q73 0 128.5 -29t80.5 -76q8 -16 8 -31q0 -20 -26 -35q-36 -22 -87 -26q-23 89 -109 89q-47 0 -80 -32.5t-41 -88.5h186q8 -28 8 -68q0 -35 -29 -35h-156q19 -57 66 -87.5 t108 -30.5q70 0 127 30q19 -27 19 -56z" />
<glyph unicode="&#x455;" horiz-adv-x="505" d="M446 458q9 -16 9 -30q0 -18 -22 -31q-38 -22 -82 -25q-10 33 -34 51t-57 18q-34 0 -52.5 -15t-18.5 -38q0 -29 23 -46t77 -31q88 -23 129 -62t41 -102q0 -72 -53.5 -115.5t-150.5 -43.5q-74 0 -129.5 26.5t-55.5 55.5q0 35 19 57q68 -34 148 -34q89 0 89 49q0 23 -17 37 t-63 24q-190 43 -190 183q0 71 54.5 115.5t144.5 44.5q65 0 116 -23.5t75 -64.5z" />
<glyph unicode="&#x456;" horiz-adv-x="304" d="M74 128v401q43 12 95 12q38 0 38 -30v-366q0 -48 33 -48h26q7 -24 7 -45q0 -22 -24.5 -40.5t-62.5 -18.5q-48 0 -80 31.5t-32 103.5zM140 600q-31 0 -53 20t-22 53q0 32 20.5 51t52.5 19q31 0 53.5 -20.5t22.5 -52.5q0 -33 -20 -51.5t-54 -18.5z" />
<glyph unicode="&#x457;" horiz-adv-x="304" d="M74 128v401q43 12 95 12q38 0 38 -30v-366q0 -48 33 -48h26q7 -24 7 -45q0 -22 -24.5 -40.5t-62.5 -18.5q-48 0 -80 31.5t-32 103.5zM48 598q-28 0 -48.5 20t-20.5 52q0 30 18 48t46 18t48.5 -20t20.5 -52q0 -30 -18 -48t-46 -18zM239 598q-28 0 -48.5 20t-20.5 52 q0 30 18 48t46 18t48.5 -20t20.5 -52q0 -30 -18 -48t-46 -18z" />
<glyph unicode="&#x458;" horiz-adv-x="287" d="M118 -165q-46 -34 -73 -34q-14 0 -26.5 14t-18.5 32q79 84 79 195v487q44 12 95 12q38 0 38 -30v-463q0 -141 -94 -213zM145 600q-31 0 -53 20t-22 53q0 32 20.5 51t52.5 19q31 0 53.5 -20.5t22.5 -52.5q0 -33 -20 -51.5t-54 -18.5z" />
<glyph unicode="&#x459;" horiz-adv-x="940" d="M580 507v-150q50 19 119 19q89 0 145 -48.5t56 -132.5q0 -92 -64.5 -143.5t-188.5 -51.5h-32q-85 0 -126.5 44t-41.5 135v248h-150q-5 -148 -18 -248q-13 -96 -50 -143.5t-107 -47.5q-47 0 -80 17t-33 42q0 33 17 57q24 -11 53 -11t46 21t23 72q21 193 21 348h377 q34 0 34 -27zM665 272q-52 0 -85 -10v-69q0 -49 17 -69.5t62 -20.5q107 0 107 86q0 83 -101 83z" />
<glyph unicode="&#x45a;" horiz-adv-x="890" d="M398 179v43h-191v-222h-99q-34 0 -34 26v503q43 12 95 12q38 0 38 -30v-182h191v205h99q34 0 34 -27v-150q50 19 119 19q89 0 145 -48.5t56 -132.5q0 -92 -64.5 -143.5t-188.5 -51.5h-32q-85 0 -126.5 44t-41.5 135zM616 272q-52 0 -85 -10v-69q0 -49 17 -69.5t62 -20.5 q107 0 107 86q0 83 -101 83z" />
<glyph unicode="&#x45b;" horiz-adv-x="648" d="M20 670h55v55q42 12 95 12q38 0 38 -30v-37h137q25 0 25 -32v-43h-162v-119q30 32 74 51t89 19q89 0 137.5 -59.5t48.5 -172.5v-168q0 -48 32 -48h26q7 -20 7 -45q0 -23 -24.5 -41.5t-62.5 -18.5q-48 0 -80 32t-32 104v194q0 115 -97 115q-66 0 -118 -45v-393h-99 q-34 0 -34 27v568h-34q-26 0 -26 24q0 26 5 51z" />
<glyph unicode="&#x45c;" horiz-adv-x="593" d="M208 0h-99q-34 0 -34 27v502q42 12 95 12q38 0 38 -30v-194q63 39 129.5 102t105.5 125q52 -17 72 -33.5t20 -38.5q0 -12 -9 -29q-39 -70 -157 -156q56 -93 112 -153q33 -37 59 -37h22q8 -24 8 -45q0 -22 -25 -40.5t-63 -18.5q-64 0 -121 77q-47 61 -94 150 q-27 -17 -59 -33v-187zM411 687l-126 -96q-14 -11 -26 -11t-22 11l-39 42l109 112q15 15 27 15q19 0 31 -12q26 -25 46 -61z" />
<glyph unicode="&#x45d;" horiz-adv-x="628" d="M553 501v-501h-99q-34 0 -34 26v303l-217 -318q-11 -17 -37 -17q-17 0 -44.5 10.5t-47.5 27.5v497q43 12 95 12q38 0 38 -30v-307l217 318q13 19 37 19q16 0 44.5 -12t47.5 -28zM312 591l-125 96q17 33 46 61q13 12 30 12q13 0 28 -15l109 -112l-39 -42q-11 -11 -23 -11 q-11 0 -26 11z" />
<glyph unicode="&#x45e;" horiz-adv-x="629" d="M278 -248q-92 0 -146 39.5t-54 99.5q0 35 22 67.5t62 53.5q-90 51 -90 201v314q44 12 95 12q38 0 38 -30v-299q0 -115 97 -115q68 0 119 46v393h99q34 0 34 -27v-506q0 -104 -71.5 -176.5t-204.5 -72.5zM275 -10q-12 0 -26 2q-38 -33 -38 -79q0 -26 19 -41t55 -15 q58 0 97 36t39 101v64q-60 -65 -146 -68zM263 723q9 -55 50 -55q48 0 54 77h65q17 0 24 -5.5t5 -17.5q-6 -58 -44.5 -95.5t-103.5 -37.5q-58 0 -99 34.5t-50 101.5q32 21 68 21q27 0 31 -23z" />
<glyph unicode="&#x45f;" horiz-adv-x="617" d="M542 0h-156v-118h-99q-34 0 -34 27v91h-33q-148 0 -148 161v368q44 12 95 12q38 0 38 -30v-335q0 -40 10.5 -55t37.5 -15h156v428h99q34 0 34 -27v-507z" />
<glyph unicode="&#x490;" horiz-adv-x="557" d="M383 700v121q47 13 101 13q39 0 39 -31v-219h-299v-584h-106q-34 0 -34 26v674h299z" />
<glyph unicode="&#x491;" horiz-adv-x="477" d="M208 427v-427h-99q-34 0 -34 27v507h241v110q42 12 94 12q39 0 39 -30v-199h-241z" />
<glyph unicode="&#x1e80;" horiz-adv-x="1122" d="M871 30q-12 -30 -58 -30h-106l-142 525q-53 -254 -158 -495q-13 -30 -58 -30h-101l-206 668q62 40 107 40q31 0 39 -27l144 -520q92 215 148 539h109q49 0 58 -33l138 -506q94 224 149 539h95q27 0 38 -10.5t7 -30.5q-56 -286 -203 -629zM563 765l-125 96q17 33 46 61 q14 12 30 12q13 0 28 -15l109 -112l-39 -42q-11 -11 -23 -11q-11 0 -26 11z" />
<glyph unicode="&#x1e81;" horiz-adv-x="877" d="M704 534h88q22 0 33 -11t8 -29q-40 -238 -139 -467q-11 -27 -51 -27h-107l-94 385q-30 -193 -97 -360q-11 -25 -49 -25h-103l-153 503q55 38 99 38q28 0 35 -24l97 -382q63 169 94 399h101q44 0 52 -35l92 -364q61 166 94 399zM433 591l-125 96q17 33 46 61q14 12 30 12 q13 0 28 -15l109 -112l-39 -42q-11 -11 -23 -11q-11 0 -26 11z" />
<glyph unicode="&#x1e82;" horiz-adv-x="1122" d="M871 30q-12 -30 -58 -30h-106l-142 525q-53 -254 -158 -495q-13 -30 -58 -30h-101l-206 668q62 40 107 40q31 0 39 -27l144 -520q92 215 148 539h109q49 0 58 -33l138 -506q94 224 149 539h95q27 0 38 -10.5t7 -30.5q-56 -286 -203 -629zM669 861l-126 -96 q-14 -11 -26 -11t-22 11l-39 42l109 112q15 15 27 15q19 0 31 -12q26 -25 46 -61z" />
<glyph unicode="&#x1e83;" horiz-adv-x="877" d="M704 534h88q22 0 33 -11t8 -29q-40 -238 -139 -467q-11 -27 -51 -27h-107l-94 385q-30 -193 -97 -360q-11 -25 -49 -25h-103l-153 503q55 38 99 38q28 0 35 -24l97 -382q63 169 94 399h101q44 0 52 -35l92 -364q61 166 94 399zM546 687l-126 -96q-14 -11 -26 -11t-22 11 l-39 42l109 112q15 15 27 15q19 0 31 -12q26 -25 46 -61z" />
<glyph unicode="&#x1e84;" horiz-adv-x="1122" d="M871 30q-12 -30 -58 -30h-106l-142 525q-53 -254 -158 -495q-13 -30 -58 -30h-101l-206 668q62 40 107 40q31 0 39 -27l144 -520q92 215 148 539h109q49 0 58 -33l138 -506q94 224 149 539h95q27 0 38 -10.5t7 -30.5q-56 -286 -203 -629zM471 772q-28 0 -48.5 20 t-20.5 52q0 30 18 48t46 18t48.5 -20t20.5 -52q0 -30 -18 -48t-46 -18zM662 772q-28 0 -48.5 20t-20.5 52q0 30 18 48t46 18t48.5 -20t20.5 -52q0 -30 -18 -48t-46 -18z" />
<glyph unicode="&#x1e85;" horiz-adv-x="877" d="M704 534h88q22 0 33 -11t8 -29q-40 -238 -139 -467q-11 -27 -51 -27h-107l-94 385q-30 -193 -97 -360q-11 -25 -49 -25h-103l-153 503q55 38 99 38q28 0 35 -24l97 -382q63 169 94 399h101q44 0 52 -35l92 -364q61 166 94 399zM349 598q-28 0 -48.5 20t-20.5 52 q0 30 18 48t46 18t48.5 -20t20.5 -52q0 -30 -18 -48t-46 -18zM540 598q-28 0 -48.5 20t-20.5 52q0 30 18 48t46 18t48.5 -20t20.5 -52q0 -30 -18 -48t-46 -18z" />
<glyph unicode="&#x1ef2;" horiz-adv-x="671" d="M262 26v212l-231 408q54 61 104 61q20 0 31 -20l170 -322q116 170 166 335h101q20 0 29.5 -11t4.5 -29q-56 -191 -235 -418v-242h-106q-34 0 -34 26zM332 765l-125 96q17 33 46 61q13 12 30 12q13 0 28 -15l109 -112l-39 -42q-11 -11 -23 -11q-11 0 -26 11z" />
<glyph unicode="&#x1ef3;" horiz-adv-x="629" d="M278 -248q-92 0 -146 39.5t-54 99.5q0 35 22 67.5t62 53.5q-90 51 -90 201v314q44 12 95 12q38 0 38 -30v-299q0 -115 97 -115q68 0 119 46v393h99q34 0 34 -27v-506q0 -104 -71.5 -176.5t-204.5 -72.5zM275 -10q-12 0 -26 2q-38 -33 -38 -79q0 -26 19 -41t55 -15 q58 0 97 36t39 101v64q-60 -65 -146 -68zM312 591l-125 96q17 33 46 61q13 12 30 12q13 0 28 -15l109 -112l-39 -42q-11 -11 -23 -11q-11 0 -26 11z" />
<glyph unicode="&#x2009;" horiz-adv-x="200" />
<glyph unicode="&#x2010;" horiz-adv-x="451" d="M89 387h253q29 0 29 -32v-79h-263q-29 0 -29 35q0 42 10 76z" />
<glyph unicode="&#x2012;" horiz-adv-x="675" d="M89 387h477q29 0 29 -32v-79h-487q-29 0 -29 35q0 42 10 76z" />
<glyph unicode="&#x2013;" horiz-adv-x="500" d="M9 387h461q30 0 30 -32v-79h-472q-28 0 -28 35q0 40 9 76z" />
<glyph unicode="&#x2014;" horiz-adv-x="1000" d="M9 387h961q30 0 30 -32v-79h-972q-28 0 -28 35q0 40 9 76z" />
<glyph unicode="&#x2015;" horiz-adv-x="1000" d="M106 387h768q29 0 29 -32v-79h-778q-29 0 -29 35q0 36 10 76z" />
<glyph unicode="&#x2016;" horiz-adv-x="476" d="M93 -104v844q40 9 75 9q37 0 37 -26v-853h-79q-33 0 -33 26zM272 -104v844q38 9 74 9q37 0 37 -26v-853h-78q-33 0 -33 26z" />
<glyph unicode="&#x2017;" horiz-adv-x="593" d="M53 -15h468q26 0 26 -33v-52h-474q-26 0 -26 34q0 27 6 51zM53 -144h468q26 0 26 -33v-51h-474q-26 0 -26 34q0 28 6 50z" />
<glyph unicode="&#x2018;" horiz-adv-x="333" d="M165 449q-33 0 -56.5 23t-23.5 62q0 84 56 151q22 27 46.5 41t33.5 10q17 -8 24 -32q-51 -48 -60 -101q24 -8 39.5 -28.5t15.5 -50.5q0 -35 -21 -55t-54 -20z" />
<glyph unicode="&#x2019;" horiz-adv-x="333" d="M164 741q33 0 56.5 -23t23.5 -62q0 -84 -56 -151q-22 -27 -46.5 -41t-33.5 -10q-17 8 -24 32q51 48 60 101q-24 8 -39.5 28.5t-15.5 50.5q0 35 21 55t54 20z" />
<glyph unicode="&#x201a;" horiz-adv-x="333" d="M164 146q33 0 56.5 -23t23.5 -62q0 -84 -56 -151q-22 -27 -46.5 -41t-33.5 -10q-17 8 -24 32q51 48 60 101q-24 8 -39.5 28.5t-15.5 50.5q0 35 21 55t54 20z" />
<glyph unicode="&#x201b;" horiz-adv-x="333" d="M169 742q33 0 54 -20t21 -55q0 -30 -15.5 -50.5t-39.5 -28.5q9 -53 60 -101q-7 -24 -24 -32q-9 -4 -33.5 10t-46.5 41q-56 67 -56 151q0 39 23.5 62t56.5 23z" />
<glyph unicode="&#x201c;" horiz-adv-x="539" d="M371 449q-33 0 -56.5 23t-23.5 62q0 84 56 151q22 27 46.5 41t33.5 10q17 -8 24 -32q-51 -48 -60 -101q24 -8 39.5 -28.5t15.5 -50.5q0 -35 -21 -55t-54 -20zM165 449q-33 0 -56.5 23t-23.5 62q0 84 56 151q22 27 46.5 41t33.5 10q17 -8 24 -32q-51 -48 -60 -101 q24 -8 39.5 -28.5t15.5 -50.5q0 -35 -21 -55t-54 -20z" />
<glyph unicode="&#x201d;" horiz-adv-x="539" d="M164 741q33 0 56.5 -23t23.5 -62q0 -84 -56 -151q-22 -27 -46.5 -41t-33.5 -10q-17 8 -24 32q51 48 60 101q-24 8 -39.5 28.5t-15.5 50.5q0 35 21 55t54 20zM369 741q33 0 56.5 -23t23.5 -62q0 -84 -56 -151q-22 -27 -46.5 -41t-33.5 -10q-17 8 -24 32q51 48 60 101 q-24 8 -39.5 28.5t-15.5 50.5q0 35 21 55t54 20z" />
<glyph unicode="&#x201e;" horiz-adv-x="539" d="M164 146q33 0 56.5 -23t23.5 -62q0 -84 -56 -151q-22 -27 -46.5 -41t-33.5 -10q-17 8 -24 32q51 48 60 101q-24 8 -39.5 28.5t-15.5 50.5q0 35 21 55t54 20zM369 146q33 0 56.5 -23t23.5 -62q0 -84 -56 -151q-22 -27 -46.5 -41t-33.5 -10q-17 8 -24 32q51 48 60 101 q-24 8 -39.5 28.5t-15.5 50.5q0 35 21 55t54 20z" />
<glyph unicode="&#x201f;" horiz-adv-x="539" d="M375 742q33 0 54 -20t21 -55q0 -30 -15.5 -50.5t-39.5 -28.5q9 -53 60 -101q-7 -24 -24 -32q-9 -4 -33.5 10t-46.5 41q-56 67 -56 151q0 39 23.5 62t56.5 23zM169 742q33 0 54 -20t21 -55q0 -30 -15.5 -50.5t-39.5 -28.5q9 -53 60 -101q-7 -24 -24 -32q-9 -4 -33.5 10 t-46.5 41q-56 67 -56 151q0 39 23.5 62t56.5 23z" />
<glyph unicode="&#x2020;" horiz-adv-x="534" d="M55 578l156 -12l-10 170q43 12 92 12q20 0 29.5 -7t8.5 -21l-9 -154l134 11q16 2 23.5 -6t7.5 -27v-80l-162 12v-607h-85q-32 0 -32 25v582l-129 -10q-16 -1 -24.5 8.5t-8.5 29.5q0 33 9 74z" />
<glyph unicode="&#x2021;" horiz-adv-x="543" d="M60 578l156 -12l-10 170q43 12 91 12q20 0 30 -7t9 -21l-10 -154l134 11q17 0 24 -7.5t7 -25.5v-80l-162 12v-336l131 10q17 2 24 -6t7 -27v-79l-165 12l10 -151q1 -16 -8 -23t-31 -7q-50 0 -91 12l10 169l-140 -10q-13 -1 -19 8.5t-6 28.5q0 41 9 75l153 -12v336 l-133 -10q-15 -1 -22 8t-7 30q0 38 9 74z" />
<glyph unicode="&#x2022;" horiz-adv-x="464" d="M236 190q-58 0 -100.5 40.5t-42.5 107.5q0 62 37.5 99t97.5 37q58 0 100 -40.5t42 -107.5q0 -62 -37 -99t-97 -37z" />
<glyph unicode="&#x2024;" horiz-adv-x="333" d="M164 146q32 0 56 -22.5t24 -59.5q0 -35 -21 -55.5t-54 -20.5q-32 0 -56 23t-24 60q0 35 21 55t54 20z" />
<glyph unicode="&#x2025;" horiz-adv-x="667" d="M164 146q32 0 56 -22.5t24 -59.5q0 -35 -21 -55.5t-54 -20.5q-32 0 -56 23t-24 60q0 35 21 55t54 20zM498 146q32 0 56 -22.5t24 -59.5q0 -35 -21 -55.5t-54 -20.5q-32 0 -56 23t-24 60q0 35 21 55t54 20z" />
<glyph unicode="&#x2026;" horiz-adv-x="1000" d="M164 146q32 0 56 -22.5t24 -59.5q0 -35 -21 -55.5t-54 -20.5q-32 0 -56 23t-24 60q0 35 21 55t54 20zM830 146q32 0 56 -22.5t24 -59.5q0 -35 -21 -55.5t-54 -20.5q-32 0 -56 23t-24 60q0 35 21 55t54 20zM497 146q32 0 56 -22.5t24 -59.5q0 -35 -21 -55.5t-54 -20.5 q-32 0 -56 23t-24 60q0 35 21 55t54 20z" />
<glyph unicode="&#x2030;" horiz-adv-x="1290" d="M352 0h-62q-38 0 -26 30l281 670h62q38 0 26 -30zM397 528q0 -81 -50.5 -130.5t-124.5 -49.5t-124.5 49.5t-50.5 130.5t50.5 130.5t124.5 49.5t124.5 -49.5t50.5 -130.5zM286 526q0 42 -18.5 66t-49.5 24q-27 0 -44 -22.5t-17 -61.5q0 -43 19 -67t50 -24q27 0 43.5 22.5 t16.5 62.5zM852 172q0 -81 -50 -130.5t-124 -49.5t-124.5 49.5t-50.5 130.5t50.5 130.5t124.5 49.5t124 -49.5t50 -130.5zM742 170q0 42 -18.5 66t-49.5 24q-27 0 -44 -22.5t-17 -61.5q0 -43 19 -67t50 -24q27 0 43.5 22.5t16.5 62.5zM1243 172q0 -81 -50.5 -130.5 t-123.5 -49.5q-74 0 -124.5 49.5t-50.5 130.5t50.5 130.5t124.5 49.5q73 0 123.5 -49.5t50.5 -130.5zM1133 170q0 42 -18.5 66t-49.5 24q-27 0 -44 -22.5t-17 -61.5q0 -43 19 -67t50 -24q27 0 43.5 22.5t16.5 62.5z" />
<glyph unicode="&#x2032;" horiz-adv-x="332" d="M172 417h-68q-18 0 -27 6.5t-6 19.5l58 251q38 13 92 13q50 0 38 -38z" />
<glyph unicode="&#x2033;" horiz-adv-x="530" d="M172 417h-68q-18 0 -27 6.5t-6 19.5l58 251q38 13 92 13q50 0 38 -38zM364 417h-67q-19 0 -27.5 6.5t-5.5 19.5l64 251q38 13 92 13q52 0 37 -40z" />
<glyph unicode="&#x2039;" horiz-adv-x="357" d="M296 101l-223 157q-17 13 -17 36v60l205 144q12 9 20 9q20 0 20 -30q0 -22 -8 -68l-144 -97l130 -88q17 -12 17 -34v-89z" />
<glyph unicode="&#x203a;" horiz-adv-x="357" d="M284 258l-223 -157v89q0 22 17 34l129 88l-143 97q-8 37 -8 68q0 30 19 30q9 0 21 -9l205 -144v-60q0 -23 -17 -36z" />
<glyph unicode="&#x203c;" horiz-adv-x="573" d="M160 -12q-33 0 -57 21.5t-24 56.5q0 34 21.5 54t55.5 20q33 0 57 -21.5t24 -57.5q0 -34 -21.5 -53.5t-55.5 -19.5zM102 216q-18 138 -18 358v122q51 12 106 12q42 0 42 -32v-102q0 -177 -20 -385h-76q-31 0 -34 27zM417 -12q-33 0 -57 21.5t-24 56.5q0 34 21.5 54 t55.5 20q33 0 57 -21.5t24 -57.5q0 -34 -21.5 -53.5t-55.5 -19.5zM359 216q-18 138 -18 358v122q51 12 106 12q42 0 42 -32v-102q0 -177 -20 -385h-76q-31 0 -34 27z" />
<glyph unicode="&#x203e;" horiz-adv-x="420" d="M78 690h247q24 0 24 -30v-57h-253q-26 0 -26 32q0 23 8 55z" />
<glyph unicode="&#x2044;" horiz-adv-x="191" d="M-1 0h-62q-38 0 -26 30l281 670h62q38 0 26 -30z" />
<glyph unicode="&#x2070;" d="M373 492q0 -102 -45.5 -159t-125.5 -57t-125.5 57t-45.5 159t45.5 159t125.5 57t125.5 -57t45.5 -159zM270 487q0 138 -71 138q-65 0 -65 -128q0 -138 71 -138q65 0 65 128z" />
<glyph unicode="&#x2071;" d="M147 368v211q37 10 66 10q31 0 31 -24v-189q0 -22 16 -22h19q5 -18 5 -32q0 -16 -17 -29.5t-45 -13.5q-75 0 -75 89zM195 625q-21 0 -37 14t-16 37t14.5 36t36.5 13t38 -14.5t16 -36.5q0 -23 -14.5 -36t-37.5 -13z" />
<glyph unicode="&#x2074;" d="M228 438v156q-29 -29 -58 -74t-42 -82h100zM379 412v-52h-51v-76h-72q-28 0 -28 22v54h-159q-21 0 -29 17q-10 20 -13 48q21 73 71.5 146.5t106.5 114.5q41 19 86 19q22 0 29.5 -6t7.5 -22v-239h27q24 0 24 -26z" />
<glyph unicode="&#x2075;" d="M179 358q76 0 76 60q0 30 -21.5 44.5t-56.5 14.5q-28 0 -60 -6q-14 -2 -19 -2q-10 0 -22 9l-13 11l28 211h228q24 0 24 -26v-54h-163l-10 -68q13 4 39 4q66 0 107.5 -37t41.5 -100t-44.5 -103t-121.5 -40q-57 0 -101 21.5t-44 42.5q0 23 14 45q57 -27 118 -27z" />
<glyph unicode="&#x2076;" d="M271 570q-12 54 -57 54q-31 0 -52 -24t-23 -74q31 23 88 23q63 0 104 -37t41 -96q0 -61 -43 -100.5t-115 -39.5q-80 0 -130.5 56.5t-50.5 147.5v8q0 101 50 160.5t129 59.5q96 0 136 -68q9 -16 9 -25q0 -15 -20 -26q-26 -14 -66 -19zM202 471q-36 0 -64 -18 q4 -46 25.5 -71.5t53.5 -25.5q23 0 38.5 14.5t15.5 40.5q0 29 -19 44.5t-50 15.5z" />
<glyph unicode="&#x2077;" d="M361 639q-103 -176 -146 -355h-75q-35 0 -25 34q39 146 127 300h-173q-27 0 -27 28q0 22 6 54h262q26 0 36 -18q10 -17 15 -43z" />
<glyph unicode="&#x2078;" d="M351 593q0 -26 -15.5 -49t-41.5 -36q78 -41 78 -106q0 -57 -46.5 -91.5t-123.5 -34.5t-123.5 34.5t-46.5 90.5q0 30 20 56t56 39q-60 35 -60 94q0 50 40.5 84t111.5 34q70 0 110.5 -33t40.5 -82zM265 399q0 21 -17 34.5t-64 28.5q-47 -26 -47 -62q0 -20 18 -32.5 t46 -12.5t46 12.5t18 31.5zM151 593q0 -17 15.5 -30t51.5 -26q31 26 31 55q0 17 -13.5 27t-35.5 10t-35.5 -10t-13.5 -26z" />
<glyph unicode="&#x2079;" d="M179 430q-63 0 -105 39t-42 99q0 61 43.5 100.5t113.5 39.5q80 0 131 -56t51 -146v-11q0 -107 -52 -163t-136 -56q-51 0 -88.5 20.5t-37.5 41.5q0 27 14 47q40 -27 97 -27q40 0 67.5 22.5t30.5 72.5q-36 -23 -87 -23zM187 625q-21 0 -36 -14.5t-15 -39.5 q0 -28 17.5 -44.5t47.5 -16.5q39 0 64 19q-3 46 -24 71t-54 25z" />
<glyph unicode="&#x207a;" d="M348 502v-46h-100v-114h-64q-16 0 -22 5t-6 17v92h-77q-24 0 -24 27q0 25 6 45h95v106q29 9 61 9q20 0 25.5 -8.5t5.5 -27.5v-79h77q13 0 18 -5.5t5 -20.5z" />
<glyph unicode="&#x207b;" d="M348 501v-45h-269q-24 0 -24 27q0 24 6 45h264q13 0 18 -6t5 -21z" />
<glyph unicode="&#x207c;" d="M348 567v-46h-269q-24 0 -24 27q0 26 6 45h264q13 0 18 -5.5t5 -20.5zM348 436v-46h-269q-24 0 -24 27q0 25 6 45h264q13 0 18 -5.5t5 -20.5z" />
<glyph unicode="&#x207d;" d="M134 492q0 144 76 236q23 27 42 27q24 0 46 -39q-67 -102 -67 -224t67 -224q-20 -39 -45 -39q-20 0 -43 27q-76 92 -76 236z" />
<glyph unicode="&#x207e;" d="M270 492q0 -144 -76 -236q-23 -27 -43 -27q-23 0 -45 39q67 102 67 224t-67 224q7 14 20 26.5t25 12.5q20 0 43 -27q76 -92 76 -236z" />
<glyph unicode="&#x207f;" d="M147 283h-68q-30 0 -30 21v295q37 10 66 10q32 0 32 -24v-14q38 40 95 40q51 0 78.5 -35t27.5 -99v-101q0 -22 15 -22h19q5 -18 5 -32q0 -16 -16.5 -29.5t-44.5 -13.5q-76 0 -76 89v100q0 68 -44 68q-34 0 -59 -22v-231z" />
<glyph unicode="&#x2080;" d="M374 81q0 -102 -45.5 -159t-125.5 -57t-125.5 57t-45.5 159t45.5 159t125.5 57t125.5 -57t45.5 -159zM271 76q0 138 -71 138q-65 0 -65 -128q0 -138 71 -138q65 0 65 128z" />
<glyph unicode="&#x2081;" d="M78 210l122 79h56q28 0 28 -23v-393h-76q-28 0 -28 22v279l-68 -42q-28 14 -44 38q-6 10 -6 18q0 12 16 22z" />
<glyph unicode="&#x2082;" d="M357 -72v-55h-256q-24 0 -35 20q-8 14 -12 49q83 41 139.5 96.5t56.5 115.5q0 27 -15.5 42.5t-38.5 15.5q-46 0 -61 -68q-44 2 -72 17q-19 10 -19 25q0 16 5 27q16 37 57 60.5t91 23.5q71 0 114 -39.5t43 -106.5q0 -109 -128 -196h106q25 0 25 -27z" />
<glyph unicode="&#x2083;" d="M173 52q-25 1 -34 16q-12 22 -15 45l85 94h-130q-28 0 -28 28q0 26 7 54h233q24 0 35 -16q12 -20 15 -42l-105 -115q54 -10 85.5 -41t31.5 -80q0 -58 -45 -94t-122 -36q-55 0 -98.5 21.5t-43.5 43.5q0 26 13 45q61 -28 117 -28q76 0 76 49q0 50 -77 56z" />
<glyph unicode="&#x2084;" d="M229 27v156q-29 -29 -58 -74t-42 -82h100zM380 1v-52h-51v-76h-72q-28 0 -28 22v54h-159q-20 0 -29 17q-10 20 -13 48q21 73 71.5 146.5t106.5 114.5q41 19 86 19q22 0 29.5 -6t7.5 -22v-239h27q24 0 24 -26z" />
<glyph unicode="&#x2085;" d="M180 -53q76 0 76 60q0 30 -21.5 44.5t-56.5 14.5q-28 0 -60 -6q-14 -2 -19 -2q-10 0 -22 9l-13 11l28 211h228q24 0 24 -26v-54h-163l-10 -68q13 4 39 4q66 0 107.5 -37t41.5 -100t-44.5 -103t-121.5 -40q-57 0 -101 21.5t-44 42.5q0 23 14 45q57 -27 118 -27z" />
<glyph unicode="&#x2086;" d="M272 159q-12 54 -57 54q-31 0 -52 -24t-23 -74q31 23 88 23q63 0 104 -37t41 -96q0 -61 -43 -100.5t-115 -39.5q-80 0 -130.5 56.5t-50.5 147.5v8q0 101 50 160.5t129 59.5q96 0 136 -68q9 -16 9 -25q0 -15 -20 -26q-26 -14 -66 -19zM203 60q-36 0 -64 -18 q4 -46 25.5 -71.5t53.5 -25.5q23 0 38.5 14.5t15.5 40.5q0 29 -19 44.5t-50 15.5z" />
<glyph unicode="&#x2087;" d="M361 228q-103 -176 -146 -355h-75q-35 0 -25 34q39 146 127 300h-173q-27 0 -27 28q0 22 6 54h262q26 0 36 -18q10 -17 15 -43z" />
<glyph unicode="&#x2088;" d="M352 182q0 -26 -15.5 -49t-41.5 -36q78 -41 78 -106q0 -57 -46.5 -91.5t-123.5 -34.5t-123.5 34.5t-46.5 90.5q0 30 20 56t56 39q-60 35 -60 94q0 50 40.5 84t111.5 34q70 0 110.5 -33t40.5 -82zM266 -12q0 21 -17 34.5t-64 28.5q-47 -26 -47 -62q0 -20 18 -32.5 t46 -12.5t46 12.5t18 31.5zM152 182q0 -17 15.5 -30t51.5 -26q31 26 31 55q0 17 -13.5 27t-35.5 10t-35.5 -10t-13.5 -26z" />
<glyph unicode="&#x2089;" d="M180 19q-63 0 -105 39t-42 99q0 61 43.5 100.5t113.5 39.5q80 0 131 -56t51 -146v-11q0 -107 -52 -163t-136 -56q-51 0 -88.5 20.5t-37.5 41.5q0 27 14 47q40 -27 97 -27q40 0 67.5 22.5t30.5 72.5q-36 -23 -87 -23zM188 214q-21 0 -36 -14.5t-15 -39.5q0 -28 17.5 -44.5 t47.5 -16.5q39 0 64 19q-3 46 -24 71t-54 25z" />
<glyph unicode="&#x208a;" d="M349 91v-46h-100v-114h-64q-16 0 -22 5t-6 17v92h-77q-24 0 -24 27q0 26 6 45h95v106q29 9 61 9q20 0 25.5 -8.5t5.5 -27.5v-79h77q13 0 18 -5.5t5 -20.5z" />
<glyph unicode="&#x208b;" d="M349 90v-45h-269q-24 0 -24 27q0 24 6 45h264q13 0 18 -6t5 -21z" />
<glyph unicode="&#x208c;" d="M349 156v-46h-269q-24 0 -24 27q0 25 6 45h264q13 0 18 -5.5t5 -20.5zM349 25v-46h-269q-24 0 -24 27q0 26 6 45h264q13 0 18 -5.5t5 -20.5z" />
<glyph unicode="&#x208d;" d="M147 81q0 144 76 236q23 27 42 27q24 0 46 -39q-67 -102 -67 -224t67 -224q-19 -39 -45 -39q-20 0 -43 27q-76 92 -76 236z" />
<glyph unicode="&#x208e;" d="M268 81q0 -144 -76 -236q-23 -27 -43 -27q-23 0 -45 39q67 102 67 224t-67 224q7 14 20 26.5t25 12.5q20 0 43 -27q76 -92 76 -236z" />
<glyph unicode="&#x2090;" d="M162 128q-44 0 -85 -19q-14 19 -14 37t36.5 36.5t84.5 18.5q69 0 106 -33t37 -97v-105q0 -23 15 -23h19q6 -15 6 -33t-17 -30t-44 -12q-48 0 -64 40q-34 -43 -89 -43q-50 0 -83 30t-33 76q0 49 36 78t96 29q31 0 62 -9v7q0 52 -69 52zM174 -60q40 0 57 36v28q-16 4 -46 4 q-51 0 -51 -35q0 -16 11.5 -24.5t28.5 -8.5z" />
<glyph unicode="&#x2091;" d="M219 -135q-73 0 -120.5 48t-47.5 120q0 76 48 122t120 46q63 0 100.5 -33.5t37.5 -87.5q0 -30 -11 -54q-13 -27 -55 -27h-139q12 -59 87 -59q44 0 78 17q11 -20 11 -39t-31 -36t-78 -17zM218 128q-26 0 -43.5 -16t-22.5 -44h110q4 8 4 16q0 44 -48 44z" />
<glyph unicode="&#x2092;" d="M368 34q0 -78 -48.5 -123.5t-117.5 -45.5t-117.5 45.5t-48.5 123.5q0 77 48.5 122t117.5 45t117.5 -45t48.5 -122zM270 29q0 45 -20 70.5t-50 25.5q-29 0 -47 -22t-18 -66q0 -45 20 -70.5t50 -25.5q29 0 47 22t18 66z" />
<glyph unicode="&#x2093;" d="M306 -132q-36 0 -68 41l-46 61q-30 -39 -50 -97h-68q-35 0 -23 30q27 69 91 132l-92 121q38 42 66 42q17 0 25 -12l66 -87q31 40 49 95h68q34 0 23 -30q-26 -69 -90 -131l53 -70q15 -20 28 -20h18q6 -15 6 -33q0 -16 -15.5 -29t-40.5 -13z" />
<glyph unicode="&#x2094;" d="M185 201q73 0 120.5 -48t47.5 -120q0 -76 -48 -122t-120 -46q-63 0 -100.5 33.5t-37.5 87.5q0 30 11 54q13 27 55 27h139q-12 59 -87 59q-44 0 -78 -17q-11 20 -11 39t31 36t78 17zM186 -62q26 0 43.5 16t22.5 44h-110q-4 -8 -4 -16q0 -44 48 -44z" />
<glyph unicode="&#x20a0;" horiz-adv-x="795" d="M757 0h-185q-86 0 -127.5 44.5t-41.5 144.5v34q-38 -20 -105 -20q-111 0 -186 74t-75 195q0 109 67.5 174.5t169.5 65.5q137 0 188 -96q7 -11 7 -27q0 -18 -31.5 -32t-67.5 -16q-24 69 -96 69q-47 0 -76.5 -37.5t-29.5 -98.5q0 -80 42.5 -126t115.5 -46q43 0 77 11v178 h318q26 0 26 -33q0 -38 -7 -69h-206v-90h150q25 0 25 -31v-70h-175v-9q0 -50 13.5 -69.5t48.5 -19.5h136q25 0 25 -31v-69z" />
<glyph unicode="&#x20a1;" horiz-adv-x="695" d="M531 766l-18 -79q94 -38 136 -119q8 -15 8 -32q0 -20 -24 -34q-39 -24 -96 -27q-19 51 -54 81l-101 -443q37 -8 72 -8q92 0 160 36q20 -32 20 -63q0 -30 -63.5 -60t-144.5 -30q-25 0 -71 6l-18 -82h-26q-15 0 -20.5 5t-3.5 17l16 72q-27 8 -49 19l-25 -113h-26 q-15 0 -20.5 5t-3.5 17l27 118q-73 50 -114 132t-41 186q0 149 86 241t218 100l18 77h26q15 0 20.5 -5t3.5 -17l-13 -55q34 -4 52 -8l19 85h26q15 0 20.5 -5t3.5 -17zM193 373q0 -100 48 -168l87 384q-60 -17 -97.5 -73t-37.5 -143zM285 158q20 -16 46 -28l104 455 q-28 9 -51 10z" />
<glyph unicode="&#x20a2;" horiz-adv-x="695" d="M537 475q-44 120 -164 120q-76 0 -128 -59t-52 -163q0 -159 113 -229v278q30 9 90 9q27 0 27 -23v-50q13 31 45.5 52t72.5 21q26 0 48.5 -10.5t22.5 -33.5q0 -17 -14 -37t-36 -34q-22 15 -54 15q-68 0 -85 -80v-145q10 -1 31 -1q92 0 160 36q20 -32 20 -63 q0 -30 -63.5 -60t-144.5 -30q-163 0 -269 105t-106 277q0 156 93.5 249t234.5 93q94 0 165 -39t105 -105q8 -15 8 -32q0 -20 -24 -34q-39 -24 -96 -27z" />
<glyph unicode="&#x20a3;" horiz-adv-x="557" d="M16 426h68v274h410q29 0 29 -36q0 -42 -9 -80h-290v-158h221q21 0 21 -28v-32h-242v-64h221q21 0 21 -28v-31h-242v-243h-106q-34 0 -34 26v217h-55q-19 0 -19 20q0 21 6 39h68v64h-55q-19 0 -19 21q0 20 6 39z" />
<glyph unicode="&#x20a4;" horiz-adv-x="605" d="M52 406h60v69q0 110 61 173.5t166 63.5q76 0 131 -37t81 -97q8 -19 8 -32q0 -20 -24 -34q-37 -21 -95 -25q-11 55 -37.5 81.5t-62.5 26.5q-40 0 -63.5 -29t-23.5 -86v-74h173q21 0 21 -28v-32h-194v-63h173q21 0 21 -28v-32h-196q-6 -73 -44 -107h333q27 0 27 -34v-82 h-483q-27 0 -27 34v69q49 39 54 120h-45q-19 0 -19 21q0 19 5 39h60v63h-46q-19 0 -19 21q0 19 5 39z" />
<glyph unicode="&#x20a6;" horiz-adv-x="725" d="M15 328h69v43h-55q-19 0 -19 21q0 19 5 39h69v236q22 17 51 29t47 12q24 0 38 -21l153 -256h123v269h106q34 0 34 -27v-242h58q21 0 21 -28v-32h-79v-43h58q21 0 21 -28v-32h-79v-235q-22 -17 -51 -29t-47 -12q-26 0 -38 21l-152 255h-124v-268h-106q-34 0 -34 27v241 h-55q-19 0 -19 21q0 19 5 39zM224 371v-43h88l-26 43h-62zM409 371l25 -43h62v43h-87zM224 475v-44h26zM470 268l26 -43v43h-26z" />
<glyph unicode="&#x20a7;" horiz-adv-x="1210" d="M260 189q-24 0 -39 3v-192h-103q-34 0 -34 26v674h166q91 0 155.5 -43.5t88.5 -122.5h68v148q42 12 91 12q39 0 39 -30v-130h130q23 0 26 -26q48 38 127 38q123 0 176 -90q9 -16 9 -28q0 -18 -18 -29q-39 -24 -87 -27q-18 69 -74 69q-26 0 -41.5 -15t-15.5 -37 q0 -28 19 -42.5t65 -28.5q80 -24 118 -61.5t38 -98.5q0 -75 -51.5 -116.5t-154.5 -41.5h-209q-89 0 -138 50.5t-49 146.5v230h-55q-4 -109 -75 -173t-172 -65zM774 107h166q51 0 70 10.5t19 35.5q0 24 -16.5 38t-58.5 25q-163 42 -163 171q0 19 6 40h-105v-238q0 -82 82 -82 zM221 587v-279q10 -2 31 -2q49 0 83 36.5t34 103.5t-33 104t-82 37h-33z" />
<glyph unicode="&#x20a8;" horiz-adv-x="1002" d="M476 -12q-83 0 -129 84q-37 67 -59 137h-21q-22 0 -43 4v-213h-106q-34 0 -34 26v674h169q131 0 206 -65.5t75 -180.5q0 -145 -120 -209q24 -59 50 -101q27 -44 71 -44h21q10 -25 10 -52q0 -26 -25 -43t-65 -17zM847 372q-18 66 -77 66q-25 0 -37 -13.5t-12 -34.5 q0 -31 20 -48.5t64 -32.5q75 -26 112.5 -65t37.5 -98q0 -70 -49.5 -114t-135.5 -44q-73 0 -120 26t-47 56q0 33 19 57q70 -35 130 -35q33 0 53.5 13.5t20.5 34.5q0 22 -16 37t-53 27q-87 28 -127.5 72t-40.5 109q0 72 50.5 116.5t131.5 44.5q118 0 172 -90q8 -14 8 -28 q0 -17 -14 -26q-39 -25 -90 -30zM224 585v-260q10 -1 30 -1q63 0 99.5 33t36.5 97t-35.5 97.5t-99.5 33.5h-31z" />
<glyph unicode="&#x20a9;" horiz-adv-x="1122" d="M15 314h136l-16 52h-106q-19 0 -19 21q0 19 5 39h101l-74 242q62 40 107 40q31 0 39 -27l70 -255h162q35 128 60 274h109q49 0 58 -33l65 -241h162q38 144 60 274h95q27 0 38 -10.5t7 -30.5q-22 -108 -58 -233h75q21 0 21 -28v-32h-115q-5 -18 -17 -52h111q21 0 21 -28 v-32h-153q-36 -99 -88 -224q-12 -30 -58 -30h-106l-69 254h-146q-39 -119 -85 -224q-13 -30 -58 -30h-101l-79 254h-140q-19 0 -19 21q0 19 5 39zM387 314q7 21 16 52h-128l14 -52h98zM841 314q10 34 15 52h-127l14 -52h98zM526 366q-12 -40 -16 -52h112l-14 52h-82z M332 161q18 43 36 93h-62zM785 161q21 50 35 93h-61zM565 525q-19 -82 -23 -99h50z" />
<glyph unicode="&#x20aa;" horiz-adv-x="929" d="M637 252h-104q-34 0 -34 26v136q0 98 -30 134t-96 36h-152v-584h-103q-34 0 -34 26v674h288q136 0 200.5 -69.5t64.5 -220.5v-158zM291 289v147q48 12 98 12q40 0 40 -31v-132q0 -98 30 -134t96 -36h152v585h103q34 0 34 -27v-673h-288q-136 0 -200.5 69.5t-64.5 219.5z " />
<glyph unicode="&#x20ab;" horiz-adv-x="664" d="M282 639h156v61h99q34 0 34 -28v-33h35q25 0 25 -32v-43h-60v-418q0 -48 36 -48h23q7 -26 7 -46q0 -22 -25 -40t-63 -18q-36 0 -65.5 23t-40.5 69q-28 -48 -73.5 -73t-97.5 -25q-96 0 -161 66t-65 171q0 124 76 202t176 78q88 0 140 -49v108h-135q-27 0 -27 24q0 30 6 51 zM146 -77h412q25 0 25 -32v-60h-415q-30 0 -30 34t8 58zM438 205v157q-39 35 -102 35q-66 0 -110.5 -47t-44.5 -121q0 -60 33 -97t92 -37q42 0 77 28t55 82z" />
<glyph unicode="&#x20ac;" horiz-adv-x="695" d="M6 436h50q20 128 109 202t214 74q94 0 164.5 -39.5t104.5 -105.5q9 -17 9 -31q0 -21 -23 -33q-46 -25 -98 -29q-42 120 -164 120q-63 0 -111 -41.5t-63 -116.5h209q21 0 21 -28v-32h-235v-12q0 -20 4 -52h210q21 0 21 -28v-31h-213q61 -148 250 -148q81 0 148 35 q20 -30 20 -62t-60.5 -61t-146.5 -29q-132 0 -229 70.5t-131 194.5h-46q-19 0 -19 20q0 19 5 39h48q-3 24 -3 50v14h-31q-19 0 -19 21q0 17 5 39z" />
<glyph unicode="&#x2105;" horiz-adv-x="1054" d="M410 0h-62q-38 0 -26 30l281 670h62q38 0 26 -30zM396 346q0 -22 -41 -44t-96 -22q-93 0 -157.5 65t-64.5 163q0 92 56.5 148t144.5 56q57 0 100.5 -23.5t63.5 -61.5q6 -11 6 -23q0 -15 -21 -27q-24 -16 -67 -21q-21 67 -86 67q-36 0 -60.5 -29.5t-24.5 -83.5 q0 -64 37.5 -102.5t99.5 -38.5q53 0 94 25q16 -23 16 -48zM806 424q89 0 150 -57.5t61 -158.5t-61 -158.5t-150 -57.5q-87 0 -148 57.5t-61 158.5t61 158.5t148 57.5zM810 81q41 0 67.5 31t26.5 91q0 59 -28 95.5t-73 36.5q-41 0 -67.5 -31.5t-26.5 -90.5t28 -95.5t73 -36.5 z" />
<glyph unicode="&#x2109;" horiz-adv-x="881" d="M199 494q27 0 43.5 19.5t16.5 48.5q0 30 -18 51.5t-46 21.5t-44 -19.5t-16 -49.5t18 -51t46 -21zM197 417q-67 0 -111 42t-44 105t44 105.5t111 42.5q66 0 110 -42.5t44 -105.5t-44 -105t-110 -42zM547 0h-106q-34 0 -34 26v674h410q29 0 29 -36q0 -42 -9 -80h-290v-192 h218q27 0 27 -34v-82h-245v-276z" />
<glyph unicode="&#x2113;" horiz-adv-x="557" d="M43 237q20 7 89 34v201q0 119 53 179.5t146 60.5q75 0 125 -49.5t50 -132.5q0 -191 -243 -322v-27q0 -88 53 -88q44 0 81 56l54 -23q40 -17 20 -47q-61 -91 -164 -91q-74 0 -118.5 42.5t-53.5 122.5q-30 -13 -58 -21q-30 23 -46 55q-19 39 12 50zM263 479v-139 q115 80 115 193q0 36 -14 55t-36 19q-65 0 -65 -128z" />
<glyph unicode="&#x2116;" horiz-adv-x="958" d="M379 15l-165 412v-427h-96q-34 0 -34 26v643q48 38 90 38q27 0 36 -23l165 -412v428h96q34 0 34 -27v-643q-47 -37 -90 -37q-27 0 -36 22zM929 335q0 -90 -53 -144t-134 -54q-80 0 -133 54t-53 144t53 144t133 54q81 0 134 -54t53 -144zM676 339q0 -47 19 -73t52 -26 q29 0 45 25t16 69q0 47 -18 73t-51 26q-30 0 -46.5 -25t-16.5 -69zM913 0h-313q-28 0 -28 34q0 36 10 66h302q29 0 29 -32v-68z" />
<glyph unicode="&#x2117;" horiz-adv-x="824" d="M376 158h-76q-23 0 -23 19v361h156q71 0 111.5 -37.5t40.5 -103.5q0 -62 -41.5 -98.5t-105.5 -36.5q-36 0 -62 8v-112zM376 462v-119q13 -4 36 -4q74 0 74 61q0 62 -78 62h-32zM50 350q0 150 106 256t256 106t256 -106t106 -256t-106 -256t-256 -106t-256 106t-106 256z M106 350q0 -129 89.5 -219.5t216.5 -90.5t216.5 90.5t89.5 219.5q0 128 -89.5 219t-216.5 91t-216.5 -91t-89.5 -219z" />
<glyph unicode="&#x2120;" horiz-adv-x="757" d="M194 560q102 -32 102 -107q0 -45 -34 -72t-93 -27q-44 0 -77.5 16.5t-33.5 33.5q0 23 14 39q41 -23 88 -23t47 30q0 26 -52 42q-109 34 -109 114q0 45 33.5 73.5t88.5 28.5q37 0 70.5 -16.5t46.5 -39.5q6 -10 6 -22q0 -13 -16 -21q-20 -10 -56 -15q-14 47 -50 47 q-16 0 -25 -9t-9 -24q0 -29 59 -48zM632 375l-21 199l-52 -103q-5 -12 -25 -12h-42l-58 115l-23 -217h-60q-12 0 -18 4.5t-5 14.5l34 309q30 20 57 20q18 0 26 -15l77 -146l83 156h55q22 0 24 -18l35 -325h-62q-24 0 -25 18z" />
<glyph unicode="&#x2121;" horiz-adv-x="1064" d="M295 0h-97q-34 0 -34 26v564h-94q-28 0 -28 35q0 42 9 75h339q27 0 27 -34v-76h-122v-590zM707 0h-135q-87 0 -126.5 46t-39.5 141v333h266q27 0 27 -34q0 -35 -9 -71h-157v-104h108q25 0 25 -32v-72h-133v-16q0 -50 14 -68.5t50 -18.5h84q26 0 26 -32v-72zM891 497v-300 q0 -55 13 -74t51 -19h55q25 0 25 -32v-72h-96q-175 0 -175 192v322q46 12 90 12q37 0 37 -29z" />
<glyph unicode="&#x2122;" horiz-adv-x="754" d="M209 357h-63q-23 0 -23 17v260h-74q-21 0 -21 22q0 19 5 44h249q21 0 21 -22v-44h-94v-277zM628 375l-21 199l-51 -103q-7 -12 -26 -12h-41l-59 115l-22 -217h-60q-12 0 -18 4.5t-5 14.5l34 309q30 20 57 20q18 0 26 -15l77 -146l82 156h56q22 0 24 -18l35 -325h-63 q-23 0 -25 18z" />
<glyph unicode="&#x2126;" horiz-adv-x="790" d="M723 81v-81h-290v71q0 29 29 48q130 88 130 239q0 114 -56.5 175t-141.5 61t-141 -61t-56 -175q0 -156 129 -239q30 -19 30 -48v-71h-261q-29 0 -29 35q0 43 9 80h114q-59 39 -96 107t-37 146q0 154 94.5 249t243.5 95q150 0 244.5 -95t94.5 -249q0 -78 -37 -146 t-96 -107h96q27 0 27 -34z" />
<glyph unicode="&#x212e;" horiz-adv-x="782" d="M391 650q-111 0 -175 -61v-212h349v213q-65 60 -174 60zM658 97q0 -15 -31.5 -39.5t-94.5 -47t-133 -22.5q-146 0 -242.5 99t-96.5 263q0 155 89.5 258.5t245.5 103.5q150 0 238.5 -104t88.5 -262v-30h-506v-194q68 -73 186 -73q144 0 235 82q21 -21 21 -34z" />
<glyph unicode="&#x2153;" horiz-adv-x="968" d="M77 621l122 79h56q28 0 28 -23v-393h-76q-28 0 -28 22v279l-68 -42q-28 14 -44 38q-6 11 -6 18q0 12 16 22zM385 0h-62q-38 0 -26 30l281 670h62q38 0 26 -30zM737 179q-25 1 -34 16q-12 22 -15 45l85 94h-130q-28 0 -28 28q0 26 7 54h233q24 0 35 -16q12 -20 15 -42 l-105 -115q54 -10 85.5 -41.5t31.5 -79.5q0 -58 -45 -94t-122 -36q-55 0 -98.5 21.5t-43.5 43.5q0 25 13 45q61 -28 117 -28q76 0 76 49q0 50 -77 56z" />
<glyph unicode="&#x2154;" horiz-adv-x="968" d="M356 339v-55h-256q-24 0 -35 20q-8 14 -12 49q83 41 139.5 96.5t56.5 115.5q0 27 -15.5 42.5t-38.5 15.5q-46 0 -61 -68q-44 2 -72 17q-19 10 -19 25q0 16 5 27q16 37 57 60.5t91 23.5q71 0 114 -39.5t43 -106.5q0 -109 -128 -196h106q25 0 25 -27zM385 0h-62 q-38 0 -26 30l281 670h62q38 0 26 -30zM737 179q-25 1 -34 16q-12 22 -15 45l85 94h-130q-28 0 -28 28q0 26 7 54h233q24 0 35 -16q12 -20 15 -42l-105 -115q54 -10 85.5 -41.5t31.5 -79.5q0 -58 -45 -94t-122 -36q-55 0 -98.5 21.5t-43.5 43.5q0 25 13 45q61 -28 117 -28 q76 0 76 49q0 50 -77 56z" />
<glyph unicode="&#x2155;" horiz-adv-x="968" d="M77 621l122 79h56q28 0 28 -23v-393h-76q-28 0 -28 22v279l-68 -42q-28 14 -44 38q-6 11 -6 18q0 12 16 22zM385 0h-62q-38 0 -26 30l281 670h62q38 0 26 -30zM742 75q76 0 76 60q0 30 -21.5 44.5t-56.5 14.5q-28 0 -60 -6q-14 -2 -19 -2q-10 0 -22 9l-13 11l28 211h228 q24 0 24 -26v-54h-163l-10 -68q13 4 39 4q66 0 107.5 -37t41.5 -100t-44.5 -103t-121.5 -40q-57 0 -101 21.5t-44 42.5q0 23 14 45q57 -27 118 -27z" />
<glyph unicode="&#x2156;" horiz-adv-x="968" d="M356 339v-55h-256q-24 0 -35 20q-8 14 -12 49q83 41 139.5 96.5t56.5 115.5q0 27 -15.5 42.5t-38.5 15.5q-46 0 -61 -68q-44 2 -72 17q-19 10 -19 25q0 16 5 27q16 37 57 60.5t91 23.5q71 0 114 -39.5t43 -106.5q0 -109 -128 -196h106q25 0 25 -27zM385 0h-62 q-38 0 -26 30l281 670h62q38 0 26 -30zM742 75q76 0 76 60q0 30 -21.5 44.5t-56.5 14.5q-28 0 -60 -6q-14 -2 -19 -2q-10 0 -22 9l-13 11l28 211h228q24 0 24 -26v-54h-163l-10 -68q13 4 39 4q66 0 107.5 -37t41.5 -100t-44.5 -103t-121.5 -40q-57 0 -101 21.5t-44 42.5 q0 23 14 45q57 -27 118 -27z" />
<glyph unicode="&#x2157;" horiz-adv-x="968" d="M172 463q-25 1 -34 16q-12 22 -15 45l85 94h-130q-28 0 -28 28q0 26 7 54h233q24 0 35 -16q12 -20 15 -42l-105 -115q54 -10 85.5 -41.5t31.5 -79.5q0 -58 -45 -94t-122 -36q-55 0 -98.5 21.5t-43.5 43.5q0 25 13 45q61 -28 117 -28q76 0 76 49q0 50 -77 56zM385 0h-62 q-38 0 -26 30l281 670h62q38 0 26 -30zM742 75q76 0 76 60q0 30 -21.5 44.5t-56.5 14.5q-28 0 -60 -6q-14 -2 -19 -2q-10 0 -22 9l-13 11l28 211h228q24 0 24 -26v-54h-163l-10 -68q13 4 39 4q66 0 107.5 -37t41.5 -100t-44.5 -103t-121.5 -40q-57 0 -101 21.5t-44 42.5 q0 23 14 45q57 -27 118 -27z" />
<glyph unicode="&#x2158;" horiz-adv-x="968" d="M228 438v156q-29 -29 -58 -74t-42 -82h100zM379 412v-52h-51v-76h-72q-28 0 -28 22v54h-159q-21 0 -29 17q-10 20 -13 48q21 73 71.5 146.5t106.5 114.5q41 19 86 19q22 0 29.5 -6t7.5 -22v-239h27q24 0 24 -26zM385 0h-62q-38 0 -26 30l281 670h62q38 0 26 -30zM742 75 q76 0 76 60q0 30 -21.5 44.5t-56.5 14.5q-28 0 -60 -6q-14 -2 -19 -2q-10 0 -22 9l-13 11l28 211h228q24 0 24 -26v-54h-163l-10 -68q13 4 39 4q66 0 107.5 -37t41.5 -100t-44.5 -103t-121.5 -40q-57 0 -101 21.5t-44 42.5q0 23 14 45q57 -27 118 -27z" />
<glyph unicode="&#x2159;" horiz-adv-x="968" d="M77 621l122 79h56q28 0 28 -23v-393h-76q-28 0 -28 22v279l-68 -42q-28 14 -44 38q-6 11 -6 18q0 12 16 22zM385 0h-62q-38 0 -26 30l281 670h62q38 0 26 -30zM834 286q-12 54 -57 54q-31 0 -52 -24t-23 -74q31 23 88 23q63 0 104 -37t41 -96q0 -61 -43 -100.5 t-115 -39.5q-80 0 -130.5 56.5t-50.5 147.5v8q0 101 50 160.5t129 59.5q96 0 136 -68q9 -16 9 -25q0 -15 -20 -26q-26 -14 -66 -19zM765 187q-36 0 -64 -18q4 -46 25.5 -71.5t53.5 -25.5q23 0 38.5 14.5t15.5 40.5q0 29 -19 44.5t-50 15.5z" />
<glyph unicode="&#x215a;" horiz-adv-x="968" d="M179 358q76 0 76 60q0 30 -21.5 44.5t-56.5 14.5q-28 0 -60 -6q-14 -2 -19 -2q-10 0 -22 9l-13 11l28 211h228q24 0 24 -26v-54h-163l-10 -68q13 4 39 4q66 0 107.5 -37t41.5 -100t-44.5 -103t-121.5 -40q-57 0 -101 21.5t-44 42.5q0 23 14 45q57 -27 118 -27zM385 0h-62 q-38 0 -26 30l281 670h62q38 0 26 -30zM834 286q-12 54 -57 54q-31 0 -52 -24t-23 -74q31 23 88 23q63 0 104 -37t41 -96q0 -61 -43 -100.5t-115 -39.5q-80 0 -130.5 56.5t-50.5 147.5v8q0 101 50 160.5t129 59.5q96 0 136 -68q9 -16 9 -25q0 -15 -20 -26q-26 -14 -66 -19z M765 187q-36 0 -64 -18q4 -46 25.5 -71.5t53.5 -25.5q23 0 38.5 14.5t15.5 40.5q0 29 -19 44.5t-50 15.5z" />
<glyph unicode="&#x215b;" horiz-adv-x="968" d="M77 621l122 79h56q28 0 28 -23v-393h-76q-28 0 -28 22v279l-68 -42q-28 14 -44 38q-6 11 -6 18q0 12 16 22zM385 0h-62q-38 0 -26 30l281 670h62q38 0 26 -30zM914 309q0 -26 -15.5 -49t-41.5 -36q78 -41 78 -106q0 -57 -46.5 -91.5t-123.5 -34.5t-123.5 34.5t-46.5 90.5 q0 30 20 56t56 39q-60 35 -60 94q0 50 40.5 84t111.5 34q70 0 110.5 -33t40.5 -82zM828 115q0 21 -17 34.5t-64 28.5q-47 -26 -47 -62q0 -20 18 -32.5t46 -12.5t46 12.5t18 31.5zM714 309q0 -17 15.5 -30t51.5 -26q31 26 31 55q0 17 -13.5 27t-35.5 10t-35.5 -10t-13.5 -26z " />
<glyph unicode="&#x215c;" horiz-adv-x="968" d="M172 463q-25 1 -34 16q-12 22 -15 45l85 94h-130q-28 0 -28 28q0 26 7 54h233q24 0 35 -16q12 -20 15 -42l-105 -115q54 -10 85.5 -41.5t31.5 -79.5q0 -58 -45 -94t-122 -36q-55 0 -98.5 21.5t-43.5 43.5q0 25 13 45q61 -28 117 -28q76 0 76 49q0 50 -77 56zM385 0h-62 q-38 0 -26 30l281 670h62q38 0 26 -30zM914 309q0 -26 -15.5 -49t-41.5 -36q78 -41 78 -106q0 -57 -46.5 -91.5t-123.5 -34.5t-123.5 34.5t-46.5 90.5q0 30 20 56t56 39q-60 35 -60 94q0 50 40.5 84t111.5 34q70 0 110.5 -33t40.5 -82zM828 115q0 21 -17 34.5t-64 28.5 q-47 -26 -47 -62q0 -20 18 -32.5t46 -12.5t46 12.5t18 31.5zM714 309q0 -17 15.5 -30t51.5 -26q31 26 31 55q0 17 -13.5 27t-35.5 10t-35.5 -10t-13.5 -26z" />
<glyph unicode="&#x215d;" horiz-adv-x="968" d="M179 358q76 0 76 60q0 30 -21.5 44.5t-56.5 14.5q-28 0 -60 -6q-14 -2 -19 -2q-10 0 -22 9l-13 11l28 211h228q24 0 24 -26v-54h-163l-10 -68q13 4 39 4q66 0 107.5 -37t41.5 -100t-44.5 -103t-121.5 -40q-57 0 -101 21.5t-44 42.5q0 23 14 45q57 -27 118 -27zM385 0h-62 q-38 0 -26 30l281 670h62q38 0 26 -30zM914 309q0 -26 -15.5 -49t-41.5 -36q78 -41 78 -106q0 -57 -46.5 -91.5t-123.5 -34.5t-123.5 34.5t-46.5 90.5q0 30 20 56t56 39q-60 35 -60 94q0 50 40.5 84t111.5 34q70 0 110.5 -33t40.5 -82zM828 115q0 21 -17 34.5t-64 28.5 q-47 -26 -47 -62q0 -20 18 -32.5t46 -12.5t46 12.5t18 31.5zM714 309q0 -17 15.5 -30t51.5 -26q31 26 31 55q0 17 -13.5 27t-35.5 10t-35.5 -10t-13.5 -26z" />
<glyph unicode="&#x215e;" horiz-adv-x="968" d="M385 0h-62q-38 0 -26 30l281 670h62q38 0 26 -30zM914 309q0 -26 -15.5 -49t-41.5 -36q78 -41 78 -106q0 -57 -46.5 -91.5t-123.5 -34.5t-123.5 34.5t-46.5 90.5q0 30 20 56t56 39q-60 35 -60 94q0 50 40.5 84t111.5 34q70 0 110.5 -33t40.5 -82zM828 115q0 21 -17 34.5 t-64 28.5q-47 -26 -47 -62q0 -20 18 -32.5t46 -12.5t46 12.5t18 31.5zM714 309q0 -17 15.5 -30t51.5 -26q31 26 31 55q0 17 -13.5 27t-35.5 10t-35.5 -10t-13.5 -26zM361 639q-103 -176 -146 -355h-75q-35 0 -25 34q39 146 127 300h-173q-27 0 -27 28q0 22 6 54h262 q26 0 36 -18q10 -17 15 -43z" />
<glyph unicode="&#x215f;" horiz-adv-x="968" d="M77 621l122 79h56q28 0 28 -23v-393h-76q-28 0 -28 22v279l-68 -42q-28 14 -44 38q-6 11 -6 18q0 12 16 22zM385 0h-62q-38 0 -26 30l281 670h62q38 0 26 -30z" />
<glyph unicode="&#x2190;" horiz-adv-x="800" d="M288 177l-248 149q-6 3 -6 6t6 6l248 149v-104h453q25 0 25 -32v-70h-478v-104z" />
<glyph unicode="&#x2191;" horiz-adv-x="800" d="M406 714l147 -248h-103v-479h-68q-32 0 -32 25v454h-103l147 248q3 6 6 6t6 -6z" />
<glyph unicode="&#x2192;" horiz-adv-x="800" d="M42 383h470v104l248 -149q6 -3 6 -6t-6 -6l-248 -149v104h-453q-25 0 -25 31q0 29 8 71z" />
<glyph unicode="&#x2193;" horiz-adv-x="800" d="M394 -7l-148 248h104v471q34 8 64 8q35 0 35 -28v-451h104l-147 -248q-3 -6 -6 -6t-6 6z" />
<glyph unicode="&#x2194;" horiz-adv-x="800" d="M512 281h-224v-104l-248 149q-6 4 -6 6t6 6l248 149v-104h224v104l248 -149q6 -4 6 -6t-6 -6l-248 -149v104z" />
<glyph unicode="&#x2195;" horiz-adv-x="800" d="M553 241l-147 -248q-3 -6 -6 -6t-6 6l-148 248h104v225h-104l148 248q3 6 6 6t6 -6l147 -248h-104v-225h104z" />
<glyph unicode="&#x21a8;" horiz-adv-x="800" d="M536 -90h-250q-23 0 -23 29t7 61h119l-143 241h104v225h-104l148 248q3 6 6 6t6 -6l147 -248h-104v-225h104l-143 -241h101q25 0 25 -32v-58z" />
<glyph unicode="&#x2202;" horiz-adv-x="650" d="M184 500q-56 5 -94 28q-23 14 -23 36q0 17 10 37q30 53 86.5 82t129.5 29q137 0 219 -99t82 -270v-16q0 -156 -82.5 -247.5t-213.5 -91.5q-115 0 -184 64.5t-69 165.5q0 100 71 163.5t176 63.5q96 0 159 -52q-8 103 -51.5 152.5t-108.5 49.5q-42 0 -70 -24.5t-37 -70.5z M319 332q-59 0 -96.5 -32t-37.5 -87q0 -50 31 -79t78 -29q66 0 109 49t49 136q-56 42 -133 42z" />
<glyph unicode="&#x2206;" horiz-adv-x="689" d="M201 115h287l-144 432zM434 665l242 -665h-621q-16 0 -25.5 10t-4.5 25l236 649q51 23 110 23q28 0 41.5 -9t21.5 -33z" />
<glyph unicode="&#x220f;" horiz-adv-x="712" d="M627 -111h-106q-34 0 -34 27v708h-263v-735h-106q-34 0 -34 27v824h509q34 0 34 -27v-824z" />
<glyph unicode="&#x2211;" horiz-adv-x="623" d="M594 624h-397l191 -268v-26q0 -20 -12 -41l-172 -285h363q27 0 27 -33v-82h-521q-27 0 -27 34v73l211 335l-220 306q14 50 32 76.5t53 26.5h445q27 0 27 -34v-82z" />
<glyph unicode="&#x2212;" horiz-adv-x="634" d="M559 280h-455q-29 0 -29 34q0 38 9 70h446q29 0 29 -31v-73z" />
<glyph unicode="&#x2215;" horiz-adv-x="191" d="M-1 0h-62q-38 0 -26 30l281 670h62q38 0 26 -30z" />
<glyph unicode="&#x2219;" horiz-adv-x="333" d="M164 411q32 0 56 -22.5t24 -59.5q0 -35 -21 -55.5t-54 -20.5q-32 0 -56 23t-24 60q0 35 21 55t54 20z" />
<glyph unicode="&#x221a;" horiz-adv-x="584" d="M535 736l-143 -701q-7 -35 -51 -35h-108l-118 290h-50q-28 0 -28 34q0 28 7 67h115q24 0 34.5 -5.5t16.5 -20.5l83 -213l126 618h87q37 0 29 -34z" />
<glyph unicode="&#x221e;" horiz-adv-x="780" d="M457 332q42 -54 84 -54q23 0 39 15t16 39t-16 39.5t-39 15.5q-41 0 -84 -55zM710 332q0 -66 -47 -109.5t-114 -43.5q-88 0 -159 86q-72 -86 -159 -86q-67 0 -114 44t-47 110t47 109t114 43q87 0 159 -85q71 85 159 85q67 0 114 -43.5t47 -109.5zM323 332q-42 55 -84 55 q-23 0 -39 -15t-16 -39q0 -25 16 -40t39 -15q42 0 84 54z" />
<glyph unicode="&#x221f;" horiz-adv-x="644" d="M625 0h-356q-100 0 -142.5 48t-42.5 149v372q46 13 100 13q40 0 40 -31v-335q0 -57 14 -79t53 -22h307q27 0 27 -34v-81z" />
<glyph unicode="&#x2229;" horiz-adv-x="756" d="M378 503q-71 0 -112.5 -54t-41.5 -155v-294h-106q-34 0 -34 26v255q0 162 76.5 249t217.5 87t217.5 -87t76.5 -249v-255q0 -26 -34 -26h-106v294q0 101 -41.5 155t-112.5 54z" />
<glyph unicode="&#x222b;" horiz-adv-x="537" d="M18 -183q0 33 19 55q33 -12 85 -12q43 0 61 17t18 58v627q0 89 46 134.5t128 45.5q54 0 98 -21.5t44 -42.5q0 -32 -18 -55q-34 12 -85 12q-43 0 -61.5 -17.5t-18.5 -57.5v-627q0 -89 -45.5 -134.5t-127.5 -45.5q-55 0 -99 21.5t-44 42.5z" />
<glyph unicode="&#x2248;" horiz-adv-x="634" d="M423 125q-64 0 -118 40q-59 43 -82 43q-42 0 -51 -82q-50 -4 -83 13q-25 13 -25 35q0 17 4 30q31 108 142 108q64 0 118 -40q59 -43 82 -43q21 0 33.5 18.5t17.5 64.5l82 -17q27 -6 27 -26q0 -59 -42 -101.5t-105 -42.5zM423 353q-64 0 -118 40q-59 43 -82 43 q-42 0 -51 -82q-50 -4 -83 13q-25 13 -25 35q0 17 4 30q31 108 142 108q64 0 118 -40q59 -43 82 -43q21 0 33.5 18.5t17.5 64.5l82 -17q27 -6 27 -26q0 -59 -42 -101.5t-105 -42.5z" />
<glyph unicode="&#x2260;" horiz-adv-x="634" d="M214 46h-52q-38 0 -24 27l48 92h-82q-29 0 -29 34q0 38 9 71h155l65 124h-200q-29 0 -29 35q0 37 9 70h274l62 119h52q38 0 24 -27l-48 -92h82q29 0 29 -32v-73h-165l-65 -124h201q29 0 29 -32v-73h-283z" />
<glyph unicode="&#x2261;" horiz-adv-x="634" d="M559 463h-455q-29 0 -29 34q0 38 9 71h446q29 0 29 -32v-73zM559 96h-455q-29 0 -29 35q0 37 9 70h446q29 0 29 -32v-73zM559 280h-455q-29 0 -29 34q0 38 9 70h446q29 0 29 -31v-73z" />
<glyph unicode="&#x2264;" horiz-adv-x="634" d="M559 0h-456q-29 0 -29 34q0 33 10 70h446q29 0 29 -32v-72zM550 152l-450 196q-26 11 -26 39v84l431 186q12 5 19 5q26 0 26 -42q0 -39 -7 -74l-313 -131l295 -126q25 -11 25 -39v-98z" />
<glyph unicode="&#x2265;" horiz-adv-x="634" d="M530 0h-456v72q0 32 30 32h445q10 -37 10 -70q0 -34 -29 -34zM533 348l-450 -196v105q0 24 23 33l297 125l-313 131q-7 35 -7 74q0 42 26 42q8 0 20 -5l430 -186v-84q0 -28 -26 -39z" />
<glyph unicode="&#x2302;" horiz-adv-x="658" d="M592 0h-361q-84 0 -125 45t-41 144v140l196 222q45 19 87 19q29 0 56 -30l150 -169q24 -26 31 -40.5t7 -38.5v-292zM254 114h199v173l-124 142l-126 -142v-91q0 -46 12 -64t39 -18z" />
<glyph unicode="&#x2310;" horiz-adv-x="634" d="M559 356h-346v-188h-95q-34 0 -34 27v265h446q29 0 29 -31v-73z" />
<glyph unicode="&#x2318;" horiz-adv-x="790" d="M534 368v-97h42q71 0 117 -38t46 -104q0 -63 -43.5 -102t-106.5 -39q-66 0 -107.5 39.5t-41.5 107.5v52h-89v-52q0 -68 -42 -107.5t-108 -39.5q-63 0 -106 39t-43 102q0 66 46 104t117 38h42v97h-42q-71 0 -117 38t-46 104q0 63 43 102t106 39q66 0 108 -39.5t42 -107.5 v-52h89v52q0 68 41.5 107.5t107.5 39.5q63 0 106.5 -39t43.5 -102q0 -66 -46 -104t-117 -38h-42zM204 452h53v55q0 27 -16 43.5t-40 16.5q-25 0 -40 -15.5t-15 -39.5q0 -27 14.5 -43.5t43.5 -16.5zM351 368v-97h89v97h-89zM534 452h53q29 0 43.5 17t14.5 43q0 24 -15.5 39.5 t-40.5 15.5q-24 0 -39.5 -16.5t-15.5 -43.5v-55zM257 187h-53q-29 0 -43.5 -16.5t-14.5 -43.5q0 -24 15 -39.5t40 -15.5q24 0 40 16.5t16 43.5v55zM587 187h-53v-55q0 -27 15.5 -43.5t39.5 -16.5q25 0 40.5 15.5t15.5 39.5q0 26 -14.5 43t-43.5 17z" />
<glyph unicode="&#x25ca;" horiz-adv-x="532" d="M265 549l-101 -197l101 -196l103 196zM320 688l174 -336l-173 -333q-9 -19 -41 -19h-60l-183 352l178 343q30 14 68 14q16 0 23.5 -4.5t13.5 -16.5z" />
<glyph unicode="&#x25cf;" horiz-adv-x="1000" d="M162 326q0 140 99 239t239 99t239 -99t99 -239t-99 -239t-239 -99t-239 99t-99 239z" />
<glyph unicode="&#x25fc;" horiz-adv-x="540" d="M0 540h540v-540h-540v540z" />
<glyph horiz-adv-x="420" d="M282 -110q0 -63 -43 -113q-21 -25 -43.5 -39t-31.5 -10q-17 10 -22 30q38 34 47 72q-22 6 -35.5 23.5t-13.5 42.5q0 28 20.5 46.5t49.5 18.5q30 0 51 -20t21 -51z" />
<glyph horiz-adv-x="668" d="M333 712q130 0 204 -95t74 -267q0 -171 -73.5 -266.5t-203.5 -95.5q-131 0 -205 95.5t-74 266.5t74 266.5t204 95.5zM339 104q131 0 131 238q0 254 -142 254q-63 0 -97.5 -59t-34.5 -179t35.5 -187t107.5 -67z" />
<glyph horiz-adv-x="501" d="M265 700h87q32 0 32 -30v-670h-107q-34 0 -34 26v517l-135 -84q-43 27 -61 54q-10 17 -10 26q0 18 27 35z" />
<glyph horiz-adv-x="638" d="M79 89q68 38 125 79t108.5 90.5t80.5 105.5t29 112q0 55 -30.5 85.5t-81.5 30.5q-45 0 -77.5 -30.5t-47.5 -85.5q-57 4 -95 25q-24 14 -24 35q0 18 8 34q29 63 90.5 102.5t147.5 39.5q114 0 183 -65t69 -174q0 -195 -237 -357h214q27 0 27 -34v-82h-421q-31 0 -46 23 q-16 29 -22 66z" />
<glyph horiz-adv-x="616" d="M270 314q-34 3 -46 24q-17 29 -22 71l160 175h-258q-29 0 -29 35q0 39 10 81h385q32 0 47 -23q15 -26 22 -66l-190 -202q97 -19 154.5 -71.5t57.5 -135.5q0 -94 -73.5 -154t-198.5 -60q-93 0 -160 30t-67 66q0 34 20 63q86 -42 187 -42q73 0 112 26t39 74q0 98 -150 109z " />
<glyph horiz-adv-x="648" d="M382 249v302q-62 -51 -118.5 -137t-79.5 -165h198zM35 222q37 131 122 255.5t191 207.5q53 22 129 22q26 0 35.5 -8t9.5 -27v-423h62q27 0 27 -34v-82h-89v-133h-106q-34 0 -34 27v106h-278q-31 0 -47 24q-16 27 -22 65z" />
<glyph horiz-adv-x="595" d="M257 105q68 0 109.5 29t41.5 88t-41.5 88t-109.5 29q-57 0 -112 -11q-16 -2 -21 -2q-16 0 -27 10l-19 17l46 347h373q27 0 27 -34v-82h-283l-19 -140q30 10 78 10q109 0 179 -62t70 -168q0 -104 -71.5 -170t-197.5 -66q-96 0 -165 32t-69 64q0 34 20 63q86 -42 191 -42z " />
<glyph horiz-adv-x="650" d="M466 500q-9 46 -37 70.5t-70 24.5q-64 0 -108.5 -49.5t-51.5 -152.5q63 52 160 52q105 0 176 -63.5t71 -163.5q0 -101 -69 -165.5t-184 -64.5q-134 0 -215 91t-81 248v16q0 171 82 270t218 99q74 0 130 -29t86 -82q11 -18 11 -37q0 -22 -24 -36q-36 -23 -94 -28zM331 332 q-79 0 -133 -42q6 -87 49 -136t109 -49q47 0 78 29t31 79q0 55 -37.5 87t-96.5 32z" />
<glyph horiz-adv-x="607" d="M567 613q-182 -315 -251 -613h-104q-19 0 -29.5 10.5t-4.5 28.5q98 325 229 545h-325q-29 0 -29 35q0 38 10 81h436q32 0 47 -25t21 -62z" />
<glyph horiz-adv-x="671" d="M87 519q0 82 65.5 137.5t178.5 55.5q112 0 178.5 -55t66.5 -134q0 -94 -94 -152q128 -61 128 -175q0 -92 -73.5 -150t-200.5 -58q-125 0 -200.5 56.5t-75.5 147.5q0 56 35 99.5t99 65.5q-107 57 -107 162zM202 193q0 -40 38.5 -65.5t96.5 -25.5q57 0 94 25t37 64 q0 40 -35.5 66t-128.5 52q-102 -39 -102 -116zM434 520q0 35 -29.5 56.5t-74.5 21.5q-43 0 -72 -21t-29 -55q0 -35 31 -59t111 -49q63 44 63 106z" />
<glyph horiz-adv-x="650" d="M294 255q-105 0 -176 63.5t-71 163.5q0 101 69 165.5t184 64.5q134 0 215 -91t81 -248v-20q0 -177 -84.5 -271t-222.5 -94q-74 0 -137 31.5t-63 62.5q0 33 20 63q66 -40 152 -40q80 0 133 48.5t60 153.5q-63 -52 -160 -52zM297 595q-47 0 -78 -29t-31 -79q0 -55 37.5 -87 t96.5 -32q79 0 132 41q-6 88 -48.5 137t-108.5 49z" />
<glyph horiz-adv-x="388" d="M93 350q0 114 34 221t95 181q35 42 62 42q33 0 57 -51q-116 -176 -116 -393t116 -393q-24 -51 -57 -51q-27 0 -62 42q-61 74 -95 181t-34 221z" />
<glyph horiz-adv-x="388" d="M295 350q0 -114 -34 -221t-95 -181q-35 -42 -62 -42q-33 0 -57 51q116 176 116 393t-116 393q24 51 57 51q27 0 62 -42q61 -74 95 -181t34 -221z" />
<glyph horiz-adv-x="451" d="M89 405h253q29 0 29 -32v-79h-263q-29 0 -29 35q0 42 10 76z" />
<glyph horiz-adv-x="1020" d="M474 224q64 0 105 53l34 173q-23 26 -77 26q-56 0 -97.5 -45.5t-41.5 -115.5q0 -42 21 -66.5t56 -24.5zM950 374q0 -111 -52.5 -181.5t-148.5 -70.5q-51 0 -92.5 23t-63.5 65q-51 -83 -155 -83q-71 0 -119 53.5t-48 132.5q0 122 79 191.5t188 69.5q66 0 118 -29t83 -76 l-36 -190q-13 -69 62 -69q44 0 72 43.5t28 120.5q0 146 -98 241.5t-258 95.5q-148 0 -250.5 -102.5t-102.5 -257.5q0 -157 103.5 -259.5t264.5 -102.5q136 0 228 68q19 -14 23 -35q1 -8 -8.5 -21t-31 -28t-51 -28.5t-73.5 -22.5t-93 -9q-194 0 -321 125t-127 312t127 312 t312 125q193 0 317 -116t124 -297z" />
<glyph horiz-adv-x="430" d="M241 683v-569q0 -56 13.5 -76.5t50.5 -20.5h69q27 0 27 -34v-73h-113q-93 0 -134.5 46.5t-41.5 155.5v678h265q29 0 29 -36q0 -30 -9 -71h-156z" />
<glyph horiz-adv-x="430" d="M187 114v569h-155q-9 41 -9 71q0 36 29 36h224q26 0 33.5 -6.5t7.5 -32.5v-635q0 -111 -42.5 -158.5t-134.5 -47.5h-112v73q0 34 27 34h69q37 0 50 20.5t13 76.5z" />
<glyph horiz-adv-x="435" d="M82 294q-26 3 -26 35v74q106 0 106 100v98q0 99 45 144t149 45h31q29 0 29 -36q0 -34 -8 -71h-58q-59 0 -59 -80v-93q0 -121 -96 -160q53 -23 74.5 -59.5t21.5 -101.5v-94q0 -42 13.5 -60t45.5 -18h34q27 0 27 -34v-73h-69q-90 0 -135 49t-45 137v96q0 49 -20 73t-60 29z " />
<glyph horiz-adv-x="435" d="M353 294q-43 -6 -61.5 -28.5t-18.5 -69.5v-101q0 -101 -44.5 -143t-138.5 -42h-67v73q0 34 27 34h26q59 0 59 79v93q0 121 96 161q-96 39 -96 160v89q0 84 -59 84h-49q-9 41 -9 71q0 36 29 36h37q98 0 143.5 -45t45.5 -148v-94q0 -100 106 -100v-74q0 -32 -26 -35z" />
<glyph horiz-adv-x="316" d="M156 712q33 0 57 -21.5t24 -56.5q0 -34 -21.5 -54t-55.5 -20q-33 0 -57 21.5t-24 57.5q0 34 21.5 53.5t55.5 19.5zM214 484q18 -180 18 -358v-122q-51 -12 -106 -12q-42 0 -42 32v102q0 177 20 385h76q30 0 34 -27z" />
<glyph horiz-adv-x="596" d="M296 139l-223 157q-17 13 -17 36v60l205 144q12 9 20 9q20 0 20 -30q0 -22 -8 -68l-144 -97l130 -88q17 -12 17 -34v-89zM535 139l-223 157q-17 13 -17 36v60l205 144q12 9 20 9q20 0 20 -30q0 -22 -8 -68l-144 -97l130 -88q17 -12 17 -34v-89z" />
<glyph horiz-adv-x="333" d="M164 429q32 0 56 -22.5t24 -59.5q0 -35 -21 -55.5t-54 -20.5q-32 0 -56 23t-24 60q0 35 21 55t54 20z" />
<glyph horiz-adv-x="596" d="M284 296l-223 -157v89q0 22 17 34l129 88l-143 97q-8 37 -8 68q0 30 19 30q9 0 21 -9l205 -144v-60q0 -23 -17 -36zM523 296l-223 -157v89q0 22 17 34l129 88l-143 97q-8 37 -8 68q0 30 19 30q9 0 21 -9l205 -144v-60q0 -23 -17 -36z" />
<glyph horiz-adv-x="565" d="M398 222q46 -3 83 -19t37 -41q0 -16 -8 -34q-26 -64 -85 -102t-140 -38q-103 0 -166 56.5t-63 147.5q0 102 107 192q38 32 52 52t14 50v26h106q34 0 34 -27v-15q0 -49 -22.5 -86.5t-74.5 -75.5q-42 -30 -58 -57t-16 -61q0 -37 23.5 -59.5t63.5 -22.5q41 0 72.5 29.5 t40.5 84.5zM298 712q33 0 56.5 -21t23.5 -57q0 -34 -21.5 -53.5t-55.5 -19.5q-33 0 -56.5 21.5t-23.5 56.5q0 34 21 53.5t56 19.5z" />
<glyph horiz-adv-x="500" d="M9 405h461q30 0 30 -32v-79h-472q-28 0 -28 35q0 40 9 76z" />
<glyph horiz-adv-x="1000" d="M9 405h961q30 0 30 -32v-79h-972q-28 0 -28 35q0 40 9 76z" />
<glyph horiz-adv-x="464" d="M236 208q-58 0 -100.5 40.5t-42.5 107.5q0 62 37.5 99t97.5 37q58 0 100 -40.5t42 -107.5q0 -62 -37 -99t-97 -37z" />
<glyph horiz-adv-x="357" d="M296 139l-223 157q-17 13 -17 36v60l205 144q12 9 20 9q20 0 20 -30q0 -22 -8 -68l-144 -97l130 -88q17 -12 17 -34v-89z" />
<glyph horiz-adv-x="357" d="M284 296l-223 -157v89q0 22 17 34l129 88l-143 97q-8 37 -8 68q0 30 19 30q9 0 21 -9l205 -144v-60q0 -23 -17 -36z" />
<glyph d="M374 492q0 -102 -45.5 -159t-125.5 -57t-125.5 57t-45.5 159t45.5 159t125.5 57t125.5 -57t45.5 -159zM271 487q0 138 -71 138q-65 0 -65 -128q0 -138 71 -138q65 0 65 128z" />
<glyph d="M78 621l122 79h56q28 0 28 -23v-393h-76q-28 0 -28 22v279l-68 -42q-28 14 -44 38q-6 11 -6 18q0 12 16 22z" />
<glyph d="M357 339v-55h-256q-24 0 -35 20q-8 14 -12 49q83 41 139.5 96.5t56.5 115.5q0 27 -15.5 42.5t-38.5 15.5q-46 0 -61 -68q-44 2 -72 17q-19 10 -19 25q0 16 5 27q16 37 57 60.5t91 23.5q71 0 114 -39.5t43 -106.5q0 -109 -128 -196h106q25 0 25 -27z" />
<glyph d="M173 463q-25 1 -34 16q-12 22 -15 45l85 94h-130q-28 0 -28 28q0 26 7 54h233q24 0 35 -16q12 -20 15 -42l-105 -115q54 -10 85.5 -41.5t31.5 -79.5q0 -58 -45 -94t-122 -36q-55 0 -98.5 21.5t-43.5 43.5q0 25 13 45q61 -28 117 -28q76 0 76 49q0 50 -77 56z" />
<glyph d="M229 438v156q-29 -29 -58 -74t-42 -82h100zM380 412v-52h-51v-76h-72q-28 0 -28 22v54h-159q-20 0 -29 17q-10 20 -13 48q21 73 71.5 146.5t106.5 114.5q41 19 86 19q22 0 29.5 -6t7.5 -22v-239h27q24 0 24 -26z" />
<glyph d="M180 358q76 0 76 60q0 30 -21.5 44.5t-56.5 14.5q-28 0 -60 -6q-14 -2 -19 -2q-10 0 -22 9l-13 11l28 211h228q24 0 24 -26v-54h-163l-10 -68q13 4 39 4q66 0 107.5 -37t41.5 -100t-44.5 -103t-121.5 -40q-57 0 -101 21.5t-44 42.5q0 23 14 45q57 -27 118 -27z" />
<glyph d="M272 570q-12 54 -57 54q-31 0 -52 -24t-23 -74q31 23 88 23q63 0 104 -37t41 -96q0 -61 -43 -100.5t-115 -39.5q-80 0 -130.5 56.5t-50.5 147.5v8q0 101 50 160.5t129 59.5q96 0 136 -68q9 -16 9 -25q0 -15 -20 -26q-26 -14 -66 -19zM203 471q-36 0 -64 -18 q4 -46 25.5 -71.5t53.5 -25.5q23 0 38.5 14.5t15.5 40.5q0 29 -19 44.5t-50 15.5z" />
<glyph d="M361 639q-103 -176 -146 -355h-75q-35 0 -25 34q39 146 127 300h-173q-27 0 -27 28q0 22 6 54h262q26 0 36 -18q10 -17 15 -43z" />
<glyph d="M352 593q0 -26 -15.5 -49t-41.5 -36q78 -41 78 -106q0 -57 -46.5 -91.5t-123.5 -34.5t-123.5 34.5t-46.5 90.5q0 30 20 56t56 39q-60 35 -60 94q0 50 40.5 84t111.5 34q70 0 110.5 -33t40.5 -82zM266 399q0 21 -17 34.5t-64 28.5q-47 -26 -47 -62q0 -20 18 -32.5 t46 -12.5t46 12.5t18 31.5zM152 593q0 -17 15.5 -30t51.5 -26q31 26 31 55q0 17 -13.5 27t-35.5 10t-35.5 -10t-13.5 -26z" />
<glyph d="M180 430q-63 0 -105 39t-42 99q0 61 43.5 100.5t113.5 39.5q80 0 131 -56t51 -146v-11q0 -107 -52 -163t-136 -56q-51 0 -88.5 20.5t-37.5 41.5q0 27 14 47q40 -27 97 -27q40 0 67.5 22.5t30.5 72.5q-36 -23 -87 -23zM188 625q-21 0 -36 -14.5t-15 -39.5 q0 -28 17.5 -44.5t47.5 -16.5q39 0 64 19q-3 46 -24 71t-54 25z" />
<glyph d="M374 208q0 -102 -45.5 -159t-125.5 -57t-125.5 57t-45.5 159t45.5 159t125.5 57t125.5 -57t45.5 -159zM271 203q0 138 -71 138q-65 0 -65 -128q0 -138 71 -138q65 0 65 128z" />
<glyph d="M78 337l122 79h56q28 0 28 -23v-393h-76q-28 0 -28 22v279l-68 -42q-28 14 -44 38q-6 11 -6 18q0 12 16 22z" />
<glyph d="M357 55v-55h-256q-24 0 -35 20q-8 14 -12 49q83 41 139.5 96.5t56.5 115.5q0 27 -15.5 42.5t-38.5 15.5q-46 0 -61 -68q-44 2 -72 17q-19 10 -19 25q0 16 5 27q16 37 57 60.5t91 23.5q71 0 114 -39.5t43 -106.5q0 -109 -128 -196h106q25 0 25 -27z" />
<glyph d="M173 179q-25 1 -34 16q-12 22 -15 45l85 94h-130q-28 0 -28 28q0 26 7 54h233q24 0 35 -16q12 -20 15 -42l-105 -115q54 -10 85.5 -41.5t31.5 -79.5q0 -58 -45 -94t-122 -36q-55 0 -98.5 21.5t-43.5 43.5q0 25 13 45q61 -28 117 -28q76 0 76 49q0 50 -77 56z" />
<glyph d="M229 154v156q-29 -29 -58 -74t-42 -82h100zM380 128v-52h-51v-76h-72q-28 0 -28 22v54h-159q-20 0 -29 17q-10 20 -13 48q21 73 71.5 146.5t106.5 114.5q41 19 86 19q22 0 29.5 -6t7.5 -22v-239h27q24 0 24 -26z" />
<glyph d="M180 74q76 0 76 60q0 30 -21.5 44.5t-56.5 14.5q-28 0 -60 -6q-14 -2 -19 -2q-10 0 -22 9l-13 11l28 211h228q24 0 24 -26v-54h-163l-10 -68q13 4 39 4q66 0 107.5 -37t41.5 -100t-44.5 -103t-121.5 -40q-57 0 -101 21.5t-44 42.5q0 23 14 45q57 -27 118 -27z" />
<glyph d="M272 286q-12 54 -57 54q-31 0 -52 -24t-23 -74q31 23 88 23q63 0 104 -37t41 -96q0 -61 -43 -100.5t-115 -39.5q-80 0 -130.5 56.5t-50.5 147.5v8q0 101 50 160.5t129 59.5q96 0 136 -68q9 -16 9 -25q0 -15 -20 -26q-26 -14 -66 -19zM203 187q-36 0 -64 -18 q4 -46 25.5 -71.5t53.5 -25.5q23 0 38.5 14.5t15.5 40.5q0 29 -19 44.5t-50 15.5z" />
<glyph d="M361 355q-103 -176 -146 -355h-75q-35 0 -25 34q39 146 127 300h-173q-27 0 -27 28q0 22 6 54h262q26 0 36 -18q10 -17 15 -43z" />
<glyph d="M352 309q0 -26 -15.5 -49t-41.5 -36q78 -41 78 -106q0 -57 -46.5 -91.5t-123.5 -34.5t-123.5 34.5t-46.5 90.5q0 30 20 56t56 39q-60 35 -60 94q0 50 40.5 84t111.5 34q70 0 110.5 -33t40.5 -82zM266 115q0 21 -17 34.5t-64 28.5q-47 -26 -47 -62q0 -20 18 -32.5 t46 -12.5t46 12.5t18 31.5zM152 309q0 -17 15.5 -30t51.5 -26q31 26 31 55q0 17 -13.5 27t-35.5 10t-35.5 -10t-13.5 -26z" />
<glyph d="M180 146q-63 0 -105 39t-42 99q0 61 43.5 100.5t113.5 39.5q80 0 131 -56t51 -146v-11q0 -107 -52 -163t-136 -56q-51 0 -88.5 20.5t-37.5 41.5q0 27 14 47q40 -27 97 -27q40 0 67.5 22.5t30.5 72.5q-36 -23 -87 -23zM188 341q-21 0 -36 -14.5t-15 -39.5 q0 -28 17.5 -44.5t47.5 -16.5q39 0 64 19q-3 46 -24 71t-54 25z" />
</font>
</defs>
</svg>
